<?xml version="1.0" encoding="utf-8"?>
<!-- Generator: Adobe Adobe Illustrator 24.2.0, SVG Export Plug-In . SVG Version: 6.00 Build 0)  -->
<svg version="1.1" id="Layer_1" xmlns="http://www.w3.org/2000/svg" xmlns:xlink="http://www.w3.org/1999/xlink" x="0px" y="0px"
	 width="2000px" height="2000px" viewBox="0 0 2000 2000" style="enable-background:new 0 0 2000 2000;" xml:space="preserve">
<style type="text/css">
	.st0{fill:#FFFFFF;}
	.st1{fill:#090105;}
	.st2{fill:#484E5E;}
	.st3{fill:#495664;}
	.st4{fill:#402840;}
	.st5{fill:#F6F5F4;}
	.st6{fill:#454455;}
	.st7{fill:#24081B;}
	.st8{fill:#535E6B;}
	.st9{fill:#BAB9F7;}
	.st10{fill:#FCFCFC;}
	.st11{fill:#F9F9F9;}
	.st12{fill:#F7F7F7;}
</style>
<g>
	<g>
		<path class="st0" d="M1333.62,2328.17c-546.6,0-1091.94,0-1637.28,0c0-970,0-1940,0-2910c856.67,0,1713.33,0,2570,0
			c0,970,0,1940,0,2910C1955.85,2328.17,1645.36,2328.17,1333.62,2328.17z M152.6,1017.33c-0.52,0.08-1.03,0.16-1.55,0.23
			c0.41,0.48,0.83,0.95,1.65,2.47c0.41,0.75,1.04,1.05,2.58,2.39c0.99,1.18,1.97,2.37,2.96,3.55c0.58-0.56,1.16-1.12,1.74-1.68
			c-1.7-1.37-3.41-2.75-5.11-5.09C154.46,1018.59,153.89,1018.24,152.6,1017.33z M169.41,1040.21c0.96,0.3,1.93,0.6,2.89,0.89
			c-0.7-0.79-1.39-1.57-2.24-3.75c-0.79-0.37-1.58-0.73-2.26-2.41c-0.26-0.36-0.51-0.71-1.07-2.67c-1.67-1.35-3.34-2.7-5.01-4.05
			c-0.44,0.45-0.87,0.89-1.31,1.34c1.62,2.08,3.25,4.16,6.06,7.52c0.48-0.33,0.95-0.67,0.7,0.98
			C168.25,1038.24,169.34,1038.42,169.41,1040.21z M1961.71,1033.7c-0.53-0.08-1.06-0.16-2.52,0.3c0.1,0.58,0.2,1.16,0.3,1.74
			C1959.95,1035.23,1960.42,1034.71,1961.71,1033.7z M181.85,622.26c0.74-1.05,1.47-2.1,2.21-3.15c-0.65-0.23-1.76-0.8-1.87-0.65
			c-0.83,1.14-1.46,2.43-2.82,4.08C179.71,622.53,180.06,622.53,181.85,622.26z M199.39,608.26c3.13-2.66,6.25-5.32,11.05-8.38
			c17.21-10.94,34.06-22.53,51.73-32.65c23.84-13.65,48.19-26.45,72.61-39.05c9.81-5.06,20.37-8.64,31.03-13.08
			c2.24,5.05,3.74,8.41,4.75,13.96c-2.87,19.6-5.22,39.29-8.78,58.77c-2.89,15.81-7.21,31.36-11.77,48.73
			c-7.37,32.01-15.24,63.92-21.92,96.08c-4.3,20.7-6.87,41.76-11.16,64.43c-1.49,19.14-2.89,38.28-4.5,57.41
			c-1.16,13.71-1.9,27.51-4.12,41.05c-2.17,13.2-4.81,14.91-18.05,16.32c-43.57,4.65-87.16,9.17-130.73,13.85
			c-6.14,0.66-12.22,1.93-19.54,3.12c8.86,26.54,21.13,50.03,37.33,71.27c16.33,21.41,33.63,42.09,50.62,63.23
			c-1.24,0.46-2.36,1.02-3.54,1.28c-22.26,4.86-22.22,4.81-38.61-11.54c-3.8-3.79-8.02-7.16-12.05-10.73
			c-0.44,4.04,0.64,6.58,2.28,8.68c15.34,19.71,30.28,39.77,46.29,58.93c32.31,38.67,65.93,76.17,104.68,110.91
			c22.2,21.07,44.39,42.15,67.56,64.61c17.26,14.41,33.78,29.84,51.94,43c28.29,20.5,57.15,40.33,86.79,58.81
			c27.5,17.14,55.77,33.25,84.73,47.77c27.85,13.97,56.99,25.38,85.6,37.82c41.48,18.03,85.88,26.15,129.3,37.52
			c11.64,3.05,23.95,3.44,35.78,5.9c20.79,4.33,41.22,10.89,62.18,13.74c73.21,9.97,146.68,9.14,220.02,1.3
			c38.57-4.13,76.88-10.48,114.57-19.94c17.78-4.46,35.71-8.61,53.07-14.41c27.23-9.09,54.17-19.13,80.98-29.4
			c19.41-7.44,38.81-15.11,57.55-24.08c39.4-18.86,78.68-38.02,117.37-58.28c22.8-11.94,45.3-24.92,66.31-39.75
			c31.59-22.3,62.48-45.75,92.27-70.4c21.75-18,42.25-37.79,61.5-58.47c22.4-24.07,44.29-48.54,68.38-70.99
			c31.77-29.61,60.78-61.76,88.17-97.04c1.24-2.02,2.48-4.04,4.61-7.2c-0.15-0.64-0.3-1.28-0.44-1.91
			c-0.82,0.53-1.64,1.06-4.15,2.05c-3.85,3.38-7.2,7.64-15.13,6.89c-6.06-0.57-12.13-1.14-19.72-2.64
			c-2.93-0.25-5.87-0.49-10.97-1.33c-13.38-0.97-26.76-1.94-40.95-3.61c-1.36,0.16-2.72,0.33-6.04,0.17
			c-3.3-0.15-6.59-0.3-10.94-1.94c-0.29-1.07-0.57-2.14,0.27-4.53c65.13-76.41,87.07-163.03,60.13-262.33
			c19.34,0,37.28,0.24,55.2-0.06c21.3-0.35,42.6-1.13,63.9-1.79c4.73-0.15,9.16-0.35,11.28,5.3c6.01,15.98,11.03,32.16,11.76,50.97
			c-36.31,0.45-71.99,0.89-108.41,1.34c0,18.03,0,34.9,0,53.04c22.46,0,44.44,0,67.23,0c-0.41,4.56-0.19,7.95-1.09,11.02
			c-4.09,14.01-8.65,27.88-12.72,41.89c-2.13,7.32-6.58,9.4-13.93,9.03c-15.85-0.8-31.74-1-47.61-0.96
			c-3.32,0.01-8.5,1.13-9.65,3.37c-7.18,13.93-13.45,28.33-20.33,43.25c29.06,1.68,57.36,3.32,85.73,4.96
			c3.71-5.84,7.22-11,10.38-16.36c29.08-49.27,58.14-98.4,64-157.37c0.88-8.88,1.66-17.21-0.29-25.68
			c-1.68-7.3-3.92-14.5-6.45-21.56c-22.01-61.34-54.29-117.16-92.54-169.58c-10.39-14.24-20.74-29.04-36.32-39.93
			c-5.22-5.9-10.09-12.17-15.71-17.65c-28.6-27.88-56.59-56.45-86.34-83.04c-30.98-27.69-63.27-53.99-95.87-79.77
			c-28.36-22.44-58.16-43.05-86.94-64.97c-21.23-16.16-43.28-30.9-66.67-43.74c-20.76-11.4-41.06-23.61-61.86-34.93
			c-14.88-8.1-30.24-15.32-46.32-24.38c-10.25-5.43-20.15-11.68-30.82-16.08c-14.93-6.16-30.38-11.09-45.71-16.24
			c-5.32-1.79-9.27-4.18-12.1-9.55c-6.06-11.49-10.66-12.45-23.04-8.69c-4.39,1.33-10.46,1.91-14.18-0.1
			c-16.97-9.21-34.95-14.1-55.95-15.69c-5.09-0.88-10.19-1.77-16.16-4.19c-15.23-11.85-31.75-12.89-51.53-5.96
			c-7.61-0.07-15.22-0.14-24.34-1.52c-9.04-1.14-18.05-2.81-27.11-3.24c-7.38-0.35-13.09-1.72-18.71-7.61
			c-10.82-11.35-32.56-11-43.9-0.36c-3.94,3.7-7.22,5.28-13.18,3.76c-16.04-4.1-31.98-9.32-48.92-8.7c-1.95,0.07-4.1-0.84-5.91-1.78
			c-17.71-9.11-33.77-4.1-49.02,5.99c-3.36,2.23-6.08,2.79-10.21,2.49c-13.25-0.96-26.58-0.76-39.88-1.08
			c-3.56-0.09-7.38,0.31-10.63-0.81c-12.85-4.45-24.58-2.7-35.46,5.25c-3.69,2.7-7.02,6.01-10.98,8.19c-3.8,2.09-8.28,4.5-12.33,4.3
			c-14.89-0.76-29.79-2.02-44.54-4.15c-8.74-1.27-17.52-0.53-23.98,4.08c-11.48,8.18-22.54,16.13-36.18,20.85
			c-6.56,2.27-11.8,4.58-18.72,2.15c-14.6-5.14-28.49-2.87-42.11,4.41c-15.77,8.44-15.96,7.8-34.13,8.1
			c-14.64,0.25-28.57,3.97-41.89,10.21c-23.44,10.97-43.92,25.41-57.82,47.83c-5.04,8.13-9.88,16.39-16.43,25.34
			c-5.44,2.79-11.14,5.17-16.26,8.44c-19.24,12.29-38.47,24.62-57.38,37.4c-36.93,24.97-71.09,53.48-102.88,84.62
			c-26.41,25.87-52.1,52.56-76.86,80.01C282.26,490.62,267.83,511,251,531.52c-18.49,19.59-32.81,42.11-47.21,66.33
			c-1.95,3.13-3.9,6.25-7.43,9.97c-2.9,2.22-8.01,2.51-7.56,8.64C194.28,616.3,196.26,612.8,199.39,608.26z M281.54,778.75
			c7.69-36.36,15.39-72.71,23.3-110.11c-4.18,1.45-6.9,2.41-9.64,3.33c-37.07,12.43-74.28,24.48-111.13,37.54
			c-8.6,3.05-18.64,4.44-25.91,14.09c-12.08,32.08-22.21,64.71-26.98,98.79c-0.85,6.04-0.98,12.17-1.49,18.89
			c49.81-9.11,98.12-17.95,147.12-26.91C278.08,802.63,279.28,791.5,281.54,778.75z M82.18,871.66
			c-7.64,24.85,6.14,43.35,18.16,62.41c-8.58-25.52-12.81-51.73-14.3-78.74C84.86,860.08,83.66,864.83,82.18,871.66z
			 M148.95,1012.03l-0.3,0.6C148.65,1012.62,149.25,1012.51,148.95,1012.03z"/>
		<path class="st1" d="M1848.36,1040.54c3.3,0.15,6.59,0.3,11.24,1.06c2.73,0.38,4.12,0.14,5.5-0.09
			c13.38,0.97,26.76,1.94,41.46,3.94c4.61,1.1,7.89,1.17,11.17,1.24c6.06,0.57,12.13,1.14,19.86,2.41
			c5.15,0.46,8.63,0.22,12.11-0.02c-26.05,34.78-55.07,66.94-86.83,96.54c-24.09,22.45-45.98,46.92-68.38,70.99
			c-19.24,20.68-39.75,40.47-61.5,58.47c-29.79,24.65-60.68,48.1-92.27,70.4c-21,14.83-43.5,27.81-66.31,39.75
			c-38.69,20.26-77.97,39.42-117.37,58.28c-18.73,8.97-38.13,16.65-57.55,24.08c-26.82,10.27-53.75,20.31-80.98,29.4
			c-17.36,5.8-35.29,9.94-53.07,14.41c-37.69,9.46-76,15.81-114.57,19.94c-73.34,7.84-146.81,8.67-220.02-1.3
			c-20.96-2.85-41.39-9.41-62.18-13.74c-11.83-2.46-24.14-2.85-35.78-5.9c-43.42-11.37-87.81-19.48-129.3-37.52
			c-28.61-12.44-57.75-23.85-85.6-37.82c-28.96-14.52-57.23-30.63-84.73-47.77c-29.64-18.48-58.5-38.31-86.79-58.81
			c-18.16-13.16-34.68-28.59-51.71-44.31c7.6-0.74,15.14,1.14,22.3,0.18c24.2-3.25,48.48-6.49,72.31-11.68
			c24.28-5.29,48.14-12.56,72.02-19.55c19.1-5.59,37.93-12.09,56.9-18.12c17.41-5.53,35.1-10.31,52.23-16.6
			c36.23-13.31,72.19-27.34,108.2-41.22c5.94-2.29,12.84-3.41,16.71-10.34c1.82-0.15,2.86-0.23,4.83-0.25
			c5.85-0.47,10.67-1.15,12.81-7.29c2.63-0.22,4.38-0.36,7.08-0.46c6.44-2.99,14.89-1.05,17.95-9.77
			c27.5-12.47,54.15-24.71,80.68-37.21c3.26-1.53,5.84-4.49,9.71-6.93c4.88-1.48,9.02-2.37,12.67-4.23
			c18.83-9.57,37.65-19.18,56.26-29.17c28.13-15.11,56.35-30.08,84.05-45.96c30.23-17.33,59.91-35.62,90.14-53.3
			c0.31,0.19,1.03,0.11,1.55,0.54c0.95,0.59,1.38,0.74,1.93,2.04c0.95,13.03,1.78,24.92,2.58,36.45c3.03,0.48,4.25,0.83,5.48,0.85
			c55.4,1.17,110.8,2.36,166.2,3.42c11.87,0.23,20.85-6.31,23.85-17.74c1.58-6,2.39-12.31,2.65-18.52
			c1.93-46.24,3.61-92.49,5.42-138.74c0.32-8.32,0.82-16.63,2.07-24.74c1.96-0.27,3.3-0.5,4.18-1.26
			c10.57-9.03,20.96-18.28,31.65-27.16c3.32-2.76,7.39-4.6,11.2-5.84c-0.33,22.74-0.43,44.47-1.23,66.17
			c-1.39,37.55-3.09,75.09-4.91,112.62c-0.73,15-2.64,29.95-3.02,44.95c-0.26,10.16,1.35,11.32,11.72,11.73
			c27.94,1.11,55.9,1.9,83.85,2.9c6.54,0.24,11.42-2.07,13.98-8.27c2.38-5.76,5.37-11.41,6.71-17.42
			c3.01-13.43,5.29-27.03,7.59-40.6c0.95-5.63,1.19-11.38,1.83-17.84c-7.3,0-13.39,0-20.24,0c-1.91,12.88-3.77,25.47-5.69,38.43
			c-26.25-0.59-51.05-0.54-75.28-1.65c2.28-52.98,4.47-104.11,6.7-155.9c25.68,0.84,50.95,1.67,77.44,2.54c0,20.35,0,39.36,0,59.05
			c7.74,0,14.21,0,21.07,0c0-27.74,0.09-54.81-0.08-81.87c-0.03-4.98-0.84-10.01-1.8-14.91c-2.61-13.26-7.81-17.56-21.13-18.22
			c-23.76-1.18-47.52-2.41-71.09-4.43c1.58-2.77,2.56-5.28,4.4-6.6c17.58-12.57,35.43-24.76,52.96-37.4
			c31.17-22.48,64.96-40.65,99.3-57.37c33.97-16.54,68.98-31.25,104.43-44.34c38.97-14.4,78.87-26.33,119.71-34.64
			c8.96-1.82,17.96-3.55,27-4.88c20.94-3.09,41.91-5.92,62.87-8.86c15.91,9.19,26.26,23.99,36.65,38.23
			c38.25,52.42,70.53,108.24,92.54,169.58c2.53,7.05,4.77,14.26,6.45,21.56c1.95,8.47,1.17,16.81,0.29,25.68
			c-5.86,58.96-34.93,108.1-64,157.37c-3.17,5.36-6.67,10.53-10.38,16.36c-28.37-1.64-56.67-3.28-85.73-4.96
			c6.89-14.92,13.16-29.32,20.33-43.25c1.15-2.24,6.33-3.36,9.65-3.37c15.87-0.04,31.76,0.16,47.61,0.96
			c7.36,0.37,11.81-1.71,13.93-9.03c4.07-14.01,8.63-27.88,12.72-41.89c0.9-3.07,0.68-6.46,1.09-11.02c-22.78,0-44.76,0-67.23,0
			c0-18.13,0-35.01,0-53.04c36.42-0.45,72.1-0.89,108.41-1.34c-0.73-18.82-5.76-34.99-11.76-50.97c-2.12-5.65-6.55-5.45-11.28-5.3
			c-21.3,0.67-42.59,1.44-63.9,1.79c-17.92,0.3-35.86,0.06-55.2,0.06c26.94,99.3,5,185.92-61.46,263.15
			C1841.97,1040.85,1843.98,1041.63,1848.36,1040.54z M1877.54,871.45c0-13.79,0.97-27.67-0.28-41.35
			c-1.24-13.61-3.57-27.36-7.53-40.4c-4.23-13.93-9.61-16.47-24.31-16.61c-30.92-0.29-61.84-0.6-92.76-0.85
			c-3.25-0.03-6.5,0.28-10.61,0.47c15.46,89.66,9.33,175.74-36.94,255.98c17.06,3.23,17.07,3.24,25.18-9.41
			c1.57-2.46,3.2-4.92,4.41-7.56c8.6-18.88,17.1-37.81,25.71-56.89c16.06,0,32.94,0,50.76,0c-1.89,29.21-10.99,54.91-23.25,81.13
			c8.27,0,15.1,0,21.91,0c16.26-24.25,23.01-51.68,27.71-80.48c16.07,2.62,22.37-7.44,27.01-19.33c2.26-5.81,4.52-11.75,5.66-17.84
			C1872.96,903.54,1875.07,888.66,1877.54,871.45z M1630.66,768.69c-10.42-0.39-20.84-0.97-31.27-1.1
			c-9.32-0.12-11.53,1.85-13.25,11.21c-0.68,3.66-1.09,7.45-1,11.17c0.24,9.59,0.99,19.16,1.27,28.75
			c1.85,62.79-1.71,125.04-18,186.09c-1.33,4.98-1.14,10.36-1.68,15.84c3.96,0.62,6.38,1.19,8.82,1.34
			c25.38,1.64,50.82,2.51,76.1,5.08c12.97,1.32,20.94-4.03,26.32-14.28c5.4-10.27,10.54-20.85,14.18-31.83
			c19.51-58.85,23.05-119.28,16.41-180.56c-0.54-4.94-1.57-9.94-3.16-14.64c-4.22-12.48-7.66-14.79-21.01-15.25
			C1667.32,769.91,1650.22,769.35,1630.66,768.69z"/>
		<path class="st2" d="M252.42,530.5c15.4-19.5,29.83-39.88,46.44-58.29c24.76-27.45,50.45-54.14,76.86-80.01
			c31.79-31.14,65.95-59.65,102.88-84.62c18.91-12.79,38.14-25.11,57.38-37.4c5.13-3.27,10.83-5.65,17.73-8.08
			c2.68,5.43,2.4,11.81,5.44,15.27c5.2,5.91,12.66,9.75,21.31,8.15c9.71-1.8,18.44-5.71,23.99-14.32
			c4.73-7.34,8.79-15.11,13.3-22.59c2.34-3.88,4.18-9.02,7.7-11.06c12.47-7.2,24.65-15.78,40.64-15.31c0.29,1.46,0.68,3.03,0.9,4.62
			c3.22,22.79,7.47,25.65,29.56,19.82c2.36-0.62,4.7-1.33,6.75-1.91c2.2-8.62,3.23-17.1,6.58-24.52c3.47-7.69,7.41-16.19,17.9-17.3
			c16.02-1.69,32.02-3.51,48.72-5.36c0,2.88,0.03,5.75,0,8.62c-0.21,18.66,3.83,21.79,22.29,18.38c5.21-0.96,8.68-3.13,9.9-8.05
			c1.49-5.98,2.46-12.09,3.58-18.16c1.19-6.49,1.76-13.16,3.69-19.42c0.78-2.54,4.14-5.24,6.87-6.05
			c16.96-5.03,34.38-4.22,51.48-4.54c0,10.43-0.12,19.56,0.04,28.67c0.1,5.64,1.86,10.59,6.89,13.98
			c11.02,7.42,26.21,5.89,35.28-4.01c3.36-3.66,6.08-7.9,9.08-11.88c7.61-10.1,13.2-21.13,16.61-33.41
			c1.65-5.94,4.14-12.2,12.39-11.76c9.95,0.53,19.91,1.04,30.41,1.59c-0.21,3.32-0.18,5.77-0.55,8.15
			c-1.23,7.83-3.41,15.6-3.71,23.45c-0.29,7.41,0.48,15.64,8.13,19.73c8.89,4.76,17.95,5.64,27.15-0.63
			c9.96-6.79,15.06-16.45,18.58-27.37c2.28-7.06,4.46-14.16,7.15-22.73c17.43,1.77,34.2,3.47,51.74,5.25
			c-0.43,5.8-0.68,10.3-1.12,14.78c-0.7,7.06-1.92,14.1-2.21,21.17c-0.37,8.96,6.61,17.24,15.86,19.74
			c9.96,2.7,16.31-0.15,21.49-9.53c3.72-6.74,5.43-13.66,4.75-21.58c-0.66-7.7,0.28-15.54,0.55-24.24
			c28.09,2.48,54.48,4.78,80.37,11.98c-2.33,9.68-4.85,18.91-6.73,28.26c-4.35,21.59-0.03,26.92,22.32,28.33
			c0.83,0.05,1.66,0.18,2.5,0.2c10.27,0.19,12.05-1.59,12.08-12.39c0.01-4.17-0.08-8.35-0.44-12.5c-0.7-8.17,1.2-15.65,5.73-23.77
			c28.59,3.82,57.21,7.58,85.84,18.71c-3.18,6.19-5.63,11.36-8.44,16.34c-7.43,13.18-3.49,26.93,9.83,33.78
			c9.91,5.09,16.11,2.74,20.62-7.3c3.58-7.98,7.35-15.91,11.57-23.57c5.92-10.74,9.05-11.61,20-6.8c1.14,0.5,2.17,1.24,3.24,2.95
			c-1.45,10.9-2.31,20.85-4.47,30.51c-9.41,42.14-27.13,81.09-47.36,118.9c-20.41,38.15-42.64,75.29-67.82,110.49
			c-20.29,28.36-41.71,55.94-63.03,83.55c-20.59,26.66-41.85,52.79-66.12,76.29c-1.49,1.44-2.58,3.28-4.02,4.77
			c-15.38,15.84-30.28,32.2-46.35,47.31c-15.41,14.49-32.22,27.48-48.01,41.59c-3.08,2.75-4.3,7.56-7.48,11.73
			c-12.84-0.25-24.57-0.81-36.98-2.21c-10.93-1.31-21.18-2.04-31.44-2.13c-4.34-0.04-8.7,1.26-14.09,2.24
			c-15.28,0.55-15.05,0.59-17.18,13.99c-2.21,13.84-4.93,27.59-8.53,41.39c-9.97,0.69-18.84,1.38-27.77,0.94
			c2.04-19.11,4.13-37.1,6.21-54.96c-2.88-0.77-4.05-1.37-5.22-1.37c-35.02,0.02-70.04,0.21-105.06,0.08
			c-7.18-0.03-9.1,3.53-9.87,9.87c-3.27,26.87-6.91,53.69-11.5,80.54c-13.96,0.77-26.85,1.54-39.66,1.25
			c6.97-29.62,13.87-58.2,20.92-87.42c-8.52,0-15.75,0-23.98,0c-8.04,31.68-15.9,62.67-24.84,93.67
			c-15.56,0.81-30.04,1.61-44.83,1.29c-0.56-31.34-0.81-61.56-1.29-92.74c-7.47-6.34-15.32-3.86-22.99-2.49
			c-0.81,0.14-1.18,2.68-2.03,4.98c-1.73,5.2-3.5,9.45-4.61,13.86c-8.04,31.82-15.94,63.67-24.88,95.47
			c-5.59-2.78-11.1-4.66-14.58-8.43c-7.58-8.2-16.48-10.69-27.44-10.38c-0.77-28.93-1.14-56.74-1.52-85.62
			c-8.94,0.95-16.55,1.76-24.22,2.58c-0.74,14.76-1.41,28.06-3.01,41.32c-5.37-3.53-9.75-7.09-14.27-10.48
			c-8.01-6.01-13.97-15.03-25.09-17.75c-1.67-9.76-7.93-11.68-15.71-12.37c-1.35-3.87-1.99-7.52-4.14-9.59
			c-8.37-8.07-17.16-15.71-25.9-23.39c-19.33-16.99-38.8-33.82-58.05-50.91c-10.88-9.66-21.27-19.87-32.25-29.42
			c-2.55-2.22-6.58-2.75-9.92-4.05c3.69-15.67,8.02-31.22,10.9-47.03c3.55-19.47,5.91-39.17,9.6-60.43
			c-2.45-17.07-4.57-18.32-17.57-11.89c-19.28,9.54-38.48,19.26-57.72,28.87c-4.77,2.38-9.6,4.63-15.35,7.4
			c-6.64-9.55-15.37-15.5-26.14-18.37C253.68,533.16,253.14,531.5,252.42,530.5z M997.71,618.56c0,12.74,0,25.49,0,39.05
			c3.23,0,6.09,0.02,8.94,0c26.26-0.23,52.52-0.43,78.78-0.71c11.35-0.12,15.56-3.88,17.3-15.06c0.7-4.49,2.07-8.95,2.11-13.44
			c0.07-7.76-0.67-15.53-1.04-23.3c-0.09-1.93-0.74-4.23,0.04-5.76c5.61-10.99,2.43-22.02,0.38-32.98
			c-2.6-13.91-10.94-21.66-25.24-23.67c-20.6-2.9-41.07-6.65-61.64-9.77c-10.55-1.6-21.2-2.6-34.01-4.14
			C994.33,558.2,998.29,586.81,997.71,618.56z M624.51,674.3c2.92-0.1,5.84-0.18,8.76-0.31c5.9-0.26,9.64-3.6,10.11-9.18
			c1.14-13.58,1.66-27.21,2.47-41.57c-5.87,0-10.66,0-16.56,0c-1.29,7.97-2.52,15.59-3.71,22.91c-14.37,2.96-51.97,2.92-61.37-0.05
			c0-3.57-0.6-7.39,0.1-10.95c4.08-20.86,7.42-41.94,13.02-62.39c6.39-23.32,3.27-18.35,25.62-22.27
			c12.56-2.2,25.47-2.45,40.01-3.74c-2.82,13.77-5.26,25.67-7.73,37.73c16.11,1.01,16.29,0.69,19.31-11.97
			c3.19-13.39,6.83-26.67,10.29-39.99c1.44-5.54,3.78-11.05,0.2-17.97c-3.87,0-7.96-0.17-12.04,0.03
			c-15.42,0.75-30.85,2.62-46.23,2.19c-17.38-0.48-26.81,8.12-33.42,22.9c-12,26.86-20.25,54.77-24.48,83.82
			c-1.86,12.77-3.57,25.68-3.72,38.55c-0.15,13.14,2.69,15.09,15.75,14.66C581.33,676.03,601.75,675.15,624.51,674.3z M503.2,550.99
			c1.49-6.8,2.98-13.59,4.48-20.47c-14.09-1.18-20.43,0.66-25.14,7.68c-25.02,37.29-43.12,77.21-45.81,122.82
			c-0.48,8.17-0.07,16.39-0.07,25.48c5.18-0.88,9.57-1.62,14.89-2.52c2.67-36.57,5.99-72.56,24.05-107.68
			c0.76,4.44,1.19,6.35,1.41,8.29c2.86,25.49,9.51,50.02,19.32,73.63c10.47,25.2,6.01,21.75,32.3,18.83
			c0.37-0.04,0.71-0.38,2.32-1.27c1.08-53.12,13.39-104.45,39.05-152.59c-9.3-2.68-14.3-0.34-18.04,6.79
			c-14.25,27.12-25.55,55.25-31.14,85.51c-1.42,7.71-3.01,15.39-4.52,23.08C504.85,610.9,497.7,582.92,503.2,550.99z M741.31,581.36
			c-2.83-22.12-0.57-44.72-4.58-66.4c-2.84-0.52-4.05-0.95-5.26-0.94c-24.56,0.15-19.84-4.08-30.16,18.88
			c-19.41,43.16-31.59,88.74-44.32,134.12c-0.39,1.39,0.21,3.05,0.37,4.87c6.33,0,12.01,0,18.41,0c2.95-8.98,5.77-17.57,8.8-26.76
			c14.19,0,27.83,0,42.01,0c1.34,4.57,2.52,8.97,3.93,13.3c3.02,9.25,3.76,9.8,13.31,9.5c3.26-0.1,6.5-0.67,10.76-1.14
			C745.65,639.31,742.22,611.71,741.31,581.36z M852.47,600.48c-2.03-12.36-3.6-24.82-6.23-37.06c-2.63-12.23-6.29-24.24-9.55-36.33
			c-1.93-7.14-5.71-11.68-14.06-11.12c-5.29,0.35-10.64-0.36-17.14-0.64c-14.87,50.09-25.83,100.39-39.29,150.26
			c19.82,2.64,20.68,2.1,25.38-14.67c0.45-1.61,0.25-3.66,1.2-4.8c1.72-2.06,4.04-5.04,6.2-5.11c13.17-0.47,26.36-0.24,38.87-0.24
			c3.01,8.18,5.7,15.48,8.5,23.07c7.29-0.58,13.36-1.06,19.09-1.51C861.08,641.67,856.96,622.14,852.47,600.48z M876.97,564.02
			c0.08,32.43,0.16,64.86,0.24,97.18c6.82,0,11.96,0,18.64,0c0-17.19,0-33.29,0-50.41c19.58-0.41,37.64-0.8,56.05-1.18
			c0-12.43,1.56-23.21-3.34-34.14c-17.54-0.62-34.88-1.24-52.29-1.86c-1.58-10.59-3.01-19.42-1.12-29.11
			c27.07-0.42,53.23,4.66,79.84,4.49c-3.4-21.38-4.56-22.59-23.06-23.98c-23.32-1.75-46.65-3.41-69.98-5.06
			c-2.78-0.2-5.59-0.03-9.42-0.03C874.07,534.53,875.49,548.09,876.97,564.02z"/>
		<path class="st3" d="M1037.74,736.81c2.08-3.86,3.31-8.68,6.38-11.43c15.79-14.1,32.6-27.1,48.01-41.59
			c16.07-15.11,30.97-31.47,46.35-47.31c1.45-1.49,2.54-3.33,4.02-4.77c24.27-23.5,45.53-49.63,66.12-76.29
			c21.32-27.61,42.73-55.19,63.03-83.55c25.18-35.19,47.41-72.33,67.82-110.49c20.23-37.82,37.95-76.76,47.36-118.9
			c2.16-9.66,3.01-19.61,5.44-30.55c19.19,3.42,36.13,10.97,52.55,19.99c5.35,2.94,11.59,4.55,17.62,5.92
			c7.84,1.78,13.04-3.88,10.89-11.54c-1-3.55-2.81-6.88-4.25-10.31c15.15,7.61,30.51,14.83,45.38,22.93
			c20.8,11.32,41.1,23.54,61.86,34.93c23.39,12.84,45.44,27.57,66.67,43.74c28.78,21.92,58.58,42.53,86.94,64.97
			c32.6,25.79,64.88,52.09,95.87,79.77c29.76,26.59,57.75,55.17,86.34,83.04c5.63,5.48,10.49,11.75,15.55,18.51
			c-21.12,3.79-42.1,6.62-63.03,9.71c-9.04,1.34-18.04,3.06-27,4.88c-40.83,8.31-80.74,20.24-119.71,34.64
			c-35.45,13.09-70.46,27.8-104.43,44.34c-34.34,16.73-68.13,34.89-99.3,57.37c-17.53,12.64-35.38,24.83-52.96,37.4
			c-1.84,1.31-2.82,3.83-5.3,6.93c-19.67-1.52-22.31,0.47-24.89,19.03c-0.11,0.79-0.46,1.55-0.7,2.33
			c-3.73,2.26-7.81,4.1-11.12,6.86c-10.69,8.89-21.08,18.13-31.65,27.16c-0.89,0.76-2.23,0.99-4.48,0.21
			c-1-6.68-0.66-12.12-0.81-17.54c-0.26-10,0.05-20.13-1.42-29.97c-2.56-17.11-9.52-22.96-26.36-23.94
			c-34.59-2.03-69.19-3.91-103.78-5.95c-9.83-0.58-19.64-1.5-30.44-2.35c3.89-31.02,4.77-60.87,10.68-90.38
			c51.79,7.85,102,15.47,153.74,23.31c1.38-20.24,2.65-38.77,3.91-57.34c-2.43-1.13-4.24-2.19-6.18-2.85
			c-18.92-6.46-37.88-12.78-56.79-19.28c-16.54-5.68-32.97-11.65-49.53-17.29c-14.59-4.97-29.19-9.94-43.96-14.35
			c-9.02-2.69-13.21-1.31-17.86,6.88c-4.48,7.88-8.75,16.36-10.67,25.11c-3.56,16.26-5.85,32.86-7.78,49.42
			c-5.07,43.52-9.93,87.08-14.33,130.67c-2.35,23.34-3.19,46.75,6.8,70c2.52,2.86,4.76,6.01,7.39,6.37
			c10.2,1.4,20.52,2.59,30.81,2.64c39.45,0.17,78.9-0.13,118.82,0.34c0.51,1.09,0.54,1.59-0.34,2.26c-1.9,0.9-2.88,1.64-4.19,3.16
			c-35.35,26.24-70.36,51.7-105.89,77.63c-0.85,1.32-1.2,2.17-2.17,3.13c-1-0.11-1.36-0.33-2.41-1.4
			c-17.6-1.2-34.53-1.63-51.45-1.78c-1.17-0.01-2.37,1.99-3.74,4.08c-0.18,13.45-0.16,25.89-0.14,38.32
			c-0.43-0.15-0.85-0.31-1.93-1.02c-0.65-0.56-1.74-0.6-1.74-0.6c-29.92,17.87-59.6,36.17-89.83,53.49
			c-27.7,15.88-55.92,30.85-84.05,45.96c-18.61,9.99-37.43,19.6-56.26,29.17c-3.65,1.86-7.79,2.75-13.03,3.37
			c-28.78-21.99-56.32-43.16-83.64-64.61c-7.02-5.51-13.37-11.89-19.97-18.5c0.07-1.06,0.09-1.48,1.24-2.12
			c27.14-1.12,53.14-2.03,79.41-2.94c-2.89-15.06-5.46-28.49-8.16-42.97c-1.7-2.14-3.27-4.2-4.85-4.21
			c-23.3-0.21-46.61-0.23-69.9,0.05c-1.75,0.02-3.47,2.69-6.27,4.4c-5.98,0.28-10.89,0.28-16.82,0.28
			c-1.97-13.74-4.97-26.62-2.83-40.01c17.84-0.02,34.55,0.02,51.26-0.09c3.95-0.03,8.85,1.25,9.64-6.25
			c0.08-20.57,0.09-39.97-0.19-60.32c-10.22-6.06-20.55-3.6-30.78-2.38c-0.67,0.08-1.13,2-2.81,3.35
			c-10.04,0.29-18.95,0.29-28.71,0.29c1.26-20.83,2.06-40.05,5.52-59.89c19.02,0,36.76,0,55.24,0.72c12.6,1.01,24.46,1.46,36.32,1.4
			c1.85-0.01,3.69-2.37,5.94-4.47c1.24-5,2.07-9.18,2.9-13.35c8.87-0.69,17.75-1.37,28.05-0.93c1.04,10.24,1.08,19.4,0.21,28.47
			c-4.79,50.27-7.18,100.57-1.35,150.9c1.75,15.15,3.72,30.43,10.09,43.77c6.99,0,12.95,0,19.71,0c-5.55-23.4-10.56-45.69-9.28-69
			c1.2-0.74,1.64-1.38,3.01-2.43c16.49-0.27,31.83-0.27,47.29-0.27c8.15,25.07,15.67,49.36,30.33,70.1c7.54,0,14.43,0,22.75,0
			c-2.65-6-5.01-10.76-6.87-15.7c-6.45-17.1-12.72-34.27-18.23-51.41c3.51-1.14,6.2-2.27,9.62-4.06c2.73-4.64,5.66-8.44,6.51-12.65
			c1.46-7.29,1.82-14.83,2.29-22.29c2.49-40.26,4.91-80.53,7.28-120.8c0.9-15.3,3.74-30.7-1.91-46.48
			c-0.82-3.66-2.15-4.98-5.76-2.13C1041.56,737.41,1039.65,737.11,1037.74,736.81z"/>
		<path class="st4" d="M824.5,1021.59c6.66,5.98,13,12.35,20.03,17.87c27.32,21.45,54.86,42.62,82.67,64.75
			c-2.54,3.15-5.13,6.11-8.39,7.64c-26.53,12.5-53.18,24.73-81.62,37.18c-8.13,1.8-14.4,3.51-17.96,9.76
			c-1.75,0.14-3.5,0.28-7.04,0.51c-5.63,2.21-11.69,0.91-12.84,7.22c-1.04,0.07-2.08,0.15-4.85,0.32
			c-20.68,7.24-39.46,14.87-58.61,21.42c-24.72,8.45-49.6,16.48-74.66,23.86c-21.83,6.43-43.79,12.71-66.06,17.23
			c-25.12,5.1-50,11.83-75.85,13.12c-17.36,0.87-34.64,3.84-51.98,4.19c-17.39,0.35-34.91-0.57-52.22-2.39
			c-24.25-2.55-48.3-6.45-70.23-18.55c-5.66-3.12-12.44-4.23-18.7-6.26c-37.95-33.34-71.57-70.85-103.88-109.52
			c-16.01-19.16-30.95-39.21-46.29-58.93c-1.64-2.1-2.72-4.64-2.28-8.68c4.03,3.56,8.24,6.94,12.05,10.73
			c16.4,16.35,16.35,16.4,38.61,11.54c1.18-0.26,2.3-0.82,3.54-1.28c-16.99-21.14-34.28-41.82-50.62-63.23
			c-16.2-21.24-28.47-44.73-37.33-71.27c7.32-1.19,13.39-2.46,19.54-3.12c43.57-4.68,87.15-9.2,130.73-13.85
			c13.24-1.41,15.89-3.12,18.05-16.32c2.23-13.55,2.97-27.35,4.12-41.05c1.61-19.13,3.01-38.27,5.98-58.25
			c5.83,0.39,10.13,1.92,14.55,2.8c11.66,2.31,23.37,4.34,35.2,7.54c-0.8,26.07-2.44,51.06-2.51,76.06
			c-0.08,29.83,5.6,58.93,15.61,87.01c8.28,23.21,18.35,45.58,35.21,64.18c4.99,5.5,10.31,9.15,18.36,8.48
			c27.43-2.25,54.9-4.05,82.34-6.12c1.9-0.14,3.74-1.15,5.72-1.79c1.1-9.86-3.54-17.63-7.13-25.36
			c-26.62-57.2-29.31-117.4-21.97-178.72c15.65,0.98,30.1,1.88,44.84,3.86c2.51,36.13,7.16,70.76,17.11,104.57
			c9,30.6,21.47,59.5,41.11,84.87c2.01,2.6,5.73,5.28,8.76,5.4c8.97,0.37,18-0.51,27.72-0.94c-2.47-10.65-4.97-19.86-6.69-29.21
			c-7.44-40.39-4.09-80.57,3.71-120.66c3.97,0.89,7.1,1.8,10.55,3.76c4.99,23.84,8.82,46.85,14.58,69.37
			c5.79,22.65,15.53,43.92,28.4,63.55c2.35,3.59,6.28,8.52,9.61,8.63c9.67,0.32,19.74,1.07,29.85-2.7
			c-6.35-25.87-8.12-51.47-5.11-77.2c16.75,12.07,32.56,24.16,48.66,35.86c3.88,2.82,8.68,4.38,13.63,7.24
			c3.96,11.22,7.35,21.71,10.83,32.46c10.18,0,19.2,0,28.66,0.56C821.8,1020.74,823.15,1021.16,824.5,1021.59z"/>
		<path class="st5" d="M1468.59,215.28c1.91,4.16,3.72,7.48,4.72,11.03c2.15,7.66-3.04,13.32-10.89,11.54
			c-6.03-1.37-12.26-2.97-17.62-5.92c-16.42-9.03-33.36-16.57-52.55-21.07c-2.05-0.59-3.08-1.33-4.22-1.83
			c-10.95-4.82-14.07-3.94-20,6.8c-4.22,7.66-7.99,15.58-11.57,23.57c-4.5,10.04-10.71,12.39-20.62,7.3
			c-13.32-6.84-17.26-20.6-9.83-33.78c2.8-4.97,5.26-10.15,8.44-16.34c-28.63-11.13-57.24-14.89-85.84-18.71
			c-4.52,8.13-6.43,15.6-5.73,23.77c0.36,4.15,0.45,8.34,0.44,12.5c-0.02,10.8-1.81,12.58-12.08,12.39c-0.83-0.02-1.66-0.15-2.5-0.2
			c-22.35-1.4-26.67-6.74-22.32-28.33c1.88-9.35,4.4-18.58,6.73-28.26c-25.9-7.2-52.28-9.51-80.37-11.98
			c-0.27,8.7-1.21,16.54-0.55,24.24c0.68,7.92-1.03,14.84-4.75,21.58c-5.18,9.38-11.53,12.23-21.49,9.53
			c-9.24-2.51-16.23-10.78-15.86-19.74c0.29-7.07,1.51-14.11,2.21-21.17c0.44-4.48,0.69-8.98,1.12-14.78
			c-17.54-1.78-34.3-3.48-51.74-5.25c-2.69,8.57-4.87,15.67-7.15,22.73c-3.53,10.92-8.62,20.58-18.58,27.37
			c-9.2,6.27-18.26,5.39-27.15,0.63c-7.64-4.09-8.42-12.32-8.13-19.73c0.3-7.85,2.48-15.62,3.71-23.45
			c0.38-2.38,0.34-4.83,0.55-8.15c-10.5-0.55-20.46-1.06-30.41-1.59c-8.25-0.44-10.75,5.82-12.39,11.76
			c-3.4,12.28-8.99,23.31-16.61,33.41c-3,3.98-5.73,8.22-9.08,11.88c-9.07,9.9-24.25,11.43-35.28,4.01
			c-5.03-3.39-6.79-8.34-6.89-13.98c-0.16-9.12-0.04-18.24-0.04-28.67c-17.1,0.32-34.53-0.49-51.48,4.54
			c-2.73,0.81-6.09,3.52-6.87,6.05c-1.93,6.26-2.5,12.93-3.69,19.42c-1.12,6.07-2.09,12.18-3.58,18.16c-1.23,4.92-4.7,7.08-9.9,8.05
			c-18.46,3.41-22.5,0.28-22.29-18.38c0.03-2.87,0-5.75,0-8.62c-16.69,1.84-32.7,3.66-48.72,5.36c-10.49,1.11-14.43,9.61-17.9,17.3
			c-3.35,7.42-4.38,15.9-6.58,24.52c-2.04,0.58-4.38,1.29-6.75,1.91c-22.09,5.82-26.34,2.96-29.56-19.82
			c-0.22-1.59-0.61-3.15-0.9-4.62c-15.99-0.47-28.16,8.11-40.64,15.31c-3.53,2.04-5.36,7.18-7.7,11.06
			c-4.51,7.48-8.57,15.25-13.3,22.59c-5.55,8.61-14.28,12.53-23.99,14.32c-8.64,1.6-16.11-2.24-21.31-8.15
			c-3.04-3.46-2.76-9.84-4.63-15.64c4.28-8.94,9.12-17.2,14.16-25.33c13.9-22.42,34.39-36.87,57.82-47.83
			c13.32-6.23,27.25-9.96,41.89-10.21c18.17-0.3,18.36,0.33,34.13-8.1c13.62-7.28,27.51-9.55,42.11-4.41
			c6.92,2.44,12.16,0.13,18.72-2.15c13.64-4.73,24.71-12.67,36.18-20.85c6.47-4.61,15.24-5.35,23.98-4.08
			c14.75,2.14,29.66,3.39,44.54,4.15c4.05,0.21,8.53-2.21,12.33-4.3c3.96-2.18,7.29-5.49,10.98-8.19
			c10.89-7.95,22.61-9.7,35.46-5.25c3.25,1.12,7.07,0.72,10.63,0.81c13.3,0.32,26.63,0.12,39.88,1.08c4.13,0.3,6.84-0.27,10.21-2.49
			c15.25-10.09,31.3-15.1,49.02-5.99c1.81,0.93,3.96,1.85,5.91,1.78c16.94-0.62,32.88,4.6,48.92,8.7c5.96,1.53,9.24-0.06,13.18-3.76
			c11.34-10.64,33.08-10.99,43.9,0.36c5.61,5.89,11.32,7.26,18.71,7.61c9.07,0.43,18.08,2.1,28.42,4.7
			c6.37,2.7,11.39,4.2,16.52,5.11c4,0.71,8.47,1.26,8.82-4.96c17.48-7.02,34-5.97,50.04,7.49c6,6.78,11.54,6.22,17.27,2.65
			c19.07,1.51,37.05,6.4,54.02,15.61c3.71,2.02,9.78,1.44,14.18,0.1c12.38-3.76,16.99-2.81,23.04,8.69
			c2.83,5.37,6.77,7.76,12.1,9.55c15.33,5.16,30.78,10.08,45.71,16.24C1447.97,202.87,1457.88,209.12,1468.59,215.28z"/>
		<path class="st6" d="M368.02,805.49c-11.69-2.14-23.4-4.16-35.06-6.47c-4.43-0.88-8.72-2.41-14.08-3.69
			c2.34-20.94,4.91-42,9.21-62.7c6.69-32.16,14.56-64.07,22.36-96.93c3.78,0.46,7.8,0.98,10.36,3.2
			c10.97,9.55,21.37,19.76,32.25,29.42c19.25,17.08,38.72,33.91,58.05,50.91c8.74,7.68,17.53,15.32,25.9,23.39
			c2.15,2.08,2.79,5.72,3.22,9.96c-6.89,2.02-12.88,2.71-19.28,2.67c-4.14-3.45-6.46-2.5-8.41,2.41c-22,3-42.98,5.56-64.39,7.46
			c-5.02-2.72-4.33,0.77-5.04,3.98c-3.72,6.25-7.6,11.54-10.01,17.43C370.64,792.55,369.65,799.15,368.02,805.49z"/>
		<path class="st4" d="M280.49,780.37c-1.2,11.13-2.41,22.27-3.68,33.99c-49,8.96-97.3,17.8-147.12,26.91
			c0.51-6.72,0.64-12.85,1.49-18.89c4.78-34.07,14.9-66.7,28.47-99.29c11.43,5.48,21.18,11.81,31.36,17.35
			c16.39,8.92,32.75,18,49.72,25.71C253.5,771.95,267.2,775.7,280.49,780.37z"/>
		<path class="st7" d="M326.6,1220.16c5.86,1.34,12.64,2.44,18.3,5.57c21.92,12.1,45.97,16,70.23,18.55
			c17.31,1.82,34.83,2.74,52.22,2.39c17.35-0.35,34.63-3.32,51.98-4.19c25.85-1.3,50.73-8.02,75.85-13.12
			c22.27-4.52,44.23-10.8,66.06-17.23c25.06-7.38,49.94-15.41,74.66-23.86c19.15-6.55,37.94-14.17,57.83-21.34
			c-2.14,6.83-9.03,7.96-14.98,10.25c-36.02,13.88-71.98,27.91-108.2,41.22c-17.13,6.29-34.82,11.07-52.23,16.6
			c-18.97,6.03-37.8,12.53-56.9,18.12c-23.88,6.99-47.74,14.26-72.02,19.55c-23.83,5.19-48.11,8.42-72.31,11.68
			c-7.16,0.96-14.7-0.92-22.79-0.87C371.39,1263.01,349.19,1241.93,326.6,1220.16z"/>
		<path class="st6" d="M281.01,779.56c-13.81-3.85-27.51-7.61-40.28-13.41c-16.97-7.71-33.33-16.79-49.72-25.71
			c-10.18-5.54-19.93-11.88-30.81-18.04c5.23-8.46,15.27-9.85,23.87-12.9c36.85-13.05,74.06-25.11,111.13-37.54
			c2.74-0.92,5.46-1.89,9.64-3.33C296.93,706.04,289.23,742.39,281.01,779.56z"/>
		<path class="st6" d="M251.71,531.01c1.43,0.49,1.97,2.15,2.89,2.39c10.77,2.88,19.5,8.82,26.14,18.37
			c5.75-2.77,10.59-5.02,15.35-7.4c19.25-9.61,38.44-19.33,57.72-28.87c13-6.43,15.12-5.18,17.81,10.8
			c-2.08-2.79-3.57-6.16-5.81-11.2c-10.66,4.44-21.23,8.02-31.03,13.08c-24.42,12.6-48.77,25.4-72.61,39.05
			c-17.68,10.12-34.52,21.71-53.29,32.45c-2.27-1.01-2.99-1.82-3.71-2.63C218.19,573.63,232.5,551.12,251.71,531.01z"/>
		<path class="st8" d="M82.32,870.62c1.34-5.79,2.53-10.54,3.73-15.29c1.48,27.01,5.72,53.22,14.3,78.74
			C88.32,915.01,74.54,896.51,82.32,870.62z"/>
		<path class="st9" d="M1219.79,138.08c0.8,6.27-3.66,5.71-7.66,5.01c-5.13-0.91-10.15-2.41-15.77-4.45
			C1203.42,137.91,1211.03,137.97,1219.79,138.08z"/>
		<path class="st2" d="M1950.37,1048.82c-4.15,0.49-7.63,0.73-11.78,0.46c5.26-0.13,8.61-4.4,13.78-7.59
			c1.32,0.18,2.39,0.83,2.39,0.83C1953.52,1044.54,1952.28,1046.55,1950.37,1048.82z"/>
		<path class="st8" d="M204.48,597.46c1.41,0.41,2.13,1.22,3.57,2.43c-2.41,3.06-5.54,5.72-9.14,8.33
			c-0.48-0.05-0.97-0.97-0.97-0.97C199.89,604.11,201.84,600.98,204.48,597.46z"/>
		<path class="st9" d="M1287.29,148.22c-4.77,3.61-10.31,4.17-15.87-1.84C1276.14,146.42,1281.23,147.3,1287.29,148.22z"/>
		<path class="st5" d="M197.15,607.53c0.79-0.29,1.29,0.63,1.14,1.13c-2.02,4.14-4,7.64-9.48,7.8
			C188.35,610.34,193.46,610.04,197.15,607.53z"/>
		<path class="st2" d="M1916.97,1046.22c-2.52,0.39-5.8,0.32-9.33-0.47C1910.33,1045.27,1913.27,1045.51,1916.97,1046.22z"/>
		<path class="st8" d="M165.28,1035.8c-1.62-2.08-3.25-4.16-4.87-6.24c0.44-0.45,0.87-0.89,1.31-1.34c1.67,1.35,3.34,2.7,4.86,5.17
			C166.07,1034.96,165.69,1035.39,165.28,1035.8z"/>
		<path class="st5" d="M180.02,622.13c0.69-1.24,1.32-2.53,2.15-3.67c0.11-0.16,1.23,0.41,1.87,0.65c-0.74,1.05-1.47,2.1-3.01,3.18
			C180.23,622.32,180.02,622.13,180.02,622.13z"/>
		<path class="st2" d="M1864.69,1041.16c-0.97,0.58-2.35,0.81-4.11,0.6C1861.56,1041.14,1862.92,1040.98,1864.69,1041.16z"/>
		<path class="st8" d="M154.87,1020.17c1.7,1.37,3.41,2.75,5.11,4.12c-0.58,0.56-1.16,1.12-1.74,1.68c-0.99-1.18-1.97-2.37-2.98-4.4
			C155.23,1020.73,154.87,1020.17,154.87,1020.17z"/>
		<path class="st2" d="M1847.83,1039.79c-3.85,1.83-5.86,1.06-2.16-3.79C1846.73,1036.91,1847.02,1037.98,1847.83,1039.79z"/>
		<path class="st9" d="M1960.12,1033.46c0.53,0.08,1.06,0.16,0.99,0.3C1960.51,1033.82,1960.12,1033.46,1960.12,1033.46z"/>
		<path class="st4" d="M165.87,1036.44c-0.19-1.05,0.2-1.48,0.86-2.25c0.56,0.04,0.82,0.4,1.07,1.36c-0.01,0.61,0.1,0.53,0.1,0.53
			C167.42,1036.42,166.94,1036.75,165.87,1036.44z"/>
		<path class="st9" d="M1960.7,1034.01c-0.28,0.7-0.75,1.22-1.22,1.73c-0.1-0.58-0.2-1.16,0.17-2.01
			C1960.12,1033.46,1960.51,1033.82,1960.7,1034.01z"/>
		<path class="st4" d="M170.43,1038.59c-1.09-0.18-2.18-0.35-2.9-1.52c0.37-0.99,0.26-0.91,0.21-0.86c0.74,0.41,1.53,0.78,2.45,1.8
			C170.31,1038.67,170.43,1038.59,170.43,1038.59z"/>
		<path class="st4" d="M170.26,1038.71c0.64,0.83,1.34,1.61,2.04,2.4c-0.96-0.3-1.93-0.6-2.38-1.7
			C170.43,1038.59,170.31,1038.67,170.26,1038.71z"/>
		<path class="st2" d="M1953.22,1041.46c0.35-0.94,1.17-1.47,1.99-2c0.15,0.64,0.3,1.28,0,2.49
			C1954.76,1042.52,1953.69,1041.87,1953.22,1041.46z"/>
		<path class="st5" d="M180.33,622.42c-0.26,0.11-0.62,0.11-0.64-0.08C180.02,622.13,180.23,622.32,180.33,622.42z"/>
		<path class="st9" d="M153.15,1018.14c0.73,0.09,1.31,0.45,1.72,1.54c0,0.48,0.36,1.04,0.04,1.14c-1.17,0.25-1.8-0.04-2.19-1.52
			C152.73,1018.58,153.15,1018.14,153.15,1018.14z"/>
		<path class="st9" d="M152.51,1018.78c-0.63-0.27-1.05-0.74-1.46-1.22c0.52-0.08,1.03-0.16,1.82,0.17
			C153.15,1018.14,152.73,1018.58,152.51,1018.78z"/>
		<path class="st9" d="M149.1,1012.27c0.15,0.24-0.45,0.35-0.45,0.35S148.95,1012.03,149.1,1012.27z"/>
		<path class="st10" d="M1345.92,850.39c-0.03-0.5-0.07-1.01-1.15-2.91c-5.14-1.79-9.23-2.43-13.32-2.53
			c-42.28-0.97-84.56-1.7-126.83-2.92c-5.5-0.16-10.93-2.67-16.39-4.09c-9.9-22.25-9.06-45.67-6.7-69.01
			c4.4-43.6,9.26-87.15,14.33-130.67c1.93-16.56,4.21-33.16,7.78-49.42c1.92-8.75,6.19-17.23,10.67-25.11
			c4.65-8.19,8.84-9.57,17.86-6.88c14.77,4.41,29.37,9.38,43.96,14.35c16.55,5.64,32.99,11.61,49.53,17.29
			c18.91,6.5,37.87,12.82,56.79,19.28c1.94,0.66,3.76,1.72,6.18,2.85c-1.27,18.57-2.53,37.1-3.91,57.34
			c-51.74-7.85-101.95-15.46-153.74-23.31c-5.91,29.51-6.79,59.36-10.68,90.38c10.8,0.84,20.61,1.77,30.44,2.35
			c34.59,2.04,69.19,3.93,103.78,5.95c16.83,0.99,23.8,6.83,26.36,23.94c1.47,9.84,1.16,19.97,1.42,29.97
			c0.14,5.42-0.2,10.85-0.02,17.32c-0.12,9.36-0.62,17.67-0.95,25.99c-1.8,46.25-3.49,92.5-5.42,138.74
			c-0.26,6.21-1.08,12.52-2.65,18.52c-3,11.43-11.98,17.97-23.85,17.74c-55.4-1.07-110.8-2.25-166.2-3.42
			c-1.23-0.03-2.45-0.37-5.48-0.85c-0.8-11.54-1.63-23.43-2.58-36.45c-0.14-13.57-0.16-26.01,1.21-39.53
			c19.15-1.19,36.91-1.28,54.68-1.38c0.37,0.22,0.73,0.45,2.29,0.73c1.19,0.06,2.04-0.74,3.15-0.58
			c36.01,0.15,70.91,0.15,106.97,0.15c0.78-26.98,1.57-53.98,2.67-81.4C1346.56,851.65,1346.4,850.98,1345.92,850.39z"/>
		<path class="st11" d="M1877.49,872.64c-2.43,16.02-4.53,30.9-7.3,45.66c-1.14,6.09-3.4,12.03-5.66,17.84
			c-4.64,11.89-10.93,21.95-27.01,19.33c-4.7,28.8-11.45,56.23-27.71,80.48c-6.8,0-13.63,0-21.91,0
			c12.25-26.22,21.35-51.92,23.25-81.13c-17.82,0-34.7,0-50.76,0c-8.61,19.09-17.11,38.01-25.71,56.89c-1.2,2.64-2.83,5.1-4.41,7.56
			c-8.11,12.66-8.12,12.65-25.18,9.41c46.28-80.24,52.4-166.32,36.94-255.98c4.12-0.19,7.37-0.49,10.61-0.47
			c30.92,0.25,61.84,0.57,92.76,0.85c14.7,0.14,20.08,2.68,24.31,16.61c3.96,13.05,6.29,26.8,7.53,40.4
			C1878.52,843.78,1877.54,857.66,1877.49,872.64z M1813.76,825.71c-13.62,0-27.24,0-42.08,0c0,23.92,0,46.72,0,70.85
			c26.36,0,52.87,0,80.23,0c4.43-22.81,3.93-45.91,2.78-70.82C1841.09,825.74,1828.67,825.74,1813.76,825.71z"/>
		<path class="st12" d="M1631.89,768.73c18.33,0.62,35.42,1.18,52.52,1.77c13.35,0.46,16.79,2.77,21.01,15.25
			c1.59,4.7,2.62,9.7,3.16,14.64c6.64,61.28,3.11,121.71-16.41,180.56c-3.64,10.98-8.78,21.56-14.18,31.83
			c-5.38,10.24-13.35,15.59-26.32,14.28c-25.28-2.56-50.73-3.44-76.1-5.08c-2.44-0.16-4.86-0.73-8.82-1.34
			c0.54-5.48,0.35-10.86,1.68-15.84c16.28-61.05,19.84-123.31,18-186.09c-0.28-9.59-1.03-19.16-1.27-28.75
			c-0.09-3.72,0.32-7.5,1-11.17c1.72-9.35,3.93-11.32,13.25-11.21C1609.82,767.71,1620.24,768.3,1631.89,768.73z M1651.25,977.86
			c6.64,0,13.28,0,21.08,0c15.25-49.79,18.88-100.76,16.63-152.24c-12.68-2.88-71.16-3.79-80.68-1.36
			c1.44,50.61-1.56,101.08-11.92,151.7C1614.88,976.6,1631.91,977.19,1651.25,977.86z"/>
		<path class="st12" d="M1430.43,781.57c0.16-1.8,0.51-2.56,0.62-3.35c2.58-18.56,5.22-20.55,24.7-18.22
			c24.66,0.87,48.42,2.1,72.19,3.28c13.32,0.66,18.52,4.97,21.13,18.22c0.97,4.9,1.77,9.93,1.8,14.91
			c0.17,27.06,0.08,54.12,0.08,81.87c-6.86,0-13.33,0-21.07,0c0-19.7,0-38.7,0-59.05c-26.48-0.87-51.75-1.7-77.44-2.54
			c-2.23,51.8-4.42,102.92-6.7,155.9c24.22,1.11,49.03,1.06,75.28,1.65c1.92-12.97,3.78-25.55,5.69-38.43c6.84,0,12.93,0,20.24,0
			c-0.64,6.45-0.88,12.21-1.83,17.84c-2.3,13.58-4.58,27.17-7.59,40.6c-1.34,6.01-4.33,11.67-6.71,17.42
			c-2.57,6.2-7.44,8.51-13.98,8.27c-27.95-1.01-55.9-1.79-83.85-2.9c-10.37-0.41-11.97-1.56-11.72-11.73
			c0.38-15,2.3-29.95,3.02-44.95c1.82-37.53,3.52-75.07,4.91-112.62C1430,826.03,1430.09,804.3,1430.43,781.57z"/>
		<path class="st7" d="M820.18,1158.83c2.61-6.29,8.88-8,16.12-9.64C835.07,1157.78,826.62,1155.84,820.18,1158.83z"/>
		<path class="st7" d="M800.29,1166.57c0.21-6.36,6.27-5.06,11.02-7.2C810.96,1165.42,806.14,1166.1,800.29,1166.57z"/>
		<path class="st8" d="M1171.65,972.26c-0.31-0.19,0.78-0.15,0.9-0.02C1172.67,972.36,1171.95,972.45,1171.65,972.26z"/>
		<path class="st11" d="M717.41,943.49c-2.18,25.86-0.41,51.46,5.94,77.33c-10.12,3.77-20.18,3.02-29.85,2.7
			c-3.34-0.11-7.26-5.04-9.61-8.63c-12.86-19.63-22.6-40.9-28.4-63.55c-5.76-22.52-9.59-45.54-14.44-70.45
			c-1.21-14.23-2.24-26.34-3.28-38.45c-0.67-0.11-1.35-0.22-2.02-0.32c-2.08,12.04-4.15,24.08-6.23,36.11
			c-6.96,40.07-10.31,80.25-2.87,120.64c1.72,9.35,4.23,18.56,6.69,29.21c-9.72,0.43-18.74,1.31-27.72,0.94
			c-3.03-0.13-6.75-2.81-8.76-5.4c-19.64-25.37-32.11-54.27-41.11-84.87c-9.94-33.81-14.59-68.44-16.93-105.73
			c-0.63-14.88-1.14-27.52-1.66-40.15c0.67-13.3,1.34-26.6,2.08-41.36c7.67-0.82,15.28-1.63,24.22-2.58
			c0.38,28.89,0.75,56.7,1.3,86.65c2.64,52.24,10.6,101.06,33.29,146.6c0.91-3.18,0.92-6.26,0.91-9.34
			c-0.06-15.84-1.27-31.79,0.08-47.51c2.06-24.05,5.88-47.95,8.96-71.92c7.95-31.84,15.85-63.7,23.89-95.52
			c1.11-4.41,2.88-8.66,5.74-13.85c8.97-1.09,16.54-1.31,24.12-1.54c0.25,30.22,0.5,60.43,0.82,92.82
			c2.61,25.82,5.16,49.46,7.79,74.19c4.87,25.29,10.19,49.32,23.27,71.15c0-19.87,0-39.75,0.36-60.63
			c5.15-29.69,9.94-58.37,14.73-87.05c7.86-30.99,15.73-61.97,23.77-93.65c8.23,0,15.47,0,23.98,0
			c-7.05,29.22-13.95,57.79-21.29,88.24c-3.54,17.3-7.31,32.63-9.58,48.18C722.29,898.24,720.08,920.9,717.41,943.49z"/>
		<path class="st11" d="M947.6,945.91c-0.75,23.05,4.26,45.33,9.81,68.74c-6.76,0-12.73,0-19.71,0
			c-6.38-13.34-8.34-28.62-10.09-43.77c-5.82-50.33-3.43-100.63,1.35-150.9c0.86-9.07,0.83-18.22,0.88-28.47
			c2.17-14.92,4.89-28.68,7.1-42.52c2.14-13.4,1.9-13.43,18.02-13.43c16.38,0.24,30.87,0.21,45.37,0.19
			c11.73,0.56,23.47,1.12,36.3,1.37c3.01-0.01,4.92,0.29,8.21,1.03c2.71,1.04,4.04,1.65,5.37,2.26c5.62,15.04,2.78,30.44,1.88,45.74
			c-2.37,40.27-4.78,80.53-7.28,120.8c-0.46,7.46-0.83,15-2.29,22.29c-0.84,4.22-3.78,8.01-7.4,12.42
			c-4.41,1.42-9.66-2.62-9.55,4.29c6.34,17.14,12.61,34.31,19.06,51.41c1.86,4.94,4.23,9.7,6.87,15.7c-8.33,0-15.21,0-22.75,0
			c-14.66-20.75-22.18-45.04-30.33-70.1c-15.46,0-30.8,0-48.02,0.2C948.22,944.21,947.91,945.06,947.6,945.91z M1027.57,826.43
			c0-6.53,0-13.06,0-20.49c-25.26,0-50,0-75.68,0c-2.6,26.66-5.93,52.47-4.55,78.61c26.13,0,50.88,0,76.39,0
			C1025.01,865.29,1026.22,847.05,1027.57,826.43z"/>
		<path class="st11" d="M461.35,756c5.99-0.7,11.97-1.39,18.89-2.46c8.7-0.63,14.95,1.29,16.52,12.15
			c-0.11,10.48-0.23,19.12-0.86,27.72c-0.9,12.28-2.17,24.54-3.28,36.81c-6.14,61.39-3.46,121.6,23.16,178.8
			c3.6,7.73,8.23,15.5,7.13,25.36c-1.98,0.64-3.82,1.64-5.72,1.79c-27.44,2.07-54.91,3.86-82.34,6.12
			c-8.06,0.66-13.37-2.98-18.36-8.48c-16.86-18.6-26.93-40.96-35.21-64.18c-10.02-28.08-15.69-57.17-15.61-87.01
			c0.06-25,1.71-50,2.51-76.06c1.49-7.41,2.48-14.01,4.93-20.02c2.4-5.89,6.29-11.18,10.75-17.48c2.39-1.58,3.55-2.42,4.71-3.27
			c20.99-2.56,41.98-5.13,64.77-7.85C457.2,757.2,459.27,756.6,461.35,756z M408.45,985.77c2.01,1.19,4.06,3.49,6.01,3.41
			c22.9-0.98,45.77-2.32,70.63-3.67c-18.42-52.44-18.8-105.57-14.87-160.09c-28.12,0.63-54.68,4.28-81.6,8.47
			C384.7,885.92,388.26,935.86,408.45,985.77z"/>
		<path class="st11" d="M819.57,1019.18c-9.02,0-18.04,0-28.22,0c-3.47-10.75-6.87-21.25-10.75-33.54
			c-8.03-41.83-10.04-82.13-6.6-122.74c1.06-12.45,1.53-24.95,2.27-37.43c3.51-26.84,7.15-53.67,10.42-80.54
			c0.77-6.33,2.69-9.89,9.87-9.87c35.02,0.13,70.04-0.06,105.06-0.08c1.17,0,2.35,0.59,5.22,1.37c-2.08,17.86-4.17,35.85-6.21,54.96
			c-0.78,5.29-1.61,9.46-4.02,14.39c-14.99,1.31-28.41,1.87-41.83,2.43c-17.74,0-35.47,0-54.5,0c-3.46,19.84-4.25,39.06-5.52,59.89
			c9.76,0,18.67,0,29.84,0.01c12.42-0.1,22.59-0.21,32.75-0.32c-0.01,19.4-0.02,38.8-1.26,59.5c-18.12,1.67-35.01,1.91-51.89,2.51
			c-3.19,0.11-7.81-1.88-8.98,3.7c-1.01,13.39,1.98,26.27,3.96,40.01c5.94,0,10.84,0,17.97,0c23.67-0.26,45.12-0.6,66.58-0.71
			c4.47-0.02,8.95,0.8,13.43,1.23c2.58,13.43,5.15,26.87,8.04,41.93c-26.27,0.91-52.27,1.81-80.25,2.75
			C821.83,1018.84,820.7,1019.01,819.57,1019.18z"/>
		<path class="st9" d="M997.71,617.32c0.58-30.5-3.38-59.12-14.36-88.54c12.82,1.54,23.46,2.54,34.01,4.14
			c20.57,3.12,41.04,6.87,61.64,9.77c14.3,2.01,22.63,9.76,25.24,23.67c2.05,10.95,5.23,21.99-0.38,32.98
			c-0.78,1.53-0.14,3.82-0.04,5.76c0.37,7.77,1.11,15.54,1.04,23.3c-0.04,4.49-1.42,8.95-2.11,13.44
			c-1.74,11.18-5.95,14.94-17.3,15.06c-26.26,0.28-52.52,0.48-78.78,0.71c-2.86,0.02-5.71,0-8.94,0
			C997.71,644.05,997.71,631.3,997.71,617.32z M1057.11,561.38c-15.03-2.08-30.06-4.16-46.48-6.43c2,9.3,3.61,16.79,5.42,25.21
			c24.16,0.28,46.83,7.76,71.13,7.27c-0.58-4.75-0.84-7.6-1.3-10.43c-1.71-10.48-1.74-10.42-12.07-12.2
			C1068.93,563.97,1064.08,562.83,1057.11,561.38z M1073.39,634.39c3.67-0.19,7.34-0.38,12.19-0.63c0.59-6.9,1.13-13.19,1.77-20.67
			c-24.1-1.06-46.3-2.03-69.37-3.04c0,8.79,0,15.97,0,24.34C1036.24,634.4,1053.64,634.4,1073.39,634.39z"/>
		<path class="st9" d="M623.34,674.33c-21.59,0.82-42.02,1.7-62.45,2.38c-13.05,0.43-15.89-1.52-15.75-14.66
			c0.14-12.87,1.86-25.78,3.72-38.55c4.23-29.05,12.48-56.96,24.48-83.82c6.6-14.78,16.03-23.38,33.42-22.9
			c15.38,0.43,30.82-1.44,46.23-2.19c4.07-0.2,8.17-0.03,12.04-0.03c3.59,6.92,1.24,12.43-0.2,17.97
			c-3.46,13.32-7.1,26.6-10.29,39.99c-3.02,12.66-3.2,12.98-19.31,11.97c2.47-12.06,4.91-23.96,7.73-37.73
			c-14.54,1.29-27.45,1.54-40.01,3.74c-22.35,3.92-19.23-1.04-25.62,22.27c-5.6,20.45-8.94,41.54-13.02,62.39
			c-0.7,3.56-0.1,7.37-0.1,10.95c9.4,2.96,47,3,61.37,0.05c1.19-7.32,2.42-14.94,3.71-22.91c5.9,0,10.69,0,16.56,0
			c-0.81,14.36-1.33,27.99-2.47,41.57c-0.47,5.58-4.21,8.92-10.11,9.18C630.35,674.12,627.43,674.2,623.34,674.33z"/>
		<path class="st9" d="M503.05,552.07c-5.35,30.86,1.81,58.83,13.25,86.51c1.51-7.69,3.1-15.37,4.52-23.08
			c5.58-30.26,16.89-58.39,31.14-85.51c3.75-7.13,8.74-9.46,18.04-6.79c-25.66,48.14-37.96,99.46-39.05,152.59
			c-1.61,0.9-1.95,1.23-2.32,1.27c-26.29,2.92-21.83,6.37-32.3-18.83c-9.81-23.62-16.46-48.15-19.32-73.63
			c-0.22-1.94-0.65-3.85-1.41-8.29c-18.06,35.12-21.38,71.1-24.05,107.68c-5.33,0.9-9.71,1.64-14.89,2.52
			c0-9.09-0.41-17.32,0.07-25.48c2.69-45.61,20.79-85.53,45.81-122.82c4.71-7.01,11.04-8.85,25.14-7.68
			C506.18,537.4,504.69,544.2,503.05,552.07z"/>
		<path class="st9" d="M741.38,582.54c0.84,29.17,4.27,56.76,13.21,84.24c-4.26,0.47-7.5,1.04-10.76,1.14
			c-9.56,0.3-10.29-0.25-13.31-9.5c-1.41-4.33-2.59-8.73-3.93-13.3c-14.18,0-27.82,0-42.01,0c-3.02,9.2-5.85,17.79-8.8,26.76
			c-6.4,0-12.08,0-18.41,0c-0.16-1.82-0.76-3.48-0.37-4.87c12.73-45.38,24.91-90.96,44.32-134.12c10.32-22.95,5.6-18.72,30.16-18.88
			c1.21-0.01,2.42,0.42,5.26,0.94C740.74,536.64,738.48,559.24,741.38,582.54z M720.61,579.69c-0.47-12.58-0.94-25.17-1.46-39.11
			c-9.39,14.12-24.89,62.51-23.93,73.33c8.48,0,16.94,0,25.74,0C720.95,602.52,720.95,592.26,720.61,579.69z"/>
		<path class="st9" d="M852.66,601.55c4.31,20.59,8.43,40.12,12.78,60.77c-5.73,0.45-11.8,0.93-19.09,1.51
			c-2.8-7.59-5.49-14.9-8.5-23.07c-12.51,0-25.7-0.24-38.87,0.24c-2.16,0.08-4.47,3.05-6.2,5.11c-0.95,1.14-0.75,3.2-1.2,4.8
			c-4.7,16.77-5.56,17.31-25.38,14.67c13.45-49.87,24.41-100.17,39.29-150.26c6.5,0.29,11.85,1,17.14,0.64
			c8.34-0.56,12.13,3.99,14.06,11.12c3.27,12.09,6.92,24.1,9.55,36.33C848.87,575.65,850.44,588.12,852.66,601.55z M830.08,592.79
			c-1.3-9.03-2.22-18.14-4.02-27.08c-1.69-8.42-1.16-17.59-7.57-27.02c-5.82,24.59-11.15,47.09-16.69,70.49c10.45,0,19.71,0,30.43,0
			C831.51,603.69,830.93,599.33,830.08,592.79z"/>
		<path class="st3" d="M775.19,825.48c0.34,12.47-0.14,24.98-1.19,37.43c-3.44,40.6-1.43,80.91,6.03,122.02
			c-4.45-1.06-9.25-2.62-13.13-5.44c-16.09-11.7-31.91-23.79-48.66-35.86c1.84-22.72,4.05-45.38,7.34-67.88
			c2.27-15.55,6.04-30.88,9.51-47.13C748.34,827.02,761.23,826.25,775.19,825.48z"/>
		<path class="st9" d="M876.94,562.84c-1.45-14.75-2.88-28.31-4.41-42.92c3.83,0,6.64-0.17,9.42,0.03
			c23.33,1.64,46.66,3.3,69.98,5.06c18.49,1.39,19.66,2.6,23.06,23.98c-26.61,0.17-52.78-4.91-79.84-4.49
			c-1.89,9.69-0.46,18.52,1.12,29.11c17.41,0.62,34.75,1.24,52.29,1.86c4.9,10.93,3.34,21.71,3.34,34.14
			c-18.41,0.39-36.47,0.77-56.05,1.18c0,17.12,0,33.22,0,50.41c-6.68,0-11.82,0-18.64,0C877.13,628.88,877.05,596.45,876.94,562.84z
			"/>
		<path class="st4" d="M606.99,853.36c-2.08,24.01-5.91,47.91-7.97,71.96c-1.35,15.72-0.14,31.66-0.08,47.51
			c0.01,3.08,0,6.16-0.91,9.34c-22.68-45.54-30.65-94.36-32.88-145.49c10.77-2.45,19.66,0.04,27.24,8.24
			C595.89,848.7,601.41,850.58,606.99,853.36z"/>
		<path class="st8" d="M670.25,908.43c-2.54-23.65-5.09-47.3-7.39-71.99c14.72-1.84,29.21-2.64,44.76-3.46
			c-3.71,28.67-8.5,57.34-14.49,86.9C684.5,917,679.73,908.58,670.25,908.43z"/>
		<path class="st6" d="M493.8,830.31c-0.08-12.35,1.19-24.61,2.09-36.89c0.63-8.6,0.76-17.25,1.21-26.97
			c10.88,0.87,16.84,9.89,24.85,15.9c4.51,3.39,8.89,6.95,14.27,10.48c1.45,12.68,1.97,25.31,2.31,39.11
			C523.9,832.19,509.45,831.29,493.8,830.31z"/>
		<path class="st8" d="M999.65,734.9c-13.82,0.87-28.31,0.9-43.65,0.38c3.51-1.25,7.87-2.55,12.21-2.51
			C978.47,732.86,988.72,733.59,999.65,734.9z"/>
		<path class="st8" d="M661.51,741.53c-7.35,1.19-14.92,1.41-23.62,1.63c-0.55-1.44-0.17-3.97,0.63-4.12
			C646.19,737.68,654.04,735.19,661.51,741.53z"/>
		<path class="st1" d="M1345.78,853.24c-0.78,27-1.57,53.99-2.35,80.98c-36.05,0-70.95,0-106.87-0.91
			c-1.05-1.42-1.09-1.93-1.12-2.43c35.02-25.46,70.03-50.92,106.15-77.15C1343.72,853.05,1344.75,853.14,1345.78,853.24z"/>
		<path class="st8" d="M1188.33,838.94c5.37,0.43,10.8,2.93,16.3,3.09c42.27,1.22,84.55,1.95,126.83,2.92
			c4.1,0.09,8.18,0.74,12.85,1.94c-38.88,0.94-78.32,1.24-117.77,1.06c-10.28-0.05-20.6-1.24-30.81-2.64
			C1193.09,844.95,1190.84,841.8,1188.33,838.94z"/>
		<path class="st8" d="M897.05,972.93c-4.35,0.6-8.83-0.22-13.31-0.2c-21.45,0.11-42.9,0.45-65.51,0.43c0.59-1.72,2.3-4.38,4.05-4.4
			c23.3-0.28,46.6-0.25,69.9-0.05C893.78,968.73,895.35,970.78,897.05,972.93z"/>
		<path class="st8" d="M796.36,933.43c0.04-5.58,4.66-3.58,7.85-3.7c16.88-0.6,33.76-0.84,51.81-1.34c0.45,6.2-4.45,4.92-8.4,4.95
			C830.91,933.44,814.2,933.41,796.36,933.43z"/>
		<path class="st8" d="M1230.34,933.07c-17.09,0.94-34.85,1.04-53.81,1.21c-0.01-1,1.18-3,2.35-2.98
			C1195.82,931.44,1212.74,931.87,1230.34,933.07z"/>
		<path class="st8" d="M855.53,808.86c12.67-1.28,26.09-1.84,40.68-2.32c-0.67,1.35-2.51,3.71-4.36,3.72
			C880,810.32,868.14,809.86,855.53,808.86z"/>
		<path class="st8" d="M857.07,866.77c-9.87,1.06-20.04,1.17-31.33,0.98c-0.57-1.37-0.12-3.28,0.56-3.36
			C836.51,863.17,846.84,860.71,857.07,866.77z"/>
		<path class="st8" d="M1026.41,945.94c-0.93-6.91,4.31-2.87,7.99-3.64C1032.61,943.67,1029.93,944.81,1026.41,945.94z"/>
		<path class="st8" d="M1050.2,739.66c-1.31,0.13-2.64-0.48-4.38-1.7C1048.04,734.68,1049.37,736,1050.2,739.66z"/>
		<path class="st8" d="M1346.1,852.82c-1.35,0.33-2.38,0.23-4.18,0.12c0.2-0.75,1.18-1.49,3.08-2.39
			C1346.4,850.98,1346.56,851.65,1346.1,852.82z"/>
		<path class="st8" d="M820.01,1019.75c0.69-0.73,1.82-0.91,3.8-0.89c0.83,0.61,0.81,1.04,0.74,2.09
			C823.15,1021.16,821.8,1020.74,820.01,1019.75z"/>
		<path class="st8" d="M948.13,945.65c-0.22-0.59,0.09-1.44,1.13-2.23C949.77,944.28,949.33,944.91,948.13,945.65z"/>
		<path class="st8" d="M1234.92,931.34c0.55,0.04,0.58,0.55,0.52,1.81c-0.1,0.76-0.95,1.55-1.51,1.38
			C1233.73,933.51,1234.07,932.66,1234.92,931.34z"/>
		<path class="st8" d="M630.35,878.22c1.24-12.02,3.32-24.06,5.4-36.09c0.67,0.11,1.35,0.22,2.02,0.32
			c1.04,12.11,2.07,24.22,2.97,37.41C637.45,880.02,634.32,879.11,630.35,878.22z"/>
		<path class="st2" d="M460.94,755.27c-1.66,1.34-3.73,1.94-6.6,2.26C454.48,752.76,456.8,751.82,460.94,755.27z"/>
		<path class="st2" d="M388.14,765.13c-0.75,1.51-1.91,2.35-3.81,3.24C383.81,765.9,383.12,762.41,388.14,765.13z"/>
		<path class="st1" d="M1815.01,825.72c13.67,0.01,26.08,0.01,39.69,0.01c1.15,24.91,1.64,48.01-2.78,70.82
			c-27.36,0-53.87,0-80.23,0c0-24.13,0-46.92,0-70.85C1786.52,825.71,1800.14,825.71,1815.01,825.72z"/>
		<path class="st1" d="M1650.09,977.82c-18.18-0.63-35.21-1.22-53.74-1.86c10.37-50.63,13.36-101.09,11.92-151.7
			c9.52-2.44,68.01-1.52,80.68,1.36c2.25,51.48-1.37,102.45-16.63,152.24C1664.52,977.86,1657.89,977.86,1650.09,977.82z"/>
		<path class="st4" d="M670.34,909.51c9.39-0.93,14.16,7.5,22.43,11.39c0.84,20.01,0.84,39.88,0.84,59.75
			C680.54,958.83,675.21,934.8,670.34,909.51z"/>
		<path class="st8" d="M1027.5,827.62c-1.28,19.43-2.49,37.67-3.76,56.93c-25.5,0-50.26,0-76.39,0
			c-1.39-26.14,1.95-51.95,4.55-78.61c25.68,0,50.42,0,75.68,0C1027.57,813.37,1027.57,819.9,1027.5,827.62z"/>
		<path class="st4" d="M408.02,984.81c-19.76-48.95-23.31-98.89-19.4-150.92c26.93-4.19,53.49-7.84,81.6-8.47
			c-3.93,54.52-3.55,107.65,14.87,160.09c-24.85,1.35-47.73,2.69-70.63,3.67C412.51,989.26,410.46,986.96,408.02,984.81z"/>
		<path class="st3" d="M1058.16,561.6c5.92,1.23,10.76,2.36,15.66,3.21c10.32,1.78,10.36,1.71,12.07,12.2
			c0.46,2.82,0.71,5.67,1.3,10.43c-24.29,0.49-46.96-6.99-71.13-7.27c-1.81-8.42-3.42-15.92-5.42-25.21
			C1027.05,557.22,1042.08,559.3,1058.16,561.6z"/>
		<path class="st8" d="M1072.21,634.4c-18.57,0-35.97,0-54.24,0c0-8.38,0-15.55,0-24.34c23.06,1.01,45.26,1.98,69.37,3.04
			c-0.64,7.48-1.18,13.77-1.77,20.67C1080.73,634.01,1077.06,634.2,1072.21,634.4z"/>
		<path class="st8" d="M720.78,580.85c0.17,11.41,0.17,21.67,0.17,33.06c-8.8,0-17.26,0-25.74,0
			c-0.95-10.82,14.55-59.21,23.93-73.33C719.67,554.52,720.14,567.11,720.78,580.85z"/>
		<path class="st8" d="M830.22,593.88c0.71,5.45,1.29,9.81,2.01,15.3c-10.73,0-19.99,0-30.43,0c5.54-23.4,10.87-45.9,16.69-70.49
			c6.41,9.43,5.88,18.6,7.57,27.02C827.86,574.64,828.78,583.75,830.22,593.88z"/>
	</g>
</g>
</svg>
