<?xml version="1.0" standalone="no"?>
<!DOCTYPE svg PUBLIC "-//W3C//DTD SVG 20010904//EN"
 "http://www.w3.org/TR/2001/REC-SVG-20010904/DTD/svg10.dtd">
<svg version="1.0" xmlns="http://www.w3.org/2000/svg"
 width="2048.000000pt" height="2048.000000pt" viewBox="0 0 2048.000000 2048.000000"
 preserveAspectRatio="xMidYMid meet">

<g transform="translate(0.000000,2048.000000) scale(0.100000,-0.100000)"
fill="#000000" stroke="none">
<path d="M12083 15388 c28 -7 42 -7 50 1 8 8 -2 11 -38 10 l-50 -1 38 -10z"/>
<path d="M9952 15296 c-18 -20 -32 -44 -32 -53 0 -30 -70 -158 -128 -233 -32
-42 -79 -89 -107 -107 -44 -29 -58 -33 -118 -33 -52 0 -79 6 -116 24 -67 34
-75 59 -68 202 l5 115 -26 -5 c-15 -3 -74 -6 -132 -7 -92 -2 -227 -19 -283
-35 -30 -9 -57 -87 -57 -165 0 -85 -33 -168 -74 -187 -15 -6 -62 -12 -106 -12
-101 0 -110 10 -110 123 l0 79 -32 -5 c-80 -14 -191 -27 -291 -35 -107 -9
-108 -9 -148 -48 -59 -57 -87 -119 -93 -205 -1 -16 -7 -34 -12 -39 -17 -17
-121 -40 -179 -40 -47 0 -56 3 -73 28 -26 37 -42 88 -42 133 0 22 -2 39 -4 39
-2 0 -39 -7 -82 -16 -49 -10 -115 -35 -174 -64 l-95 -48 -51 -88 c-98 -169
-163 -221 -285 -231 -79 -7 -141 11 -179 52 -19 20 -22 31 -16 65 3 22 5 40 3
40 -1 0 -28 -9 -59 -20 -198 -69 -689 -365 -1033 -622 -423 -316 -840 -694
-1173 -1063 -74 -82 -174 -193 -223 -245 -48 -52 -102 -116 -121 -142 -18 -26
-65 -89 -104 -140 -83 -110 -137 -188 -130 -188 3 0 36 20 73 44 271 175 709
398 1071 547 177 72 196 72 212 -5 21 -104 -9 -271 -126 -683 -142 -501 -237
-892 -283 -1168 -29 -173 -39 -266 -51 -480 -15 -261 -34 -352 -82 -393 -8 -6
-143 -22 -303 -37 -403 -36 -978 -94 -983 -100 -8 -8 46 -128 100 -222 107
-187 253 -369 471 -584 l147 -146 -88 -12 c-155 -20 -144 -23 -267 85 -61 53
-139 124 -174 158 l-64 61 73 -90 c335 -414 815 -905 1205 -1230 33 -27 107
-93 165 -145 95 -86 354 -305 422 -355 14 -11 95 -72 180 -136 732 -555 1811
-1087 2675 -1319 101 -27 234 -58 295 -70 62 -11 156 -32 208 -45 117 -30 230
-51 336 -64 45 -6 131 -21 190 -35 233 -53 425 -82 714 -108 194 -17 1029 -18
1235 0 406 35 758 83 1075 147 334 68 507 116 955 264 387 127 568 195 790
293 99 44 207 90 240 103 33 12 103 44 155 70 52 26 124 58 160 70 264 90 658
303 1090 590 428 283 722 516 985 781 159 160 223 218 485 438 179 151 547
514 675 666 44 52 73 90 65 84 -8 -6 -37 -28 -63 -49 l-49 -39 -390 30 c-214
16 -394 32 -400 35 -5 3 18 35 52 70 236 244 400 532 480 841 42 166 54 255
53 428 0 174 -17 291 -63 434 -16 49 -27 92 -25 96 2 4 198 10 435 13 236 4
464 10 505 14 l75 6 34 -74 c36 -78 71 -197 82 -279 l6 -47 -53 -6 c-30 -4
-225 -7 -434 -7 l-381 0 1 -127 c0 -71 -2 -155 -4 -188 l-5 -60 273 -3 274 -2
-7 -46 c-8 -60 -65 -231 -106 -318 l-33 -69 -261 4 -261 4 -53 -100 c-29 -55
-71 -129 -93 -164 -22 -35 -38 -65 -37 -66 2 -2 158 -9 347 -16 l343 -13 19
25 c11 13 71 101 133 194 271 403 411 716 430 960 1 22 9 51 16 64 61 114
-199 677 -531 1151 -240 342 -380 491 -899 951 -206 183 -786 640 -960 756
-42 28 -128 88 -192 134 -236 171 -939 626 -1113 721 -310 170 -1057 528
-1043 501 42 -83 41 -120 -3 -143 -27 -15 -125 9 -209 50 -89 44 -235 97 -382
140 -123 35 -140 38 -163 26 -31 -16 -72 -78 -134 -201 -30 -57 -53 -91 -65
-93 -69 -14 -187 45 -212 104 -25 61 -16 99 45 194 39 60 39 76 -1 89 -76 23
-249 62 -323 71 -44 6 -131 20 -193 31 -130 24 -134 23 -157 -53 -10 -35 -13
-75 -8 -146 5 -90 4 -98 -16 -116 -18 -17 -32 -18 -110 -13 -103 6 -166 32
-182 74 -12 32 12 164 47 263 13 35 22 65 21 66 -7 6 -243 39 -422 59 -159 18
-211 21 -217 12 -4 -7 -8 -63 -8 -126 0 -126 -14 -171 -70 -231 -24 -26 -35
-30 -79 -30 -58 0 -126 28 -166 67 -30 31 -31 55 -9 211 9 62 14 115 12 117
-7 7 -289 35 -353 35 l-60 0 -28 -78 c-16 -42 -35 -96 -44 -118 -20 -56 -65
-108 -127 -148 -67 -43 -106 -48 -184 -24 -58 18 -65 23 -83 61 -24 54 -24
121 1 226 11 46 19 85 18 86 -2 2 -66 6 -144 10 l-140 7 -32 -36z m-2234
-2538 c18 -18 15 -57 -13 -139 -14 -41 -41 -132 -60 -203 -19 -71 -38 -133
-42 -137 -5 -4 -33 -9 -63 -10 -50 -3 -55 -1 -58 19 -2 13 11 73 28 133 17 61
30 112 28 114 -4 4 -424 -33 -455 -40 -28 -6 -71 -116 -118 -299 -36 -142 -70
-349 -60 -366 7 -11 310 -12 430 -1 l70 6 7 74 c3 40 10 77 15 81 9 10 120 16
128 8 3 -2 1 -70 -4 -151 -10 -173 -18 -193 -83 -201 -109 -13 -659 -26 -677
-16 -28 14 -34 43 -32 135 6 299 158 779 289 918 47 50 66 55 287 66 116 6
233 13 260 14 28 2 64 4 81 5 16 1 35 -3 42 -10z m576 -50 c3 -35 11 -153 16
-263 19 -354 48 -560 99 -695 11 -29 18 -57 15 -62 -3 -4 -41 -8 -84 -8 l-79
0 -21 57 c-12 32 -24 70 -27 85 -5 28 -6 28 -82 28 -42 0 -120 -3 -173 -7
l-98 -6 -25 -83 c-14 -46 -29 -86 -34 -89 -5 -3 -44 -8 -87 -12 l-77 -6 7 29
c4 16 43 139 87 274 110 334 216 598 301 748 l42 72 107 0 107 0 6 -62z m711
42 c42 0 43 -1 68 -57 39 -87 74 -218 113 -418 52 -270 81 -398 109 -471 14
-37 25 -70 25 -75 0 -5 -38 -9 -83 -9 l-84 0 -17 38 c-9 20 -22 57 -29 82
l-13 45 -170 -4 c-93 -2 -174 -7 -180 -12 -6 -5 -17 -34 -24 -64 -7 -30 -21
-68 -31 -85 -18 -29 -21 -30 -94 -30 -81 0 -85 3 -65 55 6 15 62 208 126 429
126 442 161 554 178 575 8 10 26 12 70 7 32 -3 78 -6 101 -6z m665 -35 c322
-22 454 -36 466 -48 15 -17 54 -116 54 -139 0 -18 -5 -19 -47 -14 -49 6 -337
29 -515 41 l-98 7 6 -64 c4 -34 10 -81 13 -103 l7 -40 209 -8 c115 -4 214 -12
219 -17 5 -5 12 -62 14 -125 l5 -115 -221 0 c-191 0 -221 -2 -226 -16 -3 -9
-6 -89 -6 -179 l0 -163 -62 -4 c-35 -3 -68 -3 -75 -1 -8 3 -13 118 -16 426 -4
339 -8 437 -21 497 -9 41 -16 76 -16 78 0 5 107 1 310 -13z m-2710 1 c0 -3
-16 -33 -36 -67 -162 -276 -274 -660 -274 -944 0 -38 -4 -75 -8 -81 -4 -6 -51
-14 -105 -17 l-98 -5 -40 81 c-87 171 -152 371 -179 547 l-18 115 -40 -85
c-80 -172 -123 -350 -147 -623 -7 -73 -3 -69 -88 -81 -29 -4 -40 -1 -44 11 -8
20 13 230 33 337 21 110 68 245 120 347 53 102 187 308 235 361 32 36 38 38
113 44 l79 7 -7 -24 c-52 -180 -61 -323 -31 -469 19 -93 72 -262 90 -286 11
-16 13 -11 20 37 13 93 63 285 100 379 68 178 188 394 227 410 24 9 98 13 98
6z m3450 -66 c158 -17 655 -89 683 -99 53 -20 96 -71 116 -135 37 -121 37
-205 -1 -257 -9 -14 -8 -20 5 -34 21 -21 22 -79 3 -196 -15 -92 -36 -143 -64
-157 -20 -11 -790 -24 -795 -14 -2 4 0 75 4 157 13 275 -16 513 -80 667 -17
40 -31 76 -31 80 0 4 12 6 28 3 15 -2 74 -9 132 -15z m5940 10 c0 -5 -4 -10
-10 -10 -5 0 -10 5 -10 10 0 6 5 10 10 10 6 0 10 -4 10 -10z m-3583 -345 c785
-237 718 -214 717 -250 -2 -102 -27 -371 -34 -379 -5 -5 -260 25 -616 72 -335
45 -610 80 -612 78 -11 -12 -79 -603 -70 -612 3 -3 270 -21 594 -40 l587 -35
24 -27 c43 -50 71 -123 79 -205 3 -43 1 -205 -5 -360 -6 -155 -16 -401 -21
-547 -12 -319 -27 -546 -41 -618 -11 -57 -51 -112 -99 -137 -23 -12 -134 -13
-741 -4 -393 5 -717 13 -721 17 -10 10 -26 184 -34 372 -6 130 -4 157 8 167
11 10 107 11 434 3 230 -5 528 -10 660 -10 l242 0 6 53 c3 28 8 170 12 315 l7
262 -82 0 c-263 0 -1127 23 -1147 30 -50 19 -94 170 -94 323 0 204 91 956 165
1361 39 211 113 336 199 336 19 0 281 -74 583 -165z m-3129 -1119 c3 -26 -36
-343 -56 -451 l-7 -40 -390 -8 c-255 -5 -391 -11 -396 -18 -6 -10 -22 -149
-35 -316 l-7 -83 258 0 258 0 -6 -67 c-4 -38 -7 -136 -7 -219 l0 -152 -251 -7
-252 -7 6 -79 c4 -43 12 -109 18 -145 l12 -67 382 7 c276 5 385 4 390 -4 4 -6
15 -48 26 -93 11 -45 29 -110 40 -145 12 -35 19 -65 18 -66 -2 -2 -208 -9
-458 -16 -386 -11 -454 -11 -462 1 -41 63 -100 267 -126 433 -25 156 -25 614
0 846 19 177 83 635 96 685 l7 30 105 6 c57 3 268 5 469 5 l365 -1 3 -29z
m827 15 c202 -6 286 -11 301 -21 52 -32 57 -128 26 -430 -24 -227 -39 -435
-51 -715 -12 -262 -24 -295 -113 -295 -26 0 -48 -5 -48 -10 0 -32 144 -351
199 -440 11 -19 21 -39 21 -43 0 -4 -44 -6 -97 -5 l-98 3 -33 50 c-47 70 -145
276 -173 363 l-23 72 -208 0 c-114 0 -208 -2 -208 -5 0 -79 50 -374 76 -447 8
-22 14 -42 14 -45 0 -2 -39 -2 -87 -1 l-87 3 -18 60 c-88 289 -103 742 -42
1315 21 200 63 517 75 563 l10 37 142 -1 c78 0 268 -4 422 -8z m-2028 -27 c3
-8 -24 -119 -60 -247 -112 -394 -164 -610 -206 -857 -60 -356 -62 -614 -5
-834 8 -32 14 -60 12 -61 -2 -2 -60 -5 -129 -6 -149 -5 -141 -9 -225 117 -66
99 -151 277 -193 402 -60 181 -113 435 -126 607 -7 96 -16 158 -21 153 -2 -3
-19 -79 -39 -170 -90 -429 -93 -783 -8 -1051 13 -44 23 -81 21 -83 -2 -2 -60
-6 -129 -10 l-125 -7 -43 49 c-185 208 -347 581 -410 944 -37 213 -59 502 -55
715 1 39 2 108 3 155 1 47 5 90 9 96 4 6 50 15 103 19 l96 7 6 -379 c4 -267
10 -411 21 -492 40 -276 104 -505 202 -710 30 -63 56 -112 58 -110 2 2 0 29
-5 59 -13 77 -12 346 1 460 19 171 60 398 99 550 39 153 73 278 102 375 17 55
37 123 45 150 9 28 22 69 30 91 l16 41 100 7 c55 4 102 5 104 3 2 -2 4 -147 5
-323 2 -541 40 -852 142 -1149 32 -92 92 -235 99 -235 2 0 1 60 0 132 -9 341
60 724 242 1340 81 272 72 256 148 261 35 2 73 4 86 5 13 1 25 -5 29 -14z
m-2093 -117 c30 -30 38 -97 26 -207 -5 -47 -18 -166 -29 -265 -25 -217 -28
-545 -7 -706 30 -220 71 -355 173 -571 36 -76 67 -155 70 -177 5 -39 5 -40
-28 -45 -19 -3 -81 -8 -139 -11 -58 -4 -213 -15 -345 -25 l-240 -19 -41 24
c-116 68 -275 317 -362 566 -39 109 -78 287 -91 411 -16 140 -13 385 4 555 19
181 28 221 66 300 44 93 48 94 414 137 308 36 454 52 488 55 10 0 28 -9 41
-22z m7986 -41 c168 -9 319 -19 337 -21 38 -7 78 -50 93 -103 16 -53 31 -434
23 -580 l-6 -123 -81 3 -81 3 -3 206 -2 206 -218 7 c-119 3 -260 7 -312 7
l-95 2 -2 -119 c-4 -239 -24 -643 -39 -803 -8 -90 -14 -164 -12 -166 2 -1 139
-6 305 -10 l302 -7 6 23 c3 13 12 71 20 128 9 57 18 107 21 112 7 12 151 12
158 0 16 -25 -68 -420 -104 -490 -22 -44 -67 -91 -89 -92 -36 -2 -231 2 -495
11 -215 8 -283 13 -294 23 -24 25 -25 87 -3 282 31 282 41 483 51 970 5 268
13 454 20 477 6 20 23 47 38 59 23 18 36 20 92 16 36 -3 202 -13 370 -21z
m1302 -56 c192 -6 286 -13 305 -22 88 -42 118 -189 117 -578 -1 -201 -5 -271
-23 -389 -28 -187 -79 -383 -135 -521 -55 -139 -98 -211 -155 -261 -53 -47
-34 -46 -486 -24 -165 8 -308 15 -317 15 -10 0 -22 9 -28 19 -11 22 -3 65 54
282 75 290 99 549 94 1049 -2 340 -1 378 15 407 9 17 25 34 34 36 10 3 70 3
133 1 63 -3 240 -9 392 -14z m1400 -29 l207 -6 31 -30 c70 -67 105 -201 117
-440 7 -152 -7 -301 -43 -465 -32 -144 -68 -230 -119 -288 -38 -42 -45 -45
-99 -50 -67 -5 -64 0 -94 -145 -25 -118 -76 -245 -139 -349 l-47 -78 -57 0
c-31 0 -70 3 -87 6 l-30 6 48 97 c26 53 59 132 74 177 32 98 68 276 57 287 -4
4 -99 6 -211 5 l-203 -3 -47 -117 c-54 -134 -120 -254 -190 -351 -50 -67 -50
-67 -97 -66 -27 1 -60 4 -75 8 l-28 6 45 64 c133 191 233 460 288 771 18 108
21 163 22 400 0 240 -3 290 -22 397 -13 67 -25 134 -29 148 l-6 25 263 -1
c145 -1 357 -4 471 -8z"/>
<path d="M8087 12483 c-54 -129 -147 -387 -147 -408 0 -12 18 -15 103 -15 56
0 107 4 113 8 9 5 10 37 4 117 -5 61 -9 176 -9 258 -1 81 -5 147 -10 147 -5 0
-29 -48 -54 -107z"/>
<path d="M8936 12584 c-25 -84 -126 -469 -126 -481 0 -14 14 -15 112 -10 61 4
113 9 116 12 11 11 -72 472 -88 489 -4 4 -11 0 -14 -10z"/>
<path d="M10474 12457 c4 -12 12 -47 18 -77 6 -30 16 -60 22 -66 6 -6 67 -17
136 -23 69 -6 187 -19 263 -27 75 -9 143 -14 151 -11 10 4 11 19 4 68 -4 35
-12 67 -17 72 -7 7 -383 64 -530 80 -51 6 -53 6 -47 -16z"/>
<path d="M10526 12082 c-3 -3 -6 -41 -6 -84 l0 -78 269 0 c149 0 272 3 274 8
3 4 6 36 8 72 l4 65 -130 6 c-252 13 -414 17 -419 11z"/>
<path d="M9997 10668 c-10 -74 -41 -497 -36 -501 2 -1 140 -1 306 1 l302 4 5
41 c3 23 10 119 16 214 6 95 13 194 17 221 l5 49 -173 6 c-96 4 -233 7 -305 7
l-131 0 -6 -42z"/>
<path d="M5766 10544 c-174 -16 -252 -27 -257 -36 -12 -19 -11 -408 2 -508 20
-167 65 -344 120 -475 49 -119 11 -109 344 -90 160 10 291 19 293 20 2 2 -13
50 -32 107 -73 218 -102 461 -92 758 4 107 9 207 13 223 l5 27 -73 -1 c-41 -1
-186 -12 -323 -25z"/>
<path d="M15238 10595 c-4 -4 -4 -51 -1 -104 12 -204 -26 -640 -77 -874 -12
-55 -20 -100 -18 -102 2 -1 139 -6 305 -10 l302 -7 20 69 c78 266 101 428 108
751 3 141 2 257 -3 262 -11 10 -626 24 -636 15z"/>
<path d="M16544 10411 c0 -91 -3 -202 -7 -247 l-8 -81 143 -6 c257 -12 505 -9
511 7 21 55 35 462 17 479 -3 2 -152 7 -331 9 l-326 5 1 -166z"/>
<path d="M4775 11653 c-27 -8 -162 -46 -299 -84 -137 -39 -372 -110 -522 -160
l-272 -89 -37 -88 c-93 -221 -178 -523 -200 -712 l-7 -56 369 62 c202 34 464
76 582 93 117 17 217 34 222 37 5 3 9 17 9 32 0 92 105 571 190 862 16 58 30
108 30 112 0 10 -3 9 -65 -9z"/>
<path d="M3081 10290 c-7 -30 -16 -92 -18 -136 -6 -91 0 -107 95 -266 44 -74
70 -102 38 -40 -34 67 -84 299 -99 467 -2 25 -5 21 -16 -25z"/>
</g>
</svg>
