<svg xmlns="http://www.w3.org/2000/svg" width="4996" height="3576" viewBox="0 0 4996 3576">
  <g>
    <path d="M2479,4293h-60c-4.27-5.86-10.52-3.48-16.1-3.88l-12.12.29-11.93,0-7.95.07h-8l-11.93-.26-11.95-.2-8-.1-75.43-4.54c-4.53-.9-9-2.27-13.6-2.61-67.87-5-134.72-16.47-201.12-31.1-42.88-9.45-85.9-18.25-129-26.77-26-5.16-52.43-8.4-76.9-19.93-7.68-3.62-16.53-4.9-25-6.84-36.29-8.36-72.55-16.65-108.11-28-76.07-24.23-151.54-49.85-224.66-82.23-130.46-57.78-254.71-127-375.94-201.92-13.58-8.39-27.18-16.83-40.17-26.09-29.29-20.86-57.64-43.07-87.39-63.24-50.85-34.48-98-73.56-144.51-113.47-6.52-5.59-12.21-12.15-18.28-18.26,1.91-8,8.47-10.2,15.14-10.56,7.88-.43,15.87.55,23.79,1.23,6.58.55,13.17,2.52,19.66,2.15,14.53-.82,29.17-1.75,43.44-4.38,29.28-5.39,58.41-11.69,87.51-18.07,24.6-5.39,49.09-11.26,73.57-17.18,38-9.19,76.1-18.09,113.9-28.07,26.3-6.94,52.18-15.47,78.25-23.28,39.42-11.81,79-23,118.21-35.58,40.48-13,80.54-27.37,120.72-41.32,16.94-5.88,33.77-12.08,50.56-18.4q55-20.7,109.91-41.7,49.28-18.95,98.29-38.55c5.41-2.16,10.09-6.13,15.1-9.26,12.35.7,23.28-4,34.09-9,7.19-3.37,14.21-7.1,21.48-10.27,26.62-11.58,53.6-22.36,79.89-34.65,28.76-13.43,56.94-28.13,85.28-42.47,4-2,7.52-5.11,11.27-7.7,12-5.4,24.3-10.42,36.12-16.29,12.42-6.18,24.33-13.4,36.67-19.76,21.19-10.91,42.58-21.45,63.81-32.29,4.06-2.08,7.78-4.83,11.66-7.27,4.87-2.08,9.87-3.91,14.6-6.26q71.47-35.36,142.84-70.9c16.65-8.3,33.34-16.55,49.63-25.53q62.82-34.62,125.26-69.93,58.07-32.91,115.64-66.68c47.61-27.8,95-55.92,142.56-83.81,5.11-3,10.26-6.42,16.76-5.17,1.6,16.58,2.95,33.19,4.89,49.72,1.91,16.3,1.68,32.94,6.43,50,8,.53,15.15,1.34,22.36,1.44q161.94,2.1,323.89,4.06,44,.57,88,1.54c24.24.56,40.34-11.24,50.26-32.54,5.69-12.22,8.28-25.16,8.9-38.65,1.44-31.29,3.41-62.56,4.85-93.85q5.86-127.82,11.49-255.64c1.19-25.94,2.73-51.87,4.12-77.8,2.37-1,5.14-1.61,7-3.21,12.18-10.21,24.11-20.71,36.23-31,18.17-15.43,36.35-30.85,54.72-46,4.42-3.66,9-8.12,16.65-5.71.22,5,.68,10.21.66,15.38-.19,46.4-.52,92.8-.64,139.2,0,6.56.84,13.13,1.3,19.69.47,65.34-2.35,130.59-6.45,195.75-3.38,53.82-9.08,107.5-13.6,161.26-1.51,17.91-.07,35.67,3.67,54.31,14.19,1.08,28,2.6,41.92,3.12q93.89,3.51,187.79,6.51c5.3.17,10.63-.29,16-.56,12.64-.64,21.19-7.35,26.12-18.59a212.91,212.91,0,0,0,8.24-22.44c10.68-34.38,17.81-69.62,24.35-104.94,3-16.3,4.52-32.9,6.15-49.42.35-3.53-1.69-7.29-2.69-11.18-16.18-.2-31.33-2-46.7,1.32-4.53,29.36-9,58.17-13.44,87.12-3.83.42-6.43,1-9,1q-88,0-175.91-.22c-.57,0-1.16-.57-1.7-.92s-1.1-.76-2.85-2c4.68-119.63,9.39-240.07,14.12-360.51.29-7.32.79-14.63,1.26-21.94,0-.57.63-1.12,1-1.65s.84-1,1.5-1.82a29.4,29.4,0,0,1,5.53-.83q92.9,3.09,185.77,6.32a3.33,3.33,0,0,1,1.68.83,29.83,29.83,0,0,1,2.46,2.83v140.84c16.74,2.61,32.35,2.11,47.21.6,5.9-7.46,4.55-15,4.45-22.2-.92-63.28-2.23-126.57-2.75-189.86-.15-18.46-5.38-35.38-11.54-52.29-4-11.09-11.36-17.8-23.79-17.55-3.63-1.32-7.19-3.56-10.89-3.82-22.92-1.58-45.87-2.73-68.81-4-19-5-38.44-3.78-57.78-3.9a1.53,1.53,0,0,0-2.64-.1l-28.85-4.13-24.44-8c5.49-9,12.36-14.37,19.13-19.47,27.1-20.39,54.12-40.92,81.93-60.31,48-33.5,98-63.92,148.82-93.17a2341.57,2341.57,0,0,1,231.78-116.4c54.81-24,110.43-46.19,166.37-67.38,51.58-19.53,103.95-37.18,157.5-50.65,64.39-16.21,129-31.52,193.66-46.72,17.42-4.1,35.25-6.46,52.9-9.56q41.18-7.24,82.37-14.36c4.57-.78,9.29-1.59,13.86-1.25,11.83.88,23.61,2.39,35.41,3.65,12.4,12,24.76,24.12,37.22,36.11a354.44,354.44,0,0,1,52.17,62.85q64.58,99.71,129.54,199.13a128.85,128.85,0,0,1,7.8,13.91q23.52,48.45,46.85,97c18.08,37.8,35.13,76.06,48.66,115.77,5.58,16.39,10.71,32.88,11,50.48,0,3,2,6,3.07,9v52c-5.49,6.11-4.37,13.26-3.23,20.42-.55,17.39-4.31,34.27-8.72,51-10.34,39.15-20.19,78.5-37.84,115.23-16.11,33.51-32.74,66.77-48.85,100.28a807.46,807.46,0,0,1-40.18,73.37c-11.8,19.19-22.53,39-33.74,58.57-10.63,12.08-23,18.12-40,16.12-12.91-1.52-26.24.5-39.39.95-8.57-1-17.12-2.49-25.73-3-33.93-2-67.87-3.63-101.81-5.47-7.81-.42-15.73-.32-23.46-2.42,4.95-16.59,47.89-105.05,57.83-119.36,12.9,0,26.2-.22,39.49,0,34,.69,68,1.35,101.94,2.51,14.41.49,23.56-4.46,29-18.74,11.57-30.54,22.46-61.27,29.63-93.12,2.86-12.73,7.27-25.52,5.15-40.5-27.37,0-54.61.15-81.84-.07-27.78-.23-55.61,1-84.69-.88-1.05-15.54-.41-30.09-.52-44.6-.12-15.32-.36-30.66.07-46,.4-14.42-1.92-29,1.84-44.34H4832.3c22,0,44,.2,66-.06,22.46-.27,45,1.21,68.28-1.08,0-6.88.39-12.78-.06-18.61-3-38.93-15-75.57-29-111.68-3.52-9.1-10.17-13.58-20.13-13-5.32.29-10.66,0-16,.19q-96.93,2.67-193.87,5.42-37,1.1-73.92,2.82c-7.09.33-14.91-1-20.26,5.89.63,3.34,1.06,6.64,1.88,9.84a787.81,787.81,0,0,1,21.29,123.87,639.85,639.85,0,0,1-2.69,141.62c-8.86,67.8-28.39,132.58-57.46,194.53-29.88,63.71-68.25,121.92-112.47,176.46-3.65,4.51-8.46,8.34-10.52,15.34,3.68.64,6.74,1.4,9.85,1.69,38.47,3.61,76.95,7.11,115.42,10.73q36.8,3.47,73.57,7.2c19.34,2,38.55,2.73,57.43-3.31,4.24-1.36,8.69-2.06,15.13-3.55-2.8,4.67-4.25,7.58-6.14,10.19-38.34,53-82.44,101.23-124.88,150.85-1.72,2-3.76,3.78-5.65,5.66q-73.7,73.32-147.42,146.63c-4.25,4.23-8.18,9-13,12.36-26.75,18.52-46.91,43.18-66,69a255.88,255.88,0,0,1-23.24,27.35q-56.82,57.69-114.22,114.82A212.49,212.49,0,0,1,4208,3605c-48.62,39.49-97.08,79.17-146.11,118.13-23.44,18.62-48,35.86-72.12,53.58q-14.47,10.62-29.4,20.63-44.79,30-89.77,59.75c-5,3.3-9.88,6.78-15.15,9.58-27,14.33-54.05,28.72-81.32,42.61-49.19,25.05-99.15,48.52-147.68,75-43.78,23.86-88.76,45.63-133.93,66.76-38.53,18-78,34-117.25,50.55-12.84,5.43-26,10.06-39.14,14.82-10.62,3.85-21.43,7.19-32,11-18.76,6.79-37.39,13.95-56.19,20.64-11.85,4.23-24.14,7.31-35.84,11.92-64.47,25.39-130.15,47-198,61.32q-92.76,19.62-185.94,37.27c-57,10.91-114.45,18.05-172.23,22.89-5.89.49-11.71,1.9-17.56,2.89l-71.31,4.57-8,.14-11.95.27h-8l-11.91.3-8-.14-11.94-.05-12.12-.3C2489.51,4289.48,2483.28,4287.19,2479,4293ZM4237.52,2828.64c3.85-.49,7.06-1.26,10.27-1.26q56-.14,112,0c3.56,0,7.12,1.44,11.06,2.3-1.51,7.81-2.72,14.32-4,20.82-8.56,43.12-17.66,86.08-34,127.12-5.66,14.22-11.05,28.55-16.33,42.91-1.05,2.85-1.09,6.07-1.76,10.07,17.86.66,34.25,1.86,51.12-.73,4.88-8.32,10-16.12,14.16-24.39,6.59-13.06,13.16-26.19,18.67-39.73,15.86-39,25.34-79.85,32.53-121.26.87-5,2.56-9.82,3.7-14.12,2.85-.42,4.18-.86,5.46-.78,26.86,1.84,44.32-11.61,55.19-34.74,5.93-12.61,11.83-25.47,15.53-38.83a695.21,695.21,0,0,0,23.29-131.61,640.64,640.64,0,0,0-11.56-182.93,299.23,299.23,0,0,0-9.37-34.65c-6.08-17.86-18.32-29.18-37.69-31.21-10.57-1.11-21.21-2.13-31.83-2.3q-109-1.72-217.93-3c-9.84-.11-19.83-1.52-30.07,1.41,0,3-.36,5.65.06,8.18a1265.67,1265.67,0,0,1,16.44,185c.93,63.48-3.11,126.57-14.76,189-16.13,86.4-45.23,168.22-88.15,245-2.15,3.85-3.59,8.09-5.5,12.48,6.93,1.73,12.72,3.25,18.54,4.61,14.57,3.38,26.34-.09,34-13.88,2.25-4.07,4.77-8,7.28-11.93,23.09-36.12,39.24-75.53,55-115.13C4225,2859.76,4231.18,2844.41,4237.52,2828.64ZM3882.76,3004.2c0-.06,0-.13,0-.19q40.91,2,81.81,4c8,.37,16,.95,23.95.55,13.32-.67,24.8-5.64,31.67-17.72,16.42-28.89,33.95-57.24,45.05-88.84,28.86-82.19,44.64-166.94,49.68-253.78,2.86-49.25,2.35-98.54-.42-147.77-1.67-29.89-3.65-59.84-11.48-89a156.35,156.35,0,0,0-7.74-22.56c-4.82-10.94-13.18-18.47-25.08-20.9a125.65,125.65,0,0,0-23.64-2.83c-30-.35-59.94-.12-89.91-.26-3.89,0-10,.42-11.28-1.69-5.07-8.14-12.49-5.85-19.29-5.89-28-.18-55.95-.08-83.92-.07q-4,0-8,0c-19,.25-29.34,6.67-32.33,27.51-2.3,16-2,31.87-1.32,47.81,3.68,91.23,5.12,182.47-2,273.56-3.11,39.77-8.41,79.41-13.77,119-5.28,38.92-14.9,77-23.75,115.26a337.28,337.28,0,0,0-6.63,43.3c-.84,8.68,2.54,12.26,10.8,14.12a103.2,103.2,0,0,0,17.77,2.33C3816.22,3001.64,3849.49,3002.88,3882.76,3004.2Z" transform="translate(-7 -717)" style="fill: #080004"/>
    <path d="M2315,4293c-3.37-4-8-3.66-12.55-3.71-12.33-.12-24.66-.2-37-.31-4,0-7.81-.45-9.92-4.57L2331,4289c0,1.35,0,2.7,0,4.05Z" transform="translate(-7 -717)" style="fill: #eafcfc"/>
    <path d="M2638.34,4284.32c-2,4.24-5.82,4.63-9.8,4.66-11,.08-22,.13-33.06.22-4.52,0-9.17-.25-12.48,3.8h-16l0-4.11Z" transform="translate(-7 -717)" style="fill: #f0fefe"/>
    <path d="M7,2653l7.38-8.49c.2,2.52,1.24,5.35.45,7.51-3.62,10-3,19.76.07,29.65.35,1.1-.26,2.5-.43,3.76L7,2681Z" transform="translate(-7 -717)" style="fill: #a1949f"/>
    <path d="M2387,717c0,1.3,0,2.6.09,3.91h-28.18c.07-1.3.1-2.61.09-3.91Z" transform="translate(-7 -717)" style="fill: #f3eeed"/>
    <path d="M5003,2509l-1.52,1-1.71-.54c-1.14-7.16-2.26-14.31,3.23-20.42Z" transform="translate(-7 -717)" style="fill: #9ca2a3"/>
    <path d="M2479,4293c4.28-5.81,10.51-3.52,16.1-3.89-.07,1.29-.11,2.59-.1,3.89Z" transform="translate(-7 -717)" style="fill: #20191d"/>
    <path d="M2402.9,4289.12c5.58.4,11.83-2,16.1,3.88h-16C2403,4291.7,2403,4290.41,2402.9,4289.12Z" transform="translate(-7 -717)" style="fill: #221b1e"/>
    <path d="M2495,4293c0-1.3,0-2.6.1-3.89l12.12.3a28.71,28.71,0,0,0-.22,3.59Z" transform="translate(-7 -717)" style="fill: #3b3538"/>
    <path d="M2507,4293a28.71,28.71,0,0,1,.22-3.59l12,.05a21,21,0,0,0-.17,3.54Z" transform="translate(-7 -717)" style="fill: #5a5557"/>
    <path d="M2527.16,4289.61l11.91-.3c-.08,1.23-.1,2.46-.07,3.69h-12C2527,4291.87,2527.07,4290.74,2527.16,4289.61Z" transform="translate(-7 -717)" style="fill: #909496"/>
    <path d="M2547.05,4289.3,2559,4289c0,1.32,0,2.65,0,4h-12C2547,4291.77,2547,4290.54,2547.05,4289.3Z" transform="translate(-7 -717)" style="fill: #c6d9d9"/>
    <path d="M2339,4289.05l11.95.2c.06,1.25.07,2.5.05,3.75h-12C2339,4291.68,2339,4290.37,2339,4289.05Z" transform="translate(-7 -717)" style="fill: #c4d7d7"/>
    <path d="M2351,4293c0-1.25,0-2.5-.05-3.75l11.93.26c.07,1.16.11,2.32.12,3.49Z" transform="translate(-7 -717)" style="fill: #a4afb0"/>
    <path d="M2402.9,4289.12c.08,1.29.11,2.58.1,3.88h-12a25.35,25.35,0,0,0-.22-3.59Z" transform="translate(-7 -717)" style="fill: #3d3739"/>
    <path d="M2390.78,4289.41a25.35,25.35,0,0,1,.22,3.59h-12a23.7,23.7,0,0,0-.15-3.57Z" transform="translate(-7 -717)" style="fill: #5b5659"/>
    <path d="M2378.85,4289.43a23.7,23.7,0,0,1,.15,3.57h-8c0-1.17,0-2.34-.1-3.5Z" transform="translate(-7 -717)" style="fill: #787577"/>
    <path d="M2370.9,4289.5c.08,1.16.11,2.33.1,3.5h-8c0-1.17-.05-2.33-.12-3.49Z" transform="translate(-7 -717)" style="fill: #8a8c8e"/>
    <path d="M2339,4289.05c0,1.32,0,2.63,0,3.95h-8c0-1.35,0-2.7,0-4.05Z" transform="translate(-7 -717)" style="fill: #d6eaeb"/>
    <path d="M2527.16,4289.61c-.09,1.13-.15,2.26-.16,3.39h-8a21,21,0,0,1,.17-3.54C2521.83,4289.52,2524.5,4289.56,2527.16,4289.61Z" transform="translate(-7 -717)" style="fill: #787476"/>
    <path d="M2547.05,4289.3c0,1.24-.05,2.47-.05,3.7h-8c0-1.23,0-2.46.07-3.69Z" transform="translate(-7 -717)" style="fill: #abb7ba"/>
    <path d="M2559,4293c0-1.32,0-2.65,0-4l8-.14,0,4.11Z" transform="translate(-7 -717)" style="fill: #d9eded"/>
    <path d="M3518.85,980.42c3.57,1.76,7,3.8,10.72,5.24,33.56,13.11,65.53,29.46,96.88,47.14,45.24,25.52,90.85,50.37,136,76a1971.24,1971.24,0,0,1,205.31,134.84c47,35.1,93.79,70.39,141,105.17,59.05,43.52,115.59,90.15,171.35,137.72,68.94,58.82,137.93,117.6,205.63,177.83,57.78,51.41,111.12,107.46,162.79,165,6.57,7.33,12.15,15.56,18.19,23.36-11.8-1.26-23.58-2.77-35.41-3.65-4.57-.34-9.29.47-13.86,1.25q-41.2,7-82.37,14.36c-17.65,3.1-35.48,5.46-52.9,9.56-64.64,15.2-129.27,30.51-193.66,46.72-53.55,13.47-105.92,31.12-157.5,50.65-55.94,21.19-111.56,43.43-166.37,67.38a2341.57,2341.57,0,0,0-231.78,116.4c-50.77,29.25-100.77,59.67-148.82,93.17-27.81,19.39-54.83,39.92-81.93,60.31-6.77,5.1-13.64,10.5-19.13,19.47l24.44,8-20.34.7a183.87,183.87,0,0,0-45.17-4c-10.23.44-17.77,4.65-18.63,16.2-8,18.35-12.6,37.18-12.44,57.55.35,46.38-.41,92.77-1,139.15-.09,7.84-1.43,15.68-2.2,23.51-.46-6.56-1.32-13.13-1.3-19.69.12-46.4.45-92.8.64-139.2,0-5.17-.44-10.34-.66-15.38-7.68-2.41-12.23,2-16.65,5.71-18.37,15.18-36.55,30.6-54.72,46-12.12,10.28-24,20.78-36.23,31-1.91,1.6-4.68,2.16-7,3.21-.4-6.61-1.05-13.21-1.13-19.82-.29-21.29,0-42.58-.64-63.85a300.93,300.93,0,0,0-3.09-35.73,102.17,102.17,0,0,0-18.73-45.69c-7.06-9.7-16.36-15-28.67-15.47-27.91-1.13-55.79-2.76-83.69-4.18-1.79-.81-3.55-2.24-5.38-2.34-28.45-1.62-56.22-8.34-84.69-10.54-33.12-2.57-66.15-1.58-99.21-2.16-13.95-1-28-1.54-41.83-3.18-13.55-1.6-27.68,1-41.32-4.49.3-6.07.33-11.36.86-16.61q5.55-54.63,11.29-109.26c2.87-27.81,5.6-55.64,8.6-83.44.55-5.1.13-10.87,5.57-14.12,10.64,1.3,21.23,2.38,31.75,3.92q77,11.31,154,22.84c34.88,5.23,69.77,10.44,104.59,16,19,3.07,37.94,7.05,56.94,10.38a137.39,137.39,0,0,0,17.87,1.87c6.41.28,13,2.78,19-.55,4.26-24.09,10.34-121.75,8.84-142.69-3.75-1.6-7.83-3.67-12.13-5.12q-185.32-62.44-370.71-124.73a143.62,143.62,0,0,0-19.33-4.79c-12.35-2.29-22.22,2.2-29.67,12.1a70.09,70.09,0,0,0-6.47,10.07c-11.51,22.6-21.55,45.81-25.87,71-4.61,26.89-9.11,53.81-13,80.81-6.34,44.14-12.72,88.28-18,132.55-5.21,43.62-9.46,87.37-13.47,131.12-4.32,47.07-8,94.2-11.73,141.33-3.06,38.36,4.33,75.58,12.85,112.65.3,1.29.68,2.57,1.09,3.83,4.34,13.46,13.29,21.22,27.63,22.09q11,.68,22,.84c79.25,1.22,158.52,2.2,237.77,3.66,32.63.6,65.24,2.05,97.85,3.37,12.73.51,13.41,1.68,13.22,16.05-4,2.15-8.42,3.82-12,6.51q-53.72,39.85-107.2,80-71.91,53.89-143.66,108c-2.7,2-7.76,3.64-4.41,9.79,6.26,0,12.89,0,19.53,0q68,.19,136,.44c6,0,12,.22,17.94.84a544.75,544.75,0,0,0,89.76,2.15c-.3,4.64-3.8,4.69-7.07,4.73-23.26.29-46.52.84-69.78.68q-98.71-.64-197.43-1.81c-44.53-.52-89.06-1.45-133.59-2-5.06-.06-10.74-1.71-16.16,4.52V2873c-6.5-1.25-11.65,2.17-16.76,5.17-47.54,27.89-94.95,56-142.56,83.81q-57.63,33.66-115.64,66.68-62.4,35.39-125.26,69.93c-16.29,9-33,17.23-49.63,25.53q-71.35,35.59-142.84,70.9c-4.73,2.35-9.73,4.18-14.6,6.25-18.94-5.16-35-15.55-49.87-27.89-10.71-8.86-21-18.19-31.94-26.78-21.29-16.77-42.87-33.18-64.34-49.73q-49.48-38.14-99-76.31c-13-10.08-25.83-20.42-38.73-30.64,30.57-1.58,61.15-3.32,91.74-4.68,37.94-1.68,75.89-3,113.83-4.58,2.6-.1,5.17-.85,9.22-1.56-7.62-35.38-15.43-70.16-24.59-105.87H1985c-27.32,0-54.64.05-82,0-26.55-.06-53.11.28-80.84-.27-2.2-18.36-5.16-35.42-6.05-52.59-.9-17.66-6.23-35.1-3.75-54.4,18.1-.44,35.31-.75,52.51-1.32,18-.59,36-1.12,53.92-2.27,17-1.08,34.3.8,51.07-2.86.54-3,1.18-4.93,1.18-6.84q.08-67,0-133.92c0-2.41-1.17-4.82-2.07-8.28-13.28-.07-25.84-.17-38.41-.2-13.32,0-26.65,0-40,0-12.66,0-25.33.17-38,0-13.13-.22-26.38,1-40.31-1.11,0-4.47-.22-7.67,0-10.83.92-11.28,1.91-22.56,3.07-33.82,2.6-25.14,5.32-50.28,8-75.42,19.71-2.65,39.06-6.94,57.23-15.09a58.5,58.5,0,0,1,25-5c45.79.16,91.58.07,137.38.07,4.64,0,9.3.2,13.93-.09,11.29-.69,13.93-3.34,17.72-17.08,2-16.94,3.73-33.92,6.08-50.81,1.52-11,3.93-21.83,5.94-32.75,1.79,15.54-2,31.48,2.47,46.58,5.94,2.53,11,2.23,16.26.82,4.42-1.19,9-2.42,13.5-2.52,12.71-.31,24.65-3.6,36.36-8.14-3.14,48.49-5.86,97-9.53,145.48-3.77,49.82-7.39,99.64-8.08,149.62-1,73.42,3,146.46,17.23,218.68,3.85,19.49,8.45,38.77,15.59,58.69,13,0,25.59.1,38.16-.06,3.2,0,6.39-.89,10-1.42-5.45-30.15-11.19-59.49-16-89s-9.06-58.92-6.77-88.65c17.33-3.36,102.76-3.43,127.11-.23,1.39,3.18,3.12,6.7,4.5,10.35,10.57,28,20.4,56.34,31.79,84,9.35,22.75,20.82,44.62,30.77,67.13,5.66,12.79,14.87,18,28.48,16.91,8.62-.71,17.31-.71,25.92-1.54,3.61-.35,7.1-2,11.84-3.44-6.53-14.56-12.43-27.88-18.46-41.14-17.07-37.6-33.33-75.51-44.26-115.45-1.34-4.91-2-10-3-15.48,7.7-2.19,14-4.2,20.34-5.76,14.63-3.57,23.29-12.5,24.67-27.62,1.58-17.22,3.84-34.48,3.82-51.71-.07-52.72,5.36-105.09,8.92-157.57,4.1-60.46,9.39-120.84,13.9-181.27a266.6,266.6,0,0,0-3.23-67.64c-2.78-16.31-8.35-21.86-24.47-24.26a230.64,230.64,0,0,0-29.84-2.21c-67.28-1.19-134.55-2.14-201.83-3.25-6.62-.11-13.24-.81-19.86-1.23,6.84-8.15,16.18-8,25.63-8,44,.08,88-.06,132,.14,6.56,0,13.14,1.35,19.67,2.33,25,3.77,49.06,2.8,70.06-14,22.76-18.22,46.62-35.19,68.33-54.58,22.77-20.35,45.93-40.33,67.27-62.36,38.49-39.72,78.25-78.21,117.08-117.61,17.71-18,33.16-38.06,51.38-55.66,10-9.63,18.39-20.9,27.18-31.7,15.07-18.49,29.91-37.16,44.78-55.81q21.06-26.42,42-53c10.67-13.54,21.22-27.18,31.84-40.76,13.47-17.22,27.09-34.33,40.4-51.68,12.92-16.83,24.81-34.51,38.44-50.74,21.8-26,40.75-54,60.48-81.45,28.71-39.93,53.87-82.23,79.11-124.41,15.35-25.65,30-51.71,45-77.6,5.64-9.78,11.21-19.61,16.84-29.41,15.2-26.5,31.18-52.6,45.45-79.6,22.38-42.35,41.28-86.28,58.43-131.07,11.2-29.25,20.18-59.08,29.35-88.91,3.89-12.64,7.53-25.61,9-38.69,2.2-19.05,6.42-38,4.44-57.44-.6-5.81,4-11.61.07-17.45,17.62,5.83,35.28,11.53,52.85,17.52a451.54,451.54,0,0,1,71.1,31.31c15.11,8.26,31.33,14.57,47.35,21a44.73,44.73,0,0,0,17.57,2.81c16.13-.47,25.62-12.7,22.29-28.31-1.36-6.39-3.7-12.57-5.67-19.08Z" transform="translate(-7 -717)" style="fill: #495664"/>
    <path d="M1875.42,2989.9c12.9,10.22,25.71,20.56,38.73,30.64q49.41,38.25,99,76.31c21.47,16.55,43,33,64.34,49.73,10.91,8.59,21.23,17.92,31.94,26.78,14.9,12.34,30.93,22.73,49.87,27.89-3.88,2.45-7.6,5.2-11.66,7.28-21.23,10.84-42.62,21.38-63.81,32.29-12.34,6.36-24.25,13.58-36.67,19.76-11.82,5.87-24.07,10.89-36.12,16.29a40.06,40.06,0,0,0-19.24,3.69c-13.11,6.27-26.64,11.64-39.69,18-26.71,13-52.62,27.88-81.79,35.25-2.53.64-4.82,2.17-7.26,3.19-23.74,9.94-47.6,19.62-71.18,29.93-7.7,3.36-16.48,5.66-21.11,13.93-14.94-.11-28.74,5.08-42.53,9.71-30.88,10.37-61.56,21.28-92.32,32-66.52,23.2-133.75,44.21-201.24,64.41-21.61,6.47-43.25,13-65.22,18-43.93,10-88.1,18.88-132.14,28.35-38.26,8.23-76.56,16-116,15.83-16.21,5.08-33,3.27-49.53,4-2,.09-3.94.58-5.92.81-8.53,1-17.06,2.13-25.61,2.91-5.3.49-11-.7-15.89.88-12.41,4-25,3.11-37.63,3.18-26.65.14-53.32.6-80-.19-18.52-.55-37.3-1.38-55.41-4.88-33.15-6.41-66.69-10.41-99.61-18.35-29.39-7.1-57.24-17-83-32.77a92.89,92.89,0,0,0-12.24-6.64c-4.24-1.78-7.73,0-10.18,3.83-18.68-14.89-37.63-29.45-55.93-44.79-11.63-9.75-23.78-19.2-30.81-33.45-2-4-5.94-7-9-10.42-2.06-5.49-3-11.78-6.4-16.29a274.73,274.73,0,0,0-25.61-30.21c-23.93-23.86-46.9-48.42-67.59-75.26-19.34-25.08-40.59-48.67-60.65-73.2-22.58-27.6-44.81-55.47-67.1-83.29-4-5-8.13-10-9.46-18.12,6.32,0,11.63.47,16.81-.18,3-.38,5.77-2.56,8.65-3.93q21.53-3.87,43.06-7.74c2.5-.44,5-.92,7.26-1.35,1.87-6.5-3.2-8.81-6-12.07-27.95-32.19-56.67-63.72-83.86-96.52-38.33-46.26-71.9-95.85-98.93-149.65-12.85-25.58-24.29-51.76-33.43-80.3,3-1.24,5.69-3.1,8.61-3.49,50.15-6.61,100.28-13.4,150.51-19.4,31.72-3.78,63.6-6.3,95.4-9.44,41.75-4.12,83.53-7.91,125.21-12.57,29.73-3.33,39.44-12.86,43.33-42.77,3.18-24.4,4.93-49,7-73.55,3.45-40.47,6.56-81,10-121.44,1-11.26,2.63-22.47,4-33.69,5.31-4.85,3.66-14.62,14.08-17.42,17.48,1.48,35.1,9.4,53.09,15.58,18.54,6.37,38.15,10.2,55.38,20.57.56,9.27,1.08,17.81,1.6,26.34-.56,18-.45,36-1.8,53.87a824.16,824.16,0,0,0,13.43,222.74c12.09,61,31.56,119.64,59.71,175.23a399.66,399.66,0,0,0,50.67,76.43c20,23.82,44.78,32.12,75,25.61a176.55,176.55,0,0,1,21.69-3.27q69.68-6.11,139.37-11.86c11.13-.92,22.21-1.81,32.86-4a72.78,72.78,0,0,0,1.34-7.19c1-16.53-4.41-31.45-11.59-45.92a624.68,624.68,0,0,1-33.28-81.23,722.46,722.46,0,0,1-36.15-203.84c-1.68-49.94-2.44-99.92,4.5-149.64,5-3.86,3.19-9.7,4.27-14.7s4.35-8.08,9.45-8.76c3.26-.43,6.6-.3,9.9-.48,29.19-1.63,57.6,3.08,85.83,10.15,4,10.86,6.76,21.58,6.23,33-.21,4.58-.41,9.38,3.72,12.79l12.09,80.9c8.77,58.66,21.58,116.39,41.07,172.47S1268.25,2936,1303,2984.6a199.52,199.52,0,0,0,13.66,17.16c6.94,7.75,15.43,12.24,26.35,11.7,16-.78,31.94-.92,47.89-1.65,3.79-.17,7.52-1.61,11.18-2.45.58-2.8,1.58-4.82,1.26-6.59-1.56-8.49-3.18-17-5.3-25.37-12.19-48-18.13-96.67-19.13-146.11-1-46.74,2.8-93.14,9.16-139.33,2.9-21,7.67-41.82,11.59-62.72l23.31,11.7c4.06,18.15,8.48,36.24,12.11,54.48,8.41,42.4,15.74,85,27.88,126.62,16.12,55.26,38.21,107.8,70.61,155.65A187.15,187.15,0,0,0,1547,2995a18.23,18.23,0,0,0,14.06,6.42c23.24.37,46.44-.38,70.66-1.18-.42-6-.43-10.57-1.11-15-4.53-29.58-10.32-59-13.53-88.74-3.43-31.76-4.48-63.77,2.27-95.44,10.86,6.42,22.25,12.08,32.47,19.39q51,36.43,101.18,74c8.87,6.64,19.15,12,25,22.23,9.06,23.92,18.12,47.83,27.24,71.92Zm-1241.09-146c14.73-6.27,13.34-16.62,11.94-26.45-.93-6.55-7.6-9.88-23.36-12.78C626.67,2817.58,630.24,2829.85,634.33,2843.88Z" transform="translate(-7 -717)" style="fill: #3f273f"/>
    <path d="M646.35,3502c2.45-3.81,5.94-5.61,10.18-3.83a92.89,92.89,0,0,1,12.24,6.64c25.75,15.79,53.6,25.67,83,32.77,32.92,7.94,66.46,11.94,99.61,18.35,18.11,3.5,36.89,4.33,55.41,4.88,26.63.79,53.3.33,80,.19,12.6-.07,25.22.82,37.63-3.18,4.88-1.58,10.59-.39,15.89-.88,8.55-.78,17.08-1.9,25.61-2.91,2-.23,3.94-.72,5.92-.81,16.56-.77,33.32,1,49.53-4,39.41.21,77.71-7.6,116-15.83,44-9.47,88.21-18.36,132.14-28.35,22-5,43.61-11.54,65.22-18,67.49-20.2,134.72-41.21,201.24-64.41,30.76-10.73,61.44-21.64,92.32-32,13.79-4.63,27.59-9.82,42.53-9.71l8.26.13c-5,3.13-9.69,7.1-15.1,9.26q-49,19.63-98.29,38.55-54.86,21.11-109.91,41.7c-16.79,6.32-33.62,12.52-50.56,18.4-40.18,14-80.24,28.29-120.72,41.32-39.17,12.6-78.79,23.77-118.21,35.58-26.07,7.81-52,16.34-78.25,23.28-37.8,10-75.89,18.88-113.9,28.07-24.48,5.92-49,11.79-73.57,17.18-29.1,6.38-58.23,12.68-87.51,18.07-14.27,2.63-28.91,3.56-43.44,4.38-6.49.37-13.08-1.6-19.66-2.15-7.92-.68-15.91-1.66-23.79-1.23-6.67.36-13.23,2.57-15.14,10.56-4.72-7.36-11.49-12.27-19.1-16.23-13.72-7.15-24.2-17.83-34.65-29.17-28.75-31.16-58.63-61.28-88-91.88C661.45,3518.6,654,3510.25,646.35,3502Z" transform="translate(-7 -717)" style="fill: #220619"/>
    <path d="M1779,3381l-8.26-.13c4.63-8.27,13.41-10.57,21.11-13.93,23.58-10.31,47.44-20,71.18-29.93,2.44-1,4.73-2.55,7.26-3.19,29.17-7.37,55.08-22.21,81.79-35.25,13-6.37,26.58-11.74,39.69-18a40.06,40.06,0,0,1,19.24-3.69c-3.75,2.59-7.25,5.67-11.27,7.7-28.34,14.34-56.52,29-85.28,42.47-26.29,12.29-53.27,23.07-79.89,34.65-7.27,3.17-14.29,6.9-21.48,10.27C1802.27,3377,1791.34,3381.7,1779,3381Z" transform="translate(-7 -717)" style="fill: #27071a"/>
    <path d="M3676.38,2352.42c-31.9-.06-63.88,1.28-95.66-.67-20.55-1.27-41.13-1.63-61.65-3.06-16.53-1.16-33.21-2.24-49.4-5.46-13.76-2.74-26.27-1.71-38.8,3.9a56.82,56.82,0,0,1-7.6,2.23c.86-11.55,8.4-15.76,18.63-16.2a183.87,183.87,0,0,1,45.17,4c3.48,1.27,6.94,3.56,10.46,3.65,12.9.32,25.82-.08,38.73-.22a1.53,1.53,0,0,1,2.64.1c3.11,4.4,7.77,4.35,12.41,4.31q22.68-.18,45.37-.41c22.94,1.29,45.89,2.44,68.81,4C3669.19,2348.86,3672.75,2351.1,3676.38,2352.42Z" transform="translate(-7 -717)" style="fill: #9fbdbf"/>
    <path d="M4830.44,2907.84c.65,2.56.84,5.38,2.06,7.64,3.7,6.88,1.45,13-2.24,18.68a107.17,107.17,0,0,1-11.88,15.82c-18.71,19.62-34.41,42-54.8,60-1.18,1-3.28,1-7.57,2.28,4.34-6.85,6.88-12.08,10.52-16.37,10.67-12.6,21.94-24.7,32.65-37.26a90.69,90.69,0,0,0,9.9-14.67c2-3.61-.24-8.43-4.41-9.51-11.48-3-22.86-6.29-35.05-5.64-6.3.33-13.46,2.28-18.59-3.93,13.15-.45,26.48-2.47,39.39-.95C4807.41,2926,4819.81,2919.92,4830.44,2907.84Z" transform="translate(-7 -717)" style="fill: #eff1f1"/>
    <path d="M3596.68,2344.58q-22.69.21-45.37.41c-4.64,0-9.3.09-12.41-4.31C3558.24,2340.8,3577.67,2339.54,3596.68,2344.58Z" transform="translate(-7 -717)" style="fill: #9ebdbe"/>
    <path d="M3536.26,2340.58c-12.91.14-25.83.54-38.73.22-3.52-.09-7-2.38-10.46-3.65l20.34-.7Z" transform="translate(-7 -717)" style="fill: #9ebdbe"/>
    <path d="M2155.24,2405c-11.72,4.54-23.66,7.83-36.37,8.14-4.52.1-9.08,1.33-13.5,2.52-5.26,1.41-10.32,1.71-16.26-.82-4.45-15.1-.68-31-2.47-46.58.19-8,.1-16,.63-23.92,1.26-18.6,2.91-37.17,4.18-55.77.25-3.7-.52-7.47-.86-11.7-4.51-.4-7.75-.94-11-.94q-135.88.32-271.78.8c-3.77,0-7.53,1.29-10.75,1.88a33.93,33.93,0,0,0-1.57,4.86c-7.06,50.76-14,101.54-21.17,152.29-2.13,15.12-4.9,30.16-7.37,45.23-1.28,2.19-3.51,4.3-3.68,6.57-.74,9.35-7.35,12.51-14.74,12.95-17.67,1.07-34.74,5.64-52.14,7.88-19.84,2.55-26.35.76-25.86-20.53.79-5.23,1.24-10.53,2.42-15.67q20-87.37,40.15-174.72c.8-3.52.66-7.26,1.06-12.16-10,0-18.64-.21-27.23,0-9.14.28-18.41-1.19-27.8,1.18-1.5,4.14-3.13,7.76-4.15,11.55q-24.12,89.42-48.15,178.86c-3.62,13.4-7.75,26.67-11.64,40-5.75,1.35-11.48,3.77-17.24,3.87-26,.41-51.94.32-77.91.1-11.51-.1-15.37-3.84-16.64-15.31-.51-4.62-.25-9.32-.26-14q-.06-38-.09-75.91c0-30,0-59.94-.12-89.9,0-5.81,1.63-12.17-3.84-16.8-.85-3.77-1.69-7.53-2.77-12.29-20.75-.47-41.06,0-62.48,3-2.29,7.18-4.77,14-6.63,20.93-12.23,45.59-24.25,91.24-36.52,136.82-5,18.57-10.47,37-15.73,55.52-8.3,12.76-20.14,17.14-35.08,16.18-12.34-.8-24.76-.13-37.15-.11-4.45-.88-8.92-1.69-13.35-2.64-8.31-1.79-16.53-2.73-25.84,1.31-.21,8-.86,15.74-.51,23.44a83.47,83.47,0,0,1-4.53,30.79c-4.82-7.23-3-15.47-3.19-23.29-1.59-74.55-2.92-149.11-4.51-223.66-.16-7.18,1.1-14.68-2.47-21.44-15.74-1.26-44.6,2.82-59.21,8.52a111.51,111.51,0,0,0-1.16,11.22c-.34,55.92-3.34,111.82-.57,167.75.2,4-.28,8-.45,11.92-4.25-3.33-3.94-8.09-4-12.73,0-15.28.91-30.64-.37-45.81-1.83-21.72-8.38-41.49-28.52-54.08-5.53-3.46-9.83-8.83-14.89-13.09-10.1-8.53-20.17-17.1-30.62-25.19-2.89-2.23-7.06-2.83-12-4.68-2.11,5.91-4.23,10.65-5.49,15.6-3.76,14.85-4.75,30-4.17,45.29.2,5.19,1,10.8-4,14.69,1.53-30.74-.59-61.32-4.22-91.83-1-4.24-.74-9.62-3.3-12.44-3.18-3.51-8.48-5.93-13.26-7-6.22-1.34-12.84-.84-19.28-1.14l8.41-9.12c-9.31-9.32-17.09-18.55-26.3-26-20.11-16.3-40.15-32.63-58.55-50.88-1.41-1.4-3-2.61-4.56-3.88-13.31-10.92-27-21.42-39.86-32.84-18.38-16.31-36.16-33.28-54.2-50a54.36,54.36,0,0,0-4.43-4c-23.63-17.33-42.93-39.51-65.45-58.13-15.84-13.1-30.52-27.6-45.89-41.28-7.42-6.61-15.07-13-23-19-3-2.29-7.08-3.2-10.67-4.74,6-28.6,12.16-57.16,17.95-85.8,7.26-35.82,15.1-71.55,21-107.59,4.06-24.87,6.61-50.07,6.16-75.46-.32-18.66-7.83-29-29.37-20.15-20.88,8.54-41.7,17.41-61.91,27.43q-125.13,62-244.08,135.26c-6.74,4.13-13.95,7.5-20.94,11.22,4.23-5,7.66-11.11,12.85-14.68,18.51-12.75,37.65-24.58,56.49-36.84,17.74-11.54,35.5-23.06,53.06-34.87,6.08-4.1,6.59-9.68,1.91-15.33-9.91-11.92-21.81-21-36.51-26.58-10.82-4.09-22-4.37-33.2-4.86,3.67-6.25,6.85-12.87,11.09-18.71q31.71-43.65,63.93-86.94a199.9,199.9,0,0,1,14.33-16.62c18.16-19.51,36.53-38.82,54.63-58.38,5.87-6.35,11.92-12.74,16.55-20,10.18-15.88,23.28-29,36.53-42.18,42.07-41.79,83.44-84.31,126-125.64,42-40.88,86.68-78.92,132.87-115.08,8.91-7,18.11-13.62,26.87-20.79,67.68-55.35,140.38-103.5,214.68-149.32,23.32-14.37,48.17-25.62,74.85-32.43,0,8,.27,16,.06,24-.37,13.67,5.9,22.39,18.41,27.82,31.39,13.62,72.26,11.52,98.56-23.7,11.18-15,21.95-30.23,29.36-47.49,13.43-31.3,37-51.67,68.46-63.11,15.61-5.67,31.62-10.29,47.5-15.19,3.53-1.09,7.29-1.42,11.63-2.22,1.29,5.77,2.14,10.29,3.33,14.72,3.6,13.48,6.81,27.09,11.18,40.32,4,12.3,13.51,17.57,26.41,16.71,18.67-1.25,36.45-6.11,54.64-12.53,1.22-6.24,2.13-12.11,3.53-17.87,3.46-14.2,6.61-28.51,10.84-42.49,8.26-27.27,27.52-41.19,55.42-44.58,33.72-4.1,67.37-8.76,101.06-13.08,3.08-.39,6.25-.05,9.78-.05,2.52,8.63,1.19,16.63,1.53,24.5s0,16,1.13,23.92c1.89,13.68,8.45,19.73,22.5,20.8a268.77,268.77,0,0,0,28,.22c14.11-.4,23.88-7.54,29.31-20.42a118.4,118.4,0,0,0,9-34.6c1.77-17.86,4.51-35.65,7.5-53.36,2.21-13.07,10.12-21.39,23.44-24,6.52-1.31,13-3.31,19.56-3.84,34.51-2.82,69-5.29,103.57-7.78,1.09-.07,2.26,1,4.56,2.13.88,7.92-.54,16.38-1.11,24.88-.92,13.95-2.16,27.95-1.69,41.88.59,17.5,7.34,32.36,23.26,41.72,25.93,15.25,57.55,12,79.57-8.5a109.75,109.75,0,0,0,13.26-14.9c8.35-11.22,16.5-22.61,24.28-34.22,14.21-21.19,24.9-44,30.89-68.91a65.2,65.2,0,0,1,6.45-16.65c4.13-7.32,10.65-11.88,19.49-11.94,26.6-.18,53,2.07,80.6,5.63-1.54,14-3.14,27.08-4.37,40.19-1.48,15.92-3.45,31.85-3.78,47.8-.5,24.17,9.14,36.9,32.22,44.5,21,6.93,40.46,4.58,58.22-9.73,21.54-17.35,35.49-39.39,43-65.78a550.44,550.44,0,0,1,19.27-57.3c15.15-1.59,29.51,2.16,44,2.87q21,1,41.83,3.41c14.3,1.6,29.13-.8,43.69,4.86,0,3.89.31,7.17,0,10.37-2.27,19.85-4.79,39.66-7,59.51-1,8.59-1.89,17.22-2.07,25.85a35,35,0,0,0,15.79,30.73,131.58,131.58,0,0,0,26.41,13.77c22.13,8.59,37.1,3.13,49.09-17.06,10.82-18.22,16.08-37.84,14.62-59.18-.77-11.3-1.14-22.63-1.23-34-.07-9.44,1.91-18.44,8.43-26.76a93.7,93.7,0,0,1,9.62.05c14.58,1.46,29.16,3,43.71,4.69,35,4.16,70.15,8,105.09,12.91,12.3,1.73,25,3.81,36.68,11.38-.49,3.87-.68,7.76-1.5,11.52-5.27,24.06-10.86,48-15.92,72.15a125.91,125.91,0,0,0-2.28,21.77c-.34,10.09,4.31,18.21,12.48,23.73,5.44,3.67,11.49,7.41,17.77,8.68,13.65,2.77,27.6,4.1,41.47,5.74a31.68,31.68,0,0,0,9.93-.68c7.75-1.6,13.88-5.81,15.09-14a156.74,156.74,0,0,0,1.59-25.71c-.18-10.63-2.09-21.25-1.94-31.86a100.6,100.6,0,0,1,13.67-49.92c6.77,0,13.37-.48,19.89.08a580.47,580.47,0,0,1,90.49,15.54c26.44,6.59,52.47,14.86,78.53,22.88,8,2.47,16.32,5.23,22.89,12.16-4.31,13.87-11.57,25.82-17.69,38.25-18.11,36.74-7.64,67.38,31,85.13,26,11.94,39.73,2.9,46.95-19,6.51-19.73,16.41-37.83,26.28-56,3.18-5.85,6.06-11.92,9.77-17.41,7.16-10.62,15.28-13.67,27.59-10.19,6.35,1.79,12.34,4.83,18.49,7.3,3.93,5.84-.67,11.64-.07,17.45,2,19.41-2.24,38.39-4.44,57.44-1.51,13.08-5.15,26-9,38.69-9.17,29.83-18.15,59.66-29.35,88.91-17.15,44.79-36.05,88.72-58.43,131.07-14.27,27-30.25,53.1-45.45,79.6-5.63,9.8-11.2,19.63-16.84,29.41-14.95,25.89-29.61,52-45,77.6-25.24,42.18-50.4,84.48-79.11,124.41-19.73,27.44-38.68,55.48-60.48,81.45-13.63,16.23-25.52,33.91-38.44,50.74-13.31,17.35-26.93,34.46-40.4,51.68-10.62,13.58-21.17,27.22-31.84,40.76q-20.91,26.54-42,53c-14.87,18.65-29.71,37.32-44.78,55.81-8.79,10.8-17.21,22.07-27.18,31.7-18.22,17.6-33.67,37.68-51.38,55.66-38.83,39.4-78.59,77.89-117.08,117.61-21.34,22-44.5,42-67.27,62.36-21.71,19.39-45.57,36.36-68.33,54.58-21,16.8-45,17.77-70.06,14-6.53-1-13.11-2.3-19.67-2.33-44-.2-88-.06-132-.14-9.45,0-18.79-.15-25.63,8-5,1-7.85,3.58-8.61,9.1-3.59,26.13-7.35,52.23-11.43,78.29C2160.74,2378,2157.81,2391.46,2155.24,2405Zm-1140.62-495.9c12.56,79.32,34.9,155.51,71.66,226.89,11.93,1.77,22.44.19,32.88-1.76,10.17-1.9,21.26,1.33,30.5-4.65,1.26-22.67,1.91-44.64,3.87-66.49,2-22.51,4.61-45,8.23-67.33,3.52-21.64,7.92-43.21,13.3-64.47,5.53-21.9,12-43.62,19.36-65,7.09-20.76,15.86-40.94,23.68-61.45,8-21,20.39-40,28-61.42-24.85-5.76-32.66-2.47-43.14,17.84-5.8,11.24-11.07,22.75-17,33.94a434.9,434.9,0,0,0-33.06,81.25c-4.64,16-9.39,31.92-13.82,48-8.16,29.49-16.11,59-24.16,88.56l-11.83,4c-33-83.2-37.65-168-12.67-254-31.64-5.31-52.14,2.63-68.34,27.26-31.56,48-58.2,98.58-78.56,152.39-20.24,53.49-28,109.41-32.47,166-.83,10.62-1,21.3-1.07,32,0,3.78,1.16,7.58,1.94,12.22,11.34-2,21.8-3.66,32.19-5.65,1.83-.35,3.43-1.93,5.18-3a34.65,34.65,0,0,0,1.21-5.89c1.27-39.33,6-78.3,12.58-117,7-41.48,17.4-82,35.92-120.08,7.8-2.59,7.77-2.57,12.06,3.63C1012.14,1906.22,1013.43,1907.63,1014.62,1909.11ZM2320.93,2081c21.59,0,40.87,0,60.14,0,55.28-.1,110.55-.1,165.82-.41,21.11-.12,28.59-5.79,35.67-25.14a195.45,195.45,0,0,0,11.34-54.56c1.27-19.65,4.87-40-6.5-56.34,3.15-13.34,7.09-24.8,8.38-36.54,3-27.75-3-54.37-14.24-79.59-6.15-13.79-17.26-23.67-31.34-29.43a97.46,97.46,0,0,0-21-6c-57.09-9.35-114.18-18.76-171.39-27.36-19-2.86-38.38-3.53-57.61-4.92-3.6-.26-7.3.82-12.22,1.44,3.36,10.27,6.24,19,9.1,27.81,14.55,44.55,23.71,89.91,23.07,137.12-.61,45.28,0,90.57.09,135.85C2320.24,2068,2320.62,2073.2,2320.93,2081Zm-934.85-24.77c-5.53.22-11.45.47-17.38.67q-25,.84-49.91,1.65c-19.29.61-38.57,1.58-57.85,1.58-9.16,0-18.32-1.89-28.23-3a61.53,61.53,0,0,1-.26-26.58c2.38-11.73,4.42-23.53,6.57-35.3,8.14-44.49,15.89-89,27.53-132.81,1.88-7.06,3.81-14.14,6.31-21,5-13.68,14.93-21.73,29.24-24.22,8.52-1.48,17-3.07,25.64-3.91,26.48-2.61,53-5.07,79.51-7.18,7.67-.61,15.64-2.62,24.23,1.42-6,28.75-15.71,56.44-18.18,84.94,4.69,5.46,10.39,4.29,15.51,4.58,20,1.14,24.34-2.06,29.65-21.28.18-.64.26-1.3.42-2,10-39.31,20.14-78.6,30-118a84,84,0,0,0,2.45-17.71c.26-8.54-3.1-12.66-11.28-13.58a154,154,0,0,0-21.91-.64c-41.91,1.17-83.66,6.56-125.68,4.94a16.56,16.56,0,0,0-2,.08c-26.12,1.85-47.31,13-62.53,34.35a122.66,122.66,0,0,0-13.54,24.35c-9.33,22.77-18.56,45.62-26.58,68.88-20.92,60.64-33.46,123.21-39.87,186.93-2,19.82-1.37,39.91-1.8,59.88a43.54,43.54,0,0,0,1,9.92c2,9.73,7.61,15.07,17.55,16.35a90.11,90.11,0,0,0,15.93.43q91.74-4.68,183.47-9.66a56.89,56.89,0,0,0,15.49-3.24c6-2.1,9.7-7,10.89-13.27.74-3.9.74-7.95,1-11.93,2.12-29.87,4.27-59.73,6.23-89.61.16-2.42-1-4.93-1.65-8.22-13.65,2.92-27.11,1.49-40.7,6.89-1.29,9-2.57,18.18-3.94,27.34S1392.34,2047.09,1386.08,2056.18Zm324.18,46.31c-1.68-6.07-3.44-11.74-4.81-17.5-4.94-20.68-10.33-41.27-14.49-62.1-10.07-50.39-12-101.65-15.08-152.74-2.27-37.19-3.58-74.43-5.31-111.65-.52-11.24-1.87-22.34-5-33-15.57-5.08-31-3.8-46.17-4.82-15.78-1.06-24.85,6.53-30.52,20.4-13.58,33.23-28.21,66.07-41.09,99.57-32.28,83.9-55.78,170.54-79,257.26-1.54,5.76-3.19,11.5-.18,18.63,4.62.39,9.77,1.19,14.91,1.19,30.89,0,31.28-.37,40-29.78,3.37-11.37,6.81-22.72,10.26-34.19,13-2.73,25-1.2,36.84-1.45s24-.42,35.93,0c11.75.46,23.79-2.31,35.45,2.16,3.09,9.95,5.92,19.5,9,29,1.87,5.66,3.49,11.6,6.52,16.63,2.23,3.69,6.3,8.18,10,8.69C1682,2110.82,1696.62,2111.41,1710.26,2102.49ZM1838,1729.42c-36.63,124.78-64,250.11-97.72,375a206.14,206.14,0,0,0,51.13-1.32c3.78-11.31,7.3-22,10.91-32.62s5.59-21.8,11.27-31.36c18.65-2.33,89.49-2.17,106.73.31,4.91,8.1,7,17.92,10.24,27.21,1.77,5,2.85,10.3,4.9,15.18,3.73,8.87,11.07,13.79,20.37,13.48,11.06-.37,22.07-2.44,34-3.88-1.8-8.58-3.09-15.73-4.82-22.78-15.06-61.38-26.8-123.45-38.27-185.58q-8.88-48-19.36-95.8c-4.39-20.1-11.82-39.25-20.53-57.86Zm229.72,231.66h46.44c14.65,0,29.3.13,43.95,0,14.49-.15,29,.71,43.11-.58,3.55-17.76,3.53-68.72-.05-85.51-6.08-.44-12.57-1.09-19.07-1.36-33.92-1.38-67.85-2.61-101.77-4.07-4.38-.19-8.73-1.4-13.85-2.26-2.16-23.31-4.23-45.63-6.4-69,6.51-.56,11.68-1.25,16.87-1.4,28-.85,55.82,2.81,83.57,6,29.11,3.29,58.14,7.07,87.49,7,5.89,0,11.78-.47,19.91-.82-4.39-16.77-8.06-32.17-15.4-46.19-2.12-4-8-6.63-12.72-8.65-3.5-1.5-7.84-1.07-11.81-1.41-17.9-1.55-35.81-3-53.7-4.63-48.35-4.51-96.68-9.24-145.05-13.58-7-.62-14.53-1.93-21.5,3.75,1,8,2.55,15.78,3,23.64,2.84,48.51,6.48,97,7.83,145.54,1.31,47.23.19,94.54.13,141.81,0,7.32-.19,14.65,0,22s.95,14.51,6.6,21.31c6.37-.38,13-.5,19.46-1.22,7.1-.78,14.14-2.1,22.26-3.35.12-14.9.27-28.78.33-42.66.05-13.31,0-26.63,0-40C2067.38,1991.46,2067.54,1977.6,2067.69,1961.08Z" transform="translate(-7 -717)" style="fill: #474d5d"/>
    <path d="M3307.09,957.55c-6.15-2.47-12.14-5.51-18.49-7.3-12.31-3.48-20.43-.43-27.59,10.19-3.71,5.49-6.59,11.56-9.77,17.41-9.87,18.14-19.77,36.24-26.28,56-7.22,21.88-20.95,30.92-46.95,19-38.65-17.75-49.12-48.39-31-85.13,6.12-12.43,13.38-24.38,17.69-38.25-6.57-6.93-14.86-9.69-22.89-12.16-26.06-8-52.09-16.29-78.53-22.88a580.47,580.47,0,0,0-90.49-15.54c-6.52-.56-13.12-.08-19.89-.08a100.6,100.6,0,0,0-13.67,49.92c-.15,10.61,1.76,21.23,1.94,31.86a156.74,156.74,0,0,1-1.59,25.71c-1.21,8.17-7.34,12.38-15.09,14a31.68,31.68,0,0,1-9.93.68c-13.87-1.64-27.82-3-41.47-5.74-6.28-1.27-12.33-5-17.77-8.68-8.17-5.52-12.82-13.64-12.48-23.73a125.91,125.91,0,0,1,2.28-21.77c5.06-24.1,10.65-48.09,15.92-72.15.82-3.76,1-7.65,1.5-11.52-11.69-7.57-24.38-9.65-36.68-11.38-34.94-4.91-70-8.75-105.09-12.91-14.55-1.72-29.13-3.23-43.71-4.69a93.7,93.7,0,0,0-9.62-.05c-6.52,8.32-8.5,17.32-8.43,26.76.09,11.32.46,22.65,1.23,34,1.46,21.34-3.8,41-14.62,59.18-12,20.19-27,25.65-49.09,17.06a131.58,131.58,0,0,1-26.41-13.77,35,35,0,0,1-15.79-30.73c.18-8.63,1.1-17.26,2.07-25.85,2.24-19.85,4.76-39.66,7-59.51.36-3.2,0-6.48,0-10.37-14.56-5.66-29.39-3.26-43.69-4.86q-20.85-2.34-41.83-3.41c-14.46-.71-28.82-4.46-44-2.87a550.44,550.44,0,0,0-19.27,57.3c-7.53,26.39-21.48,48.43-43,65.78-17.76,14.31-37.19,16.66-58.22,9.73-23.08-7.6-32.72-20.33-32.22-44.5.33-15.95,2.3-31.88,3.78-47.8,1.23-13.11,2.83-26.18,4.37-40.19-27.59-3.56-54-5.81-80.6-5.63-8.84.06-15.36,4.62-19.49,11.94a65.2,65.2,0,0,0-6.45,16.65c-6,24.93-16.68,47.72-30.89,68.91-7.78,11.61-15.93,23-24.28,34.22a109.75,109.75,0,0,1-13.26,14.9c-22,20.5-53.64,23.75-79.57,8.5-15.92-9.36-22.67-24.22-23.26-41.72-.47-13.93.77-27.93,1.69-41.88.57-8.5,2-17,1.11-24.88-2.3-1.11-3.47-2.2-4.56-2.13-34.53,2.49-69.06,5-103.57,7.78-6.58.53-13,2.53-19.56,3.84-13.32,2.65-21.23,11-23.44,24-3,17.71-5.73,35.5-7.5,53.36a118.4,118.4,0,0,1-9,34.6c-5.43,12.88-15.2,20-29.31,20.42a268.77,268.77,0,0,1-28-.22c-14-1.07-20.61-7.12-22.5-20.8-1.09-7.88-.8-15.94-1.13-23.92s1-15.87-1.53-24.5c-3.53,0-6.7-.34-9.78.05-33.69,4.32-67.34,9-101.06,13.08-27.9,3.39-47.16,17.31-55.42,44.58-4.23,14-7.38,28.29-10.84,42.49-1.4,5.76-2.31,11.63-3.53,17.87-18.19,6.42-36,11.28-54.64,12.53-12.9.86-22.36-4.41-26.41-16.71-4.37-13.23-7.58-26.84-11.18-40.32-1.19-4.43-2-9-3.33-14.72-4.34.8-8.1,1.13-11.63,2.22-15.88,4.9-31.89,9.52-47.5,15.19-31.5,11.44-55,31.81-68.46,63.11-7.41,17.26-18.18,32.52-29.36,47.49-26.3,35.22-67.17,37.32-98.56,23.7-12.51-5.43-18.78-14.15-18.41-27.82.21-8,0-16-.06-24,10.72-26.13,28.32-48,44.82-70.39,6.39-8.68,9.75-18.62,16-27,1.1.55,2.92,1.83,3.2,1.55q15.38-15,30.38-30.41c.28-.29-1-2.1-1.57-3.2L1339,937c17.29-4.59,30.85-16.14,46-24.71,1-.56,1.36-2.16,2-3.28l92.11-28q3.92,2,7.84,4c1.58,1.09,3.15,3.07,4.76,3.11q24.36.57,48.74.51c5,0,8.35-3.2,10.44-7.65l8-4.1c1.08.6,2.55,2,3.19,1.67,11-5.37,22.4-10.21,28.87-21.61,12.4-2,21.94-9.81,32.32-15.89,1.6,1.12,3.17,3.17,4.8,3.22q16.89.42,33.8,0c1.63,0,3.2-2.09,4.8-3.21L1671,845c4.78,9.27,12,13.71,22.62,11.4,3.92-.85,4.79-4,5.3-7.37l8.11,0c-.5,2.25-1,4.5-1.51,6.74,17.44,4.21,20.09,3,25.4-10.73,7.87-7.33,17.39-9.18,27.64-8s17.9-2.25,24.53-10c13.44-15.75,29.85-28,47.22-39.12,8.13-5.2,15.83-8,26.07-4.81,10.56,3.3,22,3.9,33,5.51a15.78,15.78,0,0,0,5.91-.47c26.19-6.5,52.79-1.81,79.18-2.89,3.17-.13,6.39,1.49,9.62,2.15,11.86,2.44,23.62,3.27,34.94-2.34,3.38,7.39,6.25,9.07,10.74,6.13,5.12-3.35,9-7.54,9.15-14.17,5.37-4.7,10.86-9.27,16.08-14.14,3.44-3.21,6.95-5.92,11.91-5.89,7.82.23,14.83-1.6,20.07-7.92,12.57-3.08,25-4.13,37.81-.37,4.61,1.36,10.44,1.39,14.13-3.7,16.07,6.16,32.15,6,48.25.09,2.77,1.29,5.46,3.35,8.35,3.7,5.06.61,10.25.17,15.39.17,6.76-.85,14.36,2.56,20-4,9.49-.93,18.46,1.14,27.36,4.24,8.13,2.83,16.44,5.17,24.67,7.73,2.07,1.21,4.41,3.74,6.17,3.39,7.72-1.54,13.08-6.24,15-14.17.08-.32-.81-.89-1.24-1.34,2.13-4.42,5.83-6.39,10.36-8.12,12.74-4.86,25.22-10.42,37.81-15.7,1.52,1.11,3,3.15,4.59,3.19q17.28.4,34.57,0c1.55,0,3.06-2.08,4.59-3.19,8.73,4.29,17.3,8.94,27.56,8.61,1.5,0,3.07,2.12,4.61,3.26l-8,4.05c2.88,6.23,8.05,8.1,14.52,8,13.83-.13,27.67,0,41.51,0,6.48,0,13,.38,19.43-.2,2.91-.26,5.65-2.44,8.46-3.75,4.31,1.07,10.07.75,12.68,3.46,11.1,11.53,24.64,13.63,39.45,12.54,2.68,6.11,7.64,8,14,8.05s11.27-1.93,13.92-8.05c10.33-6.92,20.57-14,31-20.66,2.64-1.69,6-2.28,9-3.37l0,0c4.91,6,11.52,7.93,19,8,8.1.11,15.51-1.33,21-8,0-1.32,0-2.65,0-4L2707,757c.55,7.76,4.86,11.72,12.5,11.91s15.52.1,23.29.13c2.23,2.24,4.3,6.19,6.72,6.41a154.83,154.83,0,0,0,26.72.09c2.35-.2,4.39-4.21,6.57-6.47,26.22,6.13,52.89,3.24,79.39,4,5.73.15,12.23-1.93,16.44,4.32h-51.4c16,6.95,29,8.06,42.42,10.53l8.82-10.61,28.62-8.21,12,7.84h23.86l11.93-7.82c7.29,2.91,14.68,5.6,21.85,8.77,13.81,6.12,26.9,13.49,38.54,23.22,1.8,3.37,4.84,3.82,8.21,3.48,5.27-.2,11.4,3.42,15.19-3.41,8,6.66,17.3,8.53,27.61,8,9.82-.51,19.63-.5,29.31,3,4.73,1.7,10.44.66,15.7.91,8.67.4,16.82,2.33,23.73,8,5.2,14.32,9.82,15.25,20,4,13.75,7.11,26.42,16.86,43.13,16.56,3-.06,6,2.27,9,3.5-.71,3.07-2.9,6.88-1.81,9,2,4.07,7.34,3.9,10.49,1.87,4.26-2.74,7.46-7.14,11.11-10.82l4.23-4.12c10.85,5.46,17.07,5.44,27.9-.07,5.83,3.3,13,4.83,16,12-.83,1-2.46,2-2.38,2.89,1,10.55,4.25,20.31,11.62,28.2,5.41,5.79,9.1,5.81,18.78,1,5.84,3,11.55,6.3,17.56,8.91,17.65,7.66,35.35,15.24,53.18,22.48,10.46,4.24,20.93,9.06,31.87,11.35,27.93,5.85,51.68,20.49,76.16,33.82,12.16,6.62,24.68,12.6,37,18.87l-6.27,2.39c2,6.51,4.31,12.69,5.67,19.08,3.33,15.61-6.16,27.84-22.29,28.31a44.73,44.73,0,0,1-17.57-2.81c-16-6.44-32.24-12.75-47.35-21a451.54,451.54,0,0,0-71.1-31.31C3342.37,969.08,3324.71,963.38,3307.09,957.55ZM1903.81,790.91c25.92,7.64,48.18,9.31,70.34-.8-20.51-1.08-41-1.1-61.55-1C1910.85,789.09,1909.1,789.78,1903.81,790.91Zm275.3-37.29c-12.41-.67-20.57-1.61-29.15.64C2157.71,763.05,2160.15,763.15,2179.11,753.62Z" transform="translate(-7 -717)" style="fill: #f9f8f7"/>
    <path d="M698.46,2020.74c3.59,1.54,7.65,2.45,10.67,4.74,7.91,6,15.56,12.37,23,19,15.37,13.68,30,28.18,45.89,41.28,22.52,18.62,41.82,40.8,65.45,58.13a54.36,54.36,0,0,1,4.43,4c18,16.68,35.82,33.65,54.2,50,12.87,11.42,26.55,21.92,39.86,32.84,1.54,1.27,3.15,2.48,4.56,3.88,18.4,18.25,38.44,34.58,58.55,50.88,9.21,7.47,17,16.7,26.3,26l-8.41,9.12c-30.77,4-61.63,7.39-92.28,12.13-42.39,6.55-84.62,14.08-126.91,21.3-1.83.32-3.48,1.78-5.21,2.7-19.67.73-31.46,12.12-39,29.05a64.62,64.62,0,0,0-4,11.21c-7.13,29.55-17.27,58.5-18,89.36,0,2.55-1.28,5.07-2,7.6-.52-8.53-1-17.07-1.6-26.34-17.23-10.37-36.84-14.2-55.38-20.57-18-6.18-35.61-14.1-53.09-15.58-10.42,2.8-8.77,12.57-14.08,17.42,0-4-.39-8,.13-11.86a2788.42,2788.42,0,0,1,52.11-279.85c9.46-39.36,18.35-78.86,27.81-118.23C693,2032.68,696.09,2026.8,698.46,2020.74Z" transform="translate(-7 -717)" style="fill: #444354"/>
    <path d="M515.34,2413.74c.46,20.67-3.39,40.88-5.75,62.22-123.25,23.12-246,45.35-370.14,67.24,0-5.68-.34-8.91,0-12,8.94-72.87,23.75-144.47,47.49-214,7.51-22,16.43-43.56,24.85-65.27.93-2.42,2.79-4.49,4.21-6.72,27.31,15.2,55.21,29.43,81.77,45.83,42.62,26.3,87.37,48,133.67,66.77,21.54,8.75,42.68,18.5,64.15,27.45C508.54,2390.56,517.2,2398.39,515.34,2413.74Z" transform="translate(-7 -717)" style="fill: #3f273f"/>
    <path d="M515.34,2413.74c1.86-15.35-6.8-23.18-19.71-28.55-21.47-9-42.61-18.7-64.15-27.45-46.3-18.8-91.05-40.47-133.67-66.77-26.56-16.4-54.46-30.63-81.77-45.83,6.48-13.88,19.63-18.56,32.63-22.91,11.16-3.73,22.71-6.3,34.08-9.38,15.08,1,28.73-4.9,42.5-9.43,76.39-25.14,152.66-50.67,229-76,6.07-2,11.94-5.2,19-4.68.78,4.09,1.39,7.28,2,10.47-5.82,26.6-11.87,53.15-17.41,79.81-13.38,64.42-26.51,128.89-39.81,193.32C517.51,2408.86,516.25,2411.26,515.34,2413.74Z" transform="translate(-7 -717)" style="fill: #444354"/>
    <path d="M441.85,1772.49c11.23.49,22.38.77,33.2,4.86,14.7,5.56,26.6,14.66,36.51,26.58,4.68,5.65,4.17,11.23-1.91,15.33-17.56,11.81-35.32,23.33-53.06,34.87-18.84,12.26-38,24.09-56.49,36.84-5.19,3.57-8.62,9.71-12.85,14.68-11,8.43-21.89,17.07-33.12,25.22-8.55,6.21-17.39,12.27-28.75,10.1-3.19-3.88-.18-6.51,1.2-9.08,9.46-17.52,19-35,28.76-52.35a43.17,43.17,0,0,1,8.52-10.84,105.79,105.79,0,0,0,28.9-42.36,50.38,50.38,0,0,1,13.11-19.59C417.93,1795.4,429.86,1783.92,441.85,1772.49Z" transform="translate(-7 -717)" style="fill: #454455"/>
    <path d="M339.27,3112.87c-2.88,1.37-5.65,3.55-8.65,3.93-5.18.65-10.49.18-16.81.18,1.33,8.09,5.47,13.13,9.46,18.12,22.29,27.82,44.52,55.69,67.1,83.29,20.06,24.53,41.31,48.12,60.65,73.2,20.69,26.84,43.66,51.4,67.59,75.26a274.73,274.73,0,0,1,25.61,30.21c3.37,4.51,4.34,10.8,6.4,16.29-15.86-14-33.09-26.82-47.3-42.36C463,3326.86,422.68,3282.62,384,3236.9c-27.06-32-52.91-64.9-78.51-98-8.84-11.44-15.59-24.5-23.29-36.82,1.41-5.9-1.14-13,5.2-17.42l34.86,28.23Z" transform="translate(-7 -717)" style="fill: #562e41"/>
    <path d="M575.25,2133.17c-.6-3.19-1.21-6.38-2-10.47-7.09-.52-13,2.66-19,4.68-76.32,25.37-152.59,50.9-229,76-13.77,4.53-27.42,10.45-42.5,9.43,6.74-9.2,17-12.32,27.12-15.72q95.53-32.19,191.1-64.3c18.3-6.13,36.71-11.94,55.12-17.73a81.31,81.31,0,0,1,13.58-3.07c5.24-.7,9.52,2.81,9.11,8C578.43,2124.49,576.49,2128.8,575.25,2133.17Z" transform="translate(-7 -717)" style="fill: #7e6e7b"/>
    <path d="M14.47,2685.43c.17-1.26.78-2.66.43-3.76-3.1-9.89-3.69-19.67-.07-29.65.79-2.16-.25-5-.45-7.51.95-13.61,1.46-27.31,8.63-39.56l10.75,1.34c.47,9.69.61,18.91,1.49,28.06.61,6.44,2.23,12.79,3.4,19.18q3.14,19.5,6.28,39c3.22,20,6.45,40,9.75,60.47-1.92-.43-2.82-.35-3.17-.75C39.36,2738.27,19.54,2702.43,14.47,2685.43Z" transform="translate(-7 -717)" style="fill: #4e3449"/>
    <path d="M287.44,3084.64c-6.34,4.43-3.79,11.52-5.2,17.42-18-13.29-30-30.47-34.94-52.24,1-.92,1.44-1.55,1.87-1.58a2.56,2.56,0,0,1,1.84.59Q269.27,3066.7,287.44,3084.64Z" transform="translate(-7 -717)" style="fill: #795a63"/>
    <path d="M38.65,2653.53c-1.17-6.39-2.79-12.74-3.4-19.18-.88-9.15-1-18.37-1.49-28.06L23,2605c0-7.31.09-14.63.09-21.95a25.43,25.43,0,0,1,7.19-18c1.14-1.21,3.31-1.43,6.55-2.71.74,4.52,2,8.16,1.82,11.76-.9,23.2.85,46.38.63,69.57C39.26,2646.91,38.87,2650.22,38.65,2653.53Z" transform="translate(-7 -717)" style="fill: #d9cfd1"/>
    <path d="M1550.88,881.06c-2.09,4.45-5.45,7.63-10.44,7.65q-24.37.09-48.74-.51c-1.61,0-3.18-2-4.76-3.11,0-1.32.07-2.65.08-4,3.27-.15,6.76.38,9.77-.58,11.54-3.68,22.71-4.43,34.58-.52C1537.34,882,1544.34,880.81,1550.88,881.06Z" transform="translate(-7 -717)" style="fill: #e8e1e1"/>
    <path d="M133,2897.55c-19.51-12.54-28.37-31.44-33.16-56.55C117,2858.7,122.23,2879.66,133,2897.55Z" transform="translate(-7 -717)" style="fill: #f6f6f6"/>
    <path d="M161.32,2176.75c-2.95,18.7-9.39,35.86-23.61,51.26C138.92,2211,147,2192.75,161.32,2176.75Z" transform="translate(-7 -717)" style="fill: #f8f7f7"/>
    <path d="M2139,745c-3.69,5.09-9.52,5.06-14.13,3.7-12.8-3.76-25.24-2.71-37.81.37l-3.93-4c2.37-1.11,4.71-2.33,7.13-3.31C2107,735,2123.35,734.46,2139,745Z" transform="translate(-7 -717)" style="fill: #eae5e5"/>
    <path d="M262.94,2000.91a141.54,141.54,0,0,0-25,44.92c-.87,2.58-4.12,4.34-7.35,7.54-1-3.6-2.36-5.7-1.8-6.93,3.89-8.45,7.83-16.92,12.42-25,5.52-9.7,11.71-19,17.61-28.5Q260.87,1996.93,262.94,2000.91Z" transform="translate(-7 -717)" style="fill: #f7f7f7"/>
    <path d="M262.94,2000.91q-2.07-4-4.13-8c1.91-11.58,10.36-15.88,19.6-18.79,4.7,2.26,5,5.66,3.2,8.58-3.15,5-7.06,9.47-10.66,14.17l-8,4Z" transform="translate(-7 -717)" style="fill: #dedbdb"/>
    <path d="M1307,956.93c.56,1.1,1.85,2.91,1.57,3.2q-15,15.39-30.38,30.41c-.28.28-2.1-1-3.2-1.55A60.12,60.12,0,0,1,1307,956.93Z" transform="translate(-7 -717)" style="fill: #ece9e9"/>
    <path d="M1387,909c-.66,1.12-1,2.72-2,3.28-15.16,8.57-28.72,20.12-46,24.71,6.81-13.17,19.94-17.91,32-24l8.06-3.91Z" transform="translate(-7 -717)" style="fill: #ede9e9"/>
    <path d="M1591,857c-6.47,11.4-17.9,16.24-28.87,21.61-.64.31-2.11-1.07-3.19-1.67,1.45-12,10.7-16,20.24-19.2C1582.75,856.54,1587,857.21,1591,857Z" transform="translate(-7 -717)" style="fill: #eeebea"/>
    <path d="M77.78,2373.61c-5.18,22.24-6.34,24.82-18,40.68C58.08,2397.81,62.41,2385.14,77.78,2373.61Z" transform="translate(-7 -717)" style="fill: #f7f7f7"/>
    <path d="M123,2266.92c-4.89,12.69-9.28,22.58-18.3,30.9-4.18-9.11-.27-16.29,3.77-23.33C111,2270.12,112.74,2269.33,123,2266.92Z" transform="translate(-7 -717)" style="fill: #f7f7f7"/>
    <path d="M172.52,2149.14c4.76-11.41,9.41-22.62,20.74-30.37C192.49,2134.45,190.5,2137.45,172.52,2149.14Z" transform="translate(-7 -717)" style="fill: #f9f8f8"/>
    <path d="M1666.68,841.15c-1.6,1.12-3.17,3.17-4.8,3.21q-16.89.42-33.8,0c-1.63-.05-3.2-2.1-4.8-3.22,2.57-.26,5.39.08,7.65-.88a34.1,34.1,0,0,1,28.12,0C1661.3,841.23,1664.12,840.89,1666.68,841.15Z" transform="translate(-7 -717)" style="fill: #ecdede"/>
    <path d="M96.19,2315.46c.84,1.15,1.67,1.81,1.55,2.18-2.51,8-5.13,16.05-7.66,23.82-5.11.64-6.78-2.54-6.4-5.65C84.7,2327.27,88.06,2319.85,96.19,2315.46Z" transform="translate(-7 -717)" style="fill: #f8f8f8"/>
    <path d="M1730.93,845.05c-5.31,13.75-8,14.94-25.4,10.73.5-2.24,1-4.49,1.51-6.74l8-.12c4.43,0,9.09.67,12-3.88Z" transform="translate(-7 -717)" style="fill: #ebe8e7"/>
    <path d="M1698.93,849.06c-.51,3.36-1.38,6.52-5.3,7.37-10.6,2.31-17.84-2.13-22.62-11.4h8l8.06,3.87Z" transform="translate(-7 -717)" style="fill: #efeceb"/>
    <path d="M2303,744.87c.43.45,1.32,1,1.24,1.34-2,7.93-7.31,12.63-15,14.17-1.76.35-4.1-2.18-6.17-3.39Z" transform="translate(-7 -717)" style="fill: #ececeb"/>
    <path d="M2039,777c-.1,6.63-4,10.82-9.15,14.17-4.49,2.94-7.36,1.26-10.74-6.13Z" transform="translate(-7 -717)" style="fill: #efeceb"/>
    <path d="M44.69,2484.51c.85,8.51-.78,16-8.87,24.22C35.73,2497.38,38.32,2490.23,44.69,2484.51Z" transform="translate(-7 -717)" style="fill: #f6f5f5"/>
    <path d="M2394.87,721.06c-1.53,1.11-3,3.15-4.59,3.19q-17.28.4-34.57,0c-1.56,0-3.07-2.08-4.59-3.19l7.79-.14h28.18Z" transform="translate(-7 -717)" style="fill: #e9e0df"/>
    <path d="M2231,745c-5.64,6.51-13.24,3.1-20,4l-8.06-4.05c2.83-3.79,6.46-3.59,10.64-2.67C2219.28,743.5,2225.15,744.13,2231,745Z" transform="translate(-7 -717)" style="fill: #f4eceb"/>
    <path d="M2083.1,745.1l3.93,4c-5.24,6.32-12.25,8.15-20.07,7.92Z" transform="translate(-7 -717)" style="fill: #f2eeee"/>
    <path d="M2202.9,744.92,2211,749c-5.14,0-10.33.44-15.39-.17-2.89-.35-5.58-2.41-8.35-3.7Z" transform="translate(-7 -717)" style="fill: #f2e1e0"/>
    <path d="M1727,845c-3,4.55-7.62,3.86-12,3.88C1718,844.35,1722.63,845.1,1727,845Z" transform="translate(-7 -717)" style="fill: #f9f8f7"/>
    <path d="M263,2000.94l8-4Z" transform="translate(-7 -717)" style="fill: #f7f7f7"/>
    <path d="M1687,848.91,1679,845Z" transform="translate(-7 -717)" style="fill: #f9f8f7"/>
    <path d="M1487,881.11c0,1.33,0,2.66-.08,4q-3.93-2-7.84-4Z" transform="translate(-7 -717)" style="fill: #f0e2e2"/>
    <path d="M1379.05,909.05,1371,913Z" transform="translate(-7 -717)" style="fill: #f9f8f7"/>
    <path d="M2475.05,745c-13.84,0-27.68-.09-41.51,0-6.47.06-11.64-1.81-14.52-8,6.48,0,13,.37,19.43-.21,2.92-.26,5.67-2.41,8.5-3.7a90,90,0,0,0,32.07,4C2477.69,739.71,2476.37,742.35,2475.05,745Z" transform="translate(-7 -717)" style="fill: #f1f5f5"/>
    <path d="M3303,885c-9.68,4.85-13.37,4.83-18.78-1-7.37-7.89-10.62-17.65-11.62-28.2-.08-.88,1.55-1.92,2.38-2.89,7.71,8.8,11.59,20.59,21.58,27.6C3298.73,882,3300.89,883.51,3303,885Z" transform="translate(-7 -717)" style="fill: #eae7e7"/>
    <path d="M2742.82,769.06c-7.77,0-15.53.07-23.29-.13s-12-4.15-12.5-11.91c17.14,2.87,34.3,5.67,51.41,8.71,1.71.31,3.16,2.1,4.72,3.2Z" transform="translate(-7 -717)" style="fill: #eae3e2"/>
    <path d="M2742.82,769.06l20.34-.13,19.67.16c-2.18,2.26-4.22,6.27-6.57,6.47a154.83,154.83,0,0,1-26.72-.09C2747.12,775.25,2745.05,771.3,2742.82,769.06Z" transform="translate(-7 -717)" style="fill: #e1e2e2"/>
    <path d="M3226.92,845.18c-3.65,3.68-6.85,8.08-11.11,10.82-3.15,2-8.45,2.2-10.49-1.87-1.09-2.17,1.1-6,1.81-9Z" transform="translate(-7 -717)" style="fill: #d1dad9"/>
    <path d="M2954.86,769.08l-11.93,7.82q-11.94-8.76-23.86,0l-12-7.84Z" transform="translate(-7 -717)" style="fill: #f1e6e6"/>
    <path d="M2663,729c0,1.32,0,2.65,0,4H2623l0,0,12.07-7.92c6.59,5.72,13.19,5.7,19.82.06Z" transform="translate(-7 -717)" style="fill: #f2eaea"/>
    <path d="M2583,757c-2.65,6.12-7.56,8.09-13.92,8.05s-11.28-1.94-14-8.05Z" transform="translate(-7 -717)" style="fill: #ede4e3"/>
    <path d="M3155,825c-10.15,11.22-14.77,10.29-20-4Z" transform="translate(-7 -717)" style="fill: #efeceb"/>
    <path d="M3259.05,841c-10.83,5.51-17.05,5.53-27.9.07C3245,837.41,3245,837.41,3259.05,841Z" transform="translate(-7 -717)" style="fill: #e4dddd"/>
    <path d="M2475.05,745c1.32-2.63,2.64-5.27,4-7.9l23.92,3.95c-2.81,1.31-5.55,3.49-8.46,3.75C2488.05,745.36,2481.53,745,2475.05,745Z" transform="translate(-7 -717)" style="fill: #efe8e8"/>
    <path d="M2447,733.07c-2.83,1.29-5.58,3.44-8.5,3.7-6.43.58-12.95.2-19.43.21l8-4.05Z" transform="translate(-7 -717)" style="fill: #f7ebea"/>
    <path d="M3023.46,804.55c-3.37.34-6.41-.11-8.21-3.48,5.36-2.51,10.65-6.3,16.4-.79Z" transform="translate(-7 -717)" style="fill: #c7c9ca"/>
    <path d="M2654.89,725.14c-6.63,5.64-13.23,5.66-19.82-.06Z" transform="translate(-7 -717)" style="fill: #f4e2e2"/>
    <path d="M3023.46,804.55l8.19-4.27,7,.86C3034.86,808,3028.73,804.35,3023.46,804.55Z" transform="translate(-7 -717)" style="fill: #c3acb0"/>
    <path d="M3194.71,2569c.44,10.65,1.2,21.29,1.27,31.93.38,58.67-.17,117.31-5.4,175.8a544.75,544.75,0,0,1-89.76-2.15c-5.94-.62-12-.81-17.94-.84q-68-.3-136-.44c-6.64,0-13.27,0-19.53,0-3.35-6.15,1.71-7.75,4.41-9.79q71.73-54.14,143.66-108,53.52-40.11,107.2-80C3186.29,2572.82,3190.68,2571.15,3194.71,2569Z" transform="translate(-7 -717)" style="fill: #090105"/>
    <path d="M1823.36,2489c.52-7.21,1-14.41,1.57-21.78,11.12-6.14,22.44-6.49,33.59-6.87,27.3-.93,54.6-1.73,81.91-2.14,38.64-.58,77.28-.74,115.92-1.13,6.55-.06,13.54,1.21,18.27-5.26-3.79,13.74-6.43,16.39-17.72,17.08-4.63.29-9.29.09-13.93.09-45.8,0-91.59.09-137.38-.07a58.5,58.5,0,0,0-25,5C1862.42,2482.07,1843.07,2486.36,1823.36,2489Z" transform="translate(-7 -717)" style="fill: #505261"/>
    <path d="M3155.74,2296.5c-28.43,0-56.83,1.5-85.26-2.35-29.48-4-59.21-6.08-88.81-9.23-5.14-.55-10.14-2.28-15.21-3.46,33.06.58,66.09-.41,99.21,2.16,28.47,2.2,56.24,8.92,84.69,10.54C3152.19,2294.26,3154,2295.69,3155.74,2296.5Z" transform="translate(-7 -717)" style="fill: #9dc3c8"/>
    <path d="M1619.34,2801c-2.26-29.34.64-58.56,5-87.36,7.71-50.5,16.81-100.82,26.67-150.95,5-25.25,12.9-49.92,19.49-74.86-.49,21.29,6,23.08,25.86,20.53,17.4-2.24,34.47-6.81,52.14-7.88,7.39-.44,14-3.6,14.74-12.95.17-2.27,2.4-4.38,3.68-6.57q-3,55.83-6.07,111.64c-3.55,65.22-5.23,130.49-.84,195.69a693.82,693.82,0,0,0,14.44,102.73c1.85,8.38,2.34,17.06,3.45,25.6-5.8-10.21-16.08-15.59-25-22.23q-50.17-37.56-101.18-74C1641.59,2813.12,1630.2,2807.46,1619.34,2801Z" transform="translate(-7 -717)" style="fill: #495664"/>
    <path d="M1051.29,2540.9c1.64-19.67,2.94-39.38,5-59,1.74-16.36,4.42-32.62,6.68-48.92,5-3.89,4.18-9.5,4-14.69-.58-15.29.41-30.44,4.17-45.29,1.26-4.95,3.38-9.69,5.49-15.6,4.9,1.85,9.07,2.45,12,4.68,10.45,8.09,20.52,16.66,30.62,25.19,5.06,4.26,9.36,9.63,14.89,13.09,20.14,12.59,26.69,32.36,28.52,54.08,1.28,15.17.32,30.53.37,45.81,0,4.64-.3,9.4,4,12.73q1.88,30,3.74,59.94c-4.13-3.42-3.93-8.22-3.72-12.8.53-11.43-2.22-22.15-6.23-33-28.23-7.07-56.64-11.78-85.83-10.15-3.3.18-6.64.05-9.9.48-5.1.68-8.34,3.62-9.45,8.76S1056.29,2537,1051.29,2540.9Z" transform="translate(-7 -717)" style="fill: #444354"/>
    <path d="M1399.63,2629.24c1.85-17.75,3.73-35.49,5.53-53.24.78-7.69,5-13.51,9.85-19.08,4.16,2.1,3.62,6.21,4.35,9.87,1,4.9,2.27,9.73,3.43,14.59l.15,59.56Z" transform="translate(-7 -717)" style="fill: #5d6672"/>
    <path d="M634.33,2843.88c-4.09-14-7.66-26.3-11.42-39.23,15.76,2.9,22.43,6.23,23.36,12.78C647.67,2827.26,649.06,2837.61,634.33,2843.88Z" transform="translate(-7 -717)" style="fill: #3e213a"/>
    <path d="M4470.36,2680.75H4269.58c-3.28-14.68-1.16-29.27-1.54-43.7-.39-14.64-.09-29.31-.09-44,0-14-.11-28,0-42,.14-14.49-.62-29,.53-43.45,3.17-.9,5-1.88,6.83-1.88,65.91-.08,131.82-.07,198.35-.07,3.45,8,4.43,15.75,4.82,23.61,1.77,36,2.24,71.9-2.25,107.76C4474.45,2651.45,4474.6,2666.11,4470.36,2680.75Z" transform="translate(-7 -717)" style="fill: #090105"/>
    <path d="M4059.21,2497c7.36,134.05-1.88,264-41.25,392.1-63.87-3.26-126.91-4.73-190.79-8.64,26.71-126.71,33.65-253.46,30-380.45a25.61,25.61,0,0,1,2.13-1.83,3.84,3.84,0,0,1,1.74-.76c5.32-.19,10.65-.4,16-.41C3936.92,2497,3996.84,2497,4059.21,2497Z" transform="translate(-7 -717)" style="fill: #080004"/>
    <path d="M2320.93,2081c-.31-7.75-.69-12.94-.7-18.13-.12-45.28-.7-90.57-.09-135.85.64-47.21-8.52-92.57-23.07-137.12-2.86-8.77-5.74-17.54-9.1-27.81,4.92-.62,8.62-1.7,12.22-1.44,19.23,1.39,38.59,2.06,57.61,4.92,57.21,8.6,114.3,18,171.39,27.36a97.46,97.46,0,0,1,21,6c14.08,5.76,25.19,15.64,31.34,29.43,11.25,25.22,17.29,51.84,14.24,79.59-1.29,11.74-5.23,23.2-8.38,36.54,11.37,16.32,7.77,36.69,6.5,56.34a195.45,195.45,0,0,1-11.34,54.56c-7.08,19.35-14.56,25-35.67,25.14-55.27.31-110.54.31-165.82.41C2361.8,2081,2342.52,2081,2320.93,2081Zm220.81-176.37c7-10.62,3.82-20.4,2.86-30.25-1.46-15-10.09-22.46-24-25.18-3.91-.77-7.79-1.76-11.73-2.42-42-7.09-83.9-14.28-125.91-21.08-7.64-1.23-15.75-2.77-23.44,1.9-2.08,16.47,3.29,31.76,5.93,47.35,1.53,9.06,7.08,13.6,16.37,14.53,17.2,1.71,34.34,4.1,51.53,6,29.1,3.15,58.21,6.27,87.34,9.07C2527.81,1905.16,2535.1,1904.58,2541.74,1904.58Zm1,70.63c-3.73-1-6.18-1.9-8.7-2.15-20.46-2-40.9-4.67-61.41-5.64-26.5-1.26-53.06-1.28-79.6-1.5-7.17-.06-14.34,1.14-21.32,5.12,0,16.85-2.37,33.17,1.56,49.64,4.18.39,7.44,1,10.7,1q73.71.09,147.42-.05c3.73,0,7.46-1.26,11.45-2C2544.16,2004.23,2544.42,1989.9,2542.78,1975.21Z" transform="translate(-7 -717)" style="fill: #c0beff"/>
    <path d="M1386.08,2056.18c6.26-9.09,4-18.81,5.35-27.86s2.65-18.34,3.94-27.34c13.59-5.4,27.05-4,40.7-6.89.7,3.29,1.81,5.8,1.65,8.22-2,29.88-4.11,59.74-6.23,89.61-.28,4-.28,8-1,11.93-1.19,6.27-4.85,11.17-10.89,13.27a56.89,56.89,0,0,1-15.49,3.24q-91.72,5.05-183.47,9.66a90.11,90.11,0,0,1-15.93-.43c-9.94-1.28-15.5-6.62-17.55-16.35a43.54,43.54,0,0,1-1-9.92c.43-20-.2-40.06,1.8-59.88,6.41-63.72,19-126.29,39.87-186.93,8-23.26,17.25-46.11,26.58-68.88a122.66,122.66,0,0,1,13.54-24.35c15.22-21.35,36.41-32.5,62.53-34.35a16.56,16.56,0,0,1,2-.08c42,1.62,83.77-3.77,125.68-4.94a154,154,0,0,1,21.91.64c8.18.92,11.54,5,11.28,13.58a84,84,0,0,1-2.45,17.71c-9.87,39.35-20,78.64-30,118-.16.65-.24,1.31-.42,2-5.31,19.22-9.61,22.42-29.65,21.28-5.12-.29-10.82.88-15.51-4.58,2.47-28.5,12.22-56.19,18.18-84.94-8.59-4-16.56-2-24.23-1.42-26.53,2.11-53,4.57-79.51,7.18-8.6.84-17.12,2.43-25.64,3.91-14.31,2.49-24.27,10.54-29.24,24.22-2.5,6.86-4.43,13.94-6.31,21-11.64,43.76-19.39,88.32-27.53,132.81-2.15,11.77-4.19,23.57-6.57,35.3a61.53,61.53,0,0,0,.26,26.58c9.91,1.11,19.07,3,28.23,3,19.28,0,38.56-1,57.85-1.58q25-.8,49.91-1.65C1374.63,2056.65,1380.55,2056.4,1386.08,2056.18Z" transform="translate(-7 -717)" style="fill: #c0beff"/>
    <path d="M999,1901c-18.52,38.07-28.93,78.6-35.92,120.08-6.53,38.75-11.31,77.72-12.58,117a34.65,34.65,0,0,1-1.21,5.89c-1.75,1-3.35,2.63-5.18,3-10.39,2-20.85,3.69-32.19,5.65-.78-4.64-2-8.44-1.94-12.22.07-10.66.24-21.34,1.07-32,4.44-56.56,12.23-112.48,32.47-166,20.36-53.81,47-104.4,78.56-152.39,16.2-24.63,36.7-32.57,68.34-27.26-25,86.1-20.36,170.85,12.67,254-.4,6.88,1.07,13,7.25,18.65,6.84-7,4.86-15,4.58-22.61,8-29.52,16-59.07,24.16-88.56,4.43-16,9.18-32,13.82-48a434.9,434.9,0,0,1,33.06-81.25c5.89-11.19,11.16-22.7,17-33.94,10.48-20.31,18.29-23.6,43.14-17.84-7.58,21.39-20,40.44-28,61.42-7.82,20.51-16.59,40.69-23.68,61.45-7.31,21.38-13.83,43.1-19.36,65-5.38,21.26-9.78,42.83-13.3,64.47-3.62,22.31-6.22,44.82-8.23,67.33-2,21.85-2.61,43.82-3.87,66.49-9.24,6-20.33,2.75-30.5,4.65-10.44,2-21,3.53-32.88,1.76-36.76-71.38-59.1-147.57-71.66-226.89-.13-9.19-.2-18.38-.5-27.56,0-.92-1.52-1.79-3.25-3.7C1003.71,1884.06,1001.06,1892.37,999,1901Z" transform="translate(-7 -717)" style="fill: #c0befe"/>
    <path d="M1710.26,2102.49c-13.64,8.92-28.25,8.33-42.65,6.35-3.75-.51-7.82-5-10-8.69-3-5-4.65-11-6.52-16.63-3.12-9.47-6-19-9-29-11.66-4.47-23.7-1.7-35.45-2.16-12-.47-24-.31-35.93,0s-23.81-1.28-36.84,1.45c-3.45,11.47-6.89,22.82-10.26,34.19-8.71,29.41-9.1,29.78-40,29.78-5.14,0-10.29-.8-14.91-1.19-3-7.13-1.36-12.87.18-18.63,23.2-86.72,46.7-173.36,79-257.26,12.88-33.5,27.51-66.34,41.09-99.57,5.67-13.87,14.74-21.46,30.52-20.4,15.2,1,30.6-.26,46.17,4.82,3.14,10.63,4.49,21.73,5,33,1.73,37.22,3,74.46,5.31,111.65,3.11,51.09,5,102.35,15.08,152.74,4.16,20.83,9.55,41.42,14.49,62.1C1706.82,2090.75,1708.58,2096.42,1710.26,2102.49ZM1626,1970.81c.58-1.13,1.52-2.2,1.69-3.39a48,48,0,0,0,.45-7.94q-2.46-79.9-5-159.8a2.78,2.78,0,0,0-.61-1.86c-.38-.33-1.21-.15-3-.29-28,54.9-46.66,113.52-63.45,173.06C1572.79,1973.8,1609.75,1973.79,1626,1970.81Z" transform="translate(-7 -717)" style="fill: #c0beff"/>
    <path d="M1838,1729.42h68.82c8.71,18.61,16.14,37.76,20.53,57.86q10.41,47.74,19.36,95.8c11.47,62.13,23.21,124.2,38.27,185.58,1.73,7.05,3,14.2,4.82,22.78-11.9,1.44-22.91,3.51-34,3.88-9.3.31-16.64-4.61-20.37-13.48-2-4.88-3.13-10.17-4.9-15.18-3.29-9.29-5.33-19.11-10.24-27.21-17.24-2.48-88.08-2.64-106.73-.31-5.68,9.56-7.68,20.76-11.27,31.36s-7.13,21.31-10.91,32.62a206.14,206.14,0,0,1-51.13,1.32C1774,1979.53,1801.34,1854.2,1838,1729.42Zm34.89,60.85c-3.07,6.94-4.5,9.2-5.09,11.65q-17.89,74.52-35.54,149.11c-.68,2.9-.09,6.11-.09,9.06,21,2.3,55.4,1,72.27-3.13C1900.57,1901.78,1892.63,1847.18,1872.86,1790.27Z" transform="translate(-7 -717)" style="fill: #c0beff"/>
    <path d="M2067.69,1961.08c-.15,16.52-.31,30.38-.38,44.24-.06,13.32,0,26.64,0,40-.06,13.88-.21,27.76-.33,42.66-8.12,1.25-15.16,2.57-22.26,3.35-6.51.72-13.09.84-19.46,1.22-5.65-6.8-6.44-14-6.6-21.31s0-14.65,0-22c.06-47.27,1.18-94.58-.13-141.81-1.35-48.55-5-97-7.83-145.54-.46-7.86-2-15.66-3-23.64,7-5.68,14.53-4.37,21.5-3.75,48.37,4.34,96.7,9.07,145.05,13.58,17.89,1.67,35.8,3.08,53.7,4.63,4,.34,8.31-.09,11.81,1.41,4.7,2,10.6,4.6,12.72,8.65,7.34,14,11,29.42,15.4,46.19-8.13.35-14,.8-19.91.82-29.35.12-58.38-3.66-87.49-7-27.75-3.14-55.52-6.8-83.57-6-5.19.15-10.36.84-16.87,1.4,2.17,23.38,4.24,45.7,6.4,69,5.12.86,9.47,2.07,13.85,2.26,33.92,1.46,67.85,2.69,101.77,4.07,6.5.27,13,.92,19.07,1.36,3.58,16.79,3.6,67.75.05,85.51-14.08,1.29-28.62.43-43.11.58-14.65.16-29.3,0-43.95,0Z" transform="translate(-7 -717)" style="fill: #c0befe"/>
    <path d="M1335.38,2613.58c-2.19,19.8-4.5,39.59-6.54,59.41-3.54,34.38-7.83,68.71-10.1,103.18-2.46,37.19-1.73,74.45,3.46,111.5.45,3.15.06,6.41.06,9.55-5.12.63-6.14-2.64-7.59-5.64-24.77-51-42.88-104.39-55.53-159.65-11.31-49.38-16.7-99.57-20.63-150a83.47,83.47,0,0,0,4.53-30.79c-.35-7.7.3-15.44.51-23.44,9.31-4,17.53-3.1,25.84-1.31,4.43.95,8.9,1.76,13.35,2.64a130.14,130.14,0,0,0,29.94,29c4.32,3,8.07,6.92,11.86,10.65,7.49,7.39,11.21,16.25,10.61,27C1334.82,2601.61,1335.28,2607.6,1335.38,2613.58Z" transform="translate(-7 -717)" style="fill: #402840"/>
    <path d="M1502.32,2722.05c-3.73-19.48-7.88-38.9-11.11-58.47-8.48-51.34-10.51-103.11-10.65-155.07-.17-59.87-1.44-119.74-2.13-179.61-.08-6.62.43-13.25.67-19.88,5.47,4.63,3.81,11,3.84,16.8.15,30,.1,59.93.12,89.9q0,38,.09,75.91c0,4.66-.25,9.36.26,14,1.27,11.47,5.13,15.21,16.64,15.31,26,.22,51.94.31,77.91-.1,5.76-.1,11.49-2.52,17.24-3.87-3.24,20.25-6.35,40.53-9.76,60.75-8.5,50.3-17.29,100.54-25.62,150.86-2,12.35-2.8,24.92-4.14,37.38-.35-3.88-1.29-7.82-.94-11.64.86-9.59-2.87-16.17-11.08-21.05-7.83-4.66-15.11-10.22-22.8-15.13-4.73-3-9.78-5.55-15.64-8.83C1504,2714.62,1503.16,2718.34,1502.32,2722.05Z" transform="translate(-7 -717)" style="fill: #4a5664"/>
    <path d="M1058.78,2341.15c-16.24-6.9-32.57-9.8-50.45-5.83-14.82,3.28-30.27,3.69-45.42,5.55-18.44,2.25-36.83,4.82-55.27,7-13.18,1.55-26.4,2.92-39.63,4-23.14,1.8-46.31,3.29-69.47,4.91,1.73-.92,3.38-2.38,5.21-2.7,42.29-7.22,84.52-14.75,126.91-21.3,30.65-4.74,61.51-8.13,92.28-12.13,6.44.3,13.06-.2,19.28,1.14,4.78,1,10.08,3.45,13.26,7C1058,2331.53,1057.79,2336.91,1058.78,2341.15Z" transform="translate(-7 -717)" style="fill: #a9bec4"/>
    <path d="M1335.38,2613.58c-.1-6-.56-12-.23-17.93.6-10.71-3.12-19.57-10.61-27-3.79-3.73-7.54-7.62-11.86-10.65a130.14,130.14,0,0,1-29.94-29c12.39,0,24.81-.69,37.15.11,14.94,1,26.78-3.42,35.08-16.18-2.84,16.19-5.43,32.43-8.58,48.55C1343,2578.94,1339.07,2596.24,1335.38,2613.58Z" transform="translate(-7 -717)" style="fill: #4c5866"/>
    <path d="M999,1901c2-8.66,4.7-17,11.86-23.18,1.73,1.91,3.21,2.78,3.25,3.7.3,9.18.37,18.37.5,27.56-1.19-1.48-2.48-2.89-3.55-4.45C1006.78,1898.46,1006.81,1898.44,999,1901Z" transform="translate(-7 -717)" style="fill: #767190"/>
    <path d="M1114.93,2013c.28,7.62,2.26,15.65-4.58,22.61-6.18-5.62-7.65-11.77-7.25-18.65Z" transform="translate(-7 -717)" style="fill: #636f8d"/>
    <path d="M1903.81,790.91c5.29-1.13,7-1.82,8.79-1.83,20.52-.07,41-.05,61.55,1C1952,800.22,1929.73,798.55,1903.81,790.91Z" transform="translate(-7 -717)" style="fill: #e9dedd"/>
    <path d="M2878.5,777.28l-8.82,10.61c-13.42-2.47-26.39-3.58-42.42-10.53h51.4Z" transform="translate(-7 -717)" style="fill: #d8afb3"/>
    <path d="M2623,733H2663c-5.45,6.7-12.86,8.14-21,8C2634.56,740.91,2628,739,2623,733Z" transform="translate(-7 -717)" style="fill: #edf7f6"/>
    <path d="M2179.11,753.62c-19,9.53-21.4,9.43-29.15.64C2158.54,752,2166.7,753,2179.11,753.62Z" transform="translate(-7 -717)" style="fill: #e8e3e2"/>
    <path d="M2919.07,776.91q11.92-8.76,23.86,0Z" transform="translate(-7 -717)" style="fill: #e4e3e3"/>
    <path d="M2208.94,2454c60.93-1.59,120.7-1.35,180.48.53,3.13.1,6.23,1.3,9.08,1.93,1.68,17.11-7.87,170.23-12.13,194.63-3.39.5-7.13,1.54-10.88,1.55q-83.82.16-167.65,0c-3.83,0-7.66-.56-11.17-.83C2191.44,2623.08,2198.43,2510.34,2208.94,2454Z" transform="translate(-7 -717)" style="fill: #495664"/>
    <path d="M1502.32,2722.05c.84-3.71,1.69-7.43,2.9-12.76,5.86,3.28,10.91,5.81,15.64,8.83,7.69,4.91,15,10.47,22.8,15.13,8.21,4.88,11.94,11.46,11.08,21.05-.35,3.82.59,7.76.94,11.64q-.27,27.55-.53,55.1c-1.17,2.28-3.05,4.45-3.39,6.84-1.78,12.37-3.17,24.79-4.69,37.19l-7.66-4.13c-15.07-33.91-24.94-69.44-32.39-105.66C1504.77,2744.34,1503.85,2733.14,1502.32,2722.05Z" transform="translate(-7 -717)" style="fill: #442d44"/>
    <path d="M1547.07,2865.07c1.52-12.4,2.91-24.82,4.69-37.19.34-2.39,2.22-4.56,3.39-6.84,1,11.21,2.22,22.4,2.91,33.62.54,8.63.41,17.3.57,26-3.5,3.09-4.22,10.15-11.4,8q-1.74-8-3.47-16C1544.86,2870.1,1546,2867.59,1547.07,2865.07Z" transform="translate(-7 -717)" style="fill: #7f7585"/>
    <path d="M1422.79,2581.38c-1.16-4.86-2.45-9.69-3.43-14.59-.73-3.66-.19-7.77-4.35-9.87-.17-3.92-.29-7.85-.53-11.76-.18-3-3.81-5.65-.12-10.2,2.85,3.61,6.82,6.55,7.82,10.28C1425.36,2557.11,1429.25,2569.25,1422.79,2581.38Z" transform="translate(-7 -717)" style="fill: #eae6e9"/>
    <path d="M1547.23,2888.66c7.18,2.11,7.9-4.95,11.4-8,1,3.72,2.94,7.45,2.87,11.15a10.62,10.62,0,0,1-4.41,7.52c-3.17,2-6.26-.52-7.9-3.38C1548,2893.81,1547.84,2891.1,1547.23,2888.66Z" transform="translate(-7 -717)" style="fill: #cfd6db"/>
    <path d="M1547.07,2865.07c-1.1,2.52-2.21,5-3.31,7.54l-4.35-11.67Z" transform="translate(-7 -717)" style="fill: #574d60"/>
    <path d="M1030,2904.28l-181.47,14.2c-2.56-4.47-5.16-8.17-6.93-12.24a614.83,614.83,0,0,1-41.37-139.42c-14.06-80.5-16.27-161.56-9.32-242.38.94-1,1.38-1.49,1.88-1.92s1-1,1.58-1.07c9.25-1.18,18.49-2.52,27.77-3.37,56.33-5.2,112.67-10.28,170.26-15.52.77,4.15,2.1,7.79,2,11.4-.43,20-1,39.93-1.91,59.88-1.94,41.3-2.06,82.52.78,123.84,4.59,66.79,18.43,131.73,36.76,195.89a26.9,26.9,0,0,1,1.06,5.88C1031.14,2900.69,1030.53,2902,1030,2904.28Z" transform="translate(-7 -717)" style="fill: #3f273f"/>
    <path d="M2541.74,1904.58c-6.64,0-13.93.58-21.1-.11-29.13-2.8-58.24-5.92-87.34-9.07-17.19-1.87-34.33-4.26-51.53-6-9.29-.93-14.84-5.47-16.37-14.53-2.64-15.59-8-30.88-5.93-47.35,7.69-4.67,15.8-3.13,23.44-1.9,42,6.8,84,14,125.91,21.08,3.94.66,7.82,1.65,11.73,2.42,14,2.72,22.59,10.15,24,25.18C2545.56,1884.18,2548.7,1894,2541.74,1904.58Z" transform="translate(-7 -717)" style="fill: #494e5f"/>
    <path d="M2542.78,1975.21c1.64,14.69,1.38,29,.1,44.42-4,.71-7.72,2-11.45,2q-73.71.2-147.42.05c-3.26,0-6.52-.58-10.7-1-3.93-16.47-1.57-32.79-1.56-49.64,7-4,14.15-5.18,21.32-5.12,26.54.22,53.1.24,79.6,1.5,20.51,1,40.95,3.62,61.41,5.64C2536.6,1973.31,2539.05,1974.26,2542.78,1975.21Z" transform="translate(-7 -717)" style="fill: #4a4f60"/>
    <path d="M1626,1970.81c-16.21,3-53.17,3-69.93-.22,16.79-59.54,35.48-118.16,63.45-173.06,1.79.14,2.62,0,3,.29a2.78,2.78,0,0,1,.61,1.86q2.55,79.89,5,159.8a48,48,0,0,1-.45,7.94C1627.49,1968.61,1626.55,1969.68,1626,1970.81Z" transform="translate(-7 -717)" style="fill: #4b5062"/>
    <path d="M1872.86,1790.27c19.77,56.91,27.71,111.51,31.55,166.69-16.87,4.1-51.27,5.43-72.27,3.13,0-2.95-.59-6.16.09-9.06q17.61-74.6,35.54-149.11C1868.36,1799.47,1869.79,1797.21,1872.86,1790.27Z" transform="translate(-7 -717)" style="fill: #4b5062"/>
  </g>
</svg>
